<?xml version="1.0" encoding="UTF-8" standalone="no"?>
<!-- Generator: Adobe Illustrator 19.0.0, SVG Export Plug-In . SVG Version: 6.00 Build 0)  -->

<svg
   xmlns:dc="http://purl.org/dc/elements/1.1/"
   xmlns:cc="http://creativecommons.org/ns#"
   xmlns:rdf="http://www.w3.org/1999/02/22-rdf-syntax-ns#"
   xmlns:svg="http://www.w3.org/2000/svg"
   xmlns="http://www.w3.org/2000/svg"
   xmlns:sodipodi="http://sodipodi.sourceforge.net/DTD/sodipodi-0.dtd"
   xmlns:inkscape="http://www.inkscape.org/namespaces/inkscape"
   version="1.1"
   x="0px"
   y="0px"
   viewBox="0 0 1200 1200"
   xml:space="preserve"
   id="svg2"
   inkscape:version="0.48.4 r9939"
   width="100%"
   height="100%"
   sodipodi:docname="Compass v2.svg"
   inkscape:export-filename="/home/kevin/workspace/guardian_of_the_fields_the_strawberry_jam/Unity/Assets/Sprites/compass_arrows.png"
   inkscape:export-xdpi="38.400002"
   inkscape:export-ydpi="38.400002"><metadata
     id="metadata52"><rdf:RDF><cc:Work
         rdf:about=""><dc:format>image/svg+xml</dc:format><dc:type
           rdf:resource="http://purl.org/dc/dcmitype/StillImage" /><dc:title></dc:title></cc:Work></rdf:RDF></metadata><defs
     id="defs50" /><sodipodi:namedview
     pagecolor="#ffffff"
     bordercolor="#666666"
     borderopacity="1"
     objecttolerance="10"
     gridtolerance="10"
     guidetolerance="10"
     inkscape:pageopacity="0"
     inkscape:pageshadow="2"
     inkscape:window-width="1622"
     inkscape:window-height="989"
     id="namedview48"
     showgrid="true"
     fit-margin-top="8"
     fit-margin-left="46.1"
     fit-margin-right="46.1"
     fit-margin-bottom="8"
     inkscape:zoom="0.417193"
     inkscape:cx="266.19119"
     inkscape:cy="773.43513"
     inkscape:window-x="58"
     inkscape:window-y="0"
     inkscape:window-maximized="1"
     inkscape:current-layer="svg2"><inkscape:grid
       type="xygrid"
       id="grid3029"
       empspacing="6"
       visible="true"
       enabled="true"
       snapvisiblegridlinesonly="true"
       spacingx="100px"
       spacingy="100px" /></sodipodi:namedview><style
     type="text/css"
     id="style4">
	.st0{display:none;}
	.st1{fill:#FFCC33;stroke:#191616;stroke-width:15;stroke-miterlimit:10;}
	.st2{display:inline;fill:#FFCC33;stroke:#191616;stroke-width:15;stroke-miterlimit:10;}
	.st3{display:inline;}
	.st4{fill:#E53939;}
	.st5{display:inline;fill:#E53939;}
	.st6{display:inline;fill:none;}
	.st7{display:inline;fill:#FFFFFF;}
	.st8{font-family:'Impact';}
	.st9{font-size:300px;}
	.st10{display:inline;fill:none;stroke:#FFFFFF;stroke-miterlimit:10;}
	.st11{fill:#009444;stroke:#299306;stroke-miterlimit:10;}
	.st12{fill:#6B6565;stroke:#191616;stroke-miterlimit:10;}
	.st13{fill:none;stroke:#191616;stroke-width:21;stroke-miterlimit:10;}
	.st14{display:inline;fill:url(#XMLID_29_);}
	.st15{display:inline;fill:none;stroke:#000000;stroke-miterlimit:10;}
</style><g
     id="Layer_11"
     class="st0"
     style="display:none"
     transform="translate(-99.9,534.09999)" /><g
     id="_x33_6._Compass_Arrow__x2013__Left"
     class="st0"
     style="display:none"
     transform="translate(-99.9,534.09999)"><polygon
       id="XMLID_27_"
       class="st2"
       points="153.7,365.9 646.5,650.4 646.5,457 488.7,365.9 646.5,274.8 646.5,81.4 "
       style="fill:#ffcc33;stroke:#191616;stroke-width:15;stroke-miterlimit:10;display:inline" /></g><g
     id="_x33_5._Compass_Arrow__x2013__Down"
     class="st0"
     style="display:none"
     transform="translate(-99.9,534.09999)"><polygon
       id="XMLID_24_"
       class="st2"
       points="399.9,612.3 684.4,119.5 491,119.5 399.9,277.3 308.8,119.5 115.4,119.5 "
       style="fill:#ffcc33;stroke:#191616;stroke-width:15;stroke-miterlimit:10;display:inline" /></g><g
     id="_x33_4._Compass_Arrow__x2013__Up"
     class="st0"
     style="display:none"
     transform="translate(-99.9,534.09999)"><polygon
       id="XMLID_26_"
       class="st2"
       points="399.5,115.7 115,608.5 308.4,608.5 399.5,450.7 490.6,608.5 684,608.5 "
       style="fill:#ffcc33;stroke:#191616;stroke-width:15;stroke-miterlimit:10;display:inline" /></g><g
     id="_x33_3._Pace_Slider_Backward_Symbol"
     class="st0"
     style="display:none"
     transform="translate(-99.9,534.09999)"><g
       id="XMLID_5_"
       class="st3"
       style="display:inline"><polygon
         id="XMLID_7_"
         class="st4"
         points="757,202.5 414.8,400.1 757,597.7 "
         style="fill:#e53939" /><polygon
         id="XMLID_6_"
         class="st4"
         points="415,202.5 72.7,400.1 415,597.7 "
         style="fill:#e53939" /></g></g><g
     id="_x33_2._Pace_Slider_Stop_Symbol"
     class="st0"
     style="display:none"
     transform="translate(-99.9,534.09999)"><polygon
       id="XMLID_8_"
       class="st5"
       points="258.2,58 541.6,58 742,258.4 742,541.8 541.6,742 258.2,742 58,541.8 58,258.4 "
       style="fill:#e53939;display:inline" /><rect
       id="XMLID_11_"
       x="87.699997"
       y="267.60001"
       class="st6"
       width="624.70001"
       height="264.79999"
       style="fill:none;display:inline" /><text
       id="XMLID_12_"
       transform="translate(96.0449,504.882)"
       class="st7 st8 st9"
       style="font-size:300px;fill:#ffffff;display:inline;font-family:Impact">STOP</text>
<polygon
       id="XMLID_13_"
       class="st10"
       points="260.6,62.5 540.4,62.5 737.5,259.5 737.5,539.3 540.4,737.5 260.6,737.5 62.5,539.3 62.5,259.5 "
       style="fill:none;stroke:#ffffff;stroke-miterlimit:10;display:inline" /></g><g
     id="_x33_1._Pace_Slider_Forward_Symbol"
     class="st0"
     style="display:none"
     transform="translate(-99.9,534.09999)"><g
       id="XMLID_3_"
       class="st3"
       style="display:inline"><polygon
         id="XMLID_1_"
         class="st11"
         points="73.5,201.5 415.8,399.1 73.5,596.7 "
         style="fill:#009444;stroke:#299306;stroke-miterlimit:10" /><polygon
         id="XMLID_2_"
         class="st11"
         points="415.5,201.5 757.8,399.1 415.5,596.7 "
         style="fill:#009444;stroke:#299306;stroke-miterlimit:10" /></g></g><g
     id="_x33_0._Pace_Slider_Handle"
     class="st0"
     style="display:none"
     transform="translate(-99.9,534.09999)"><g
       id="XMLID_23_"
       class="st3"
       style="display:inline"><path
         id="XMLID_20_"
         class="st12"
         d="m 470.3,331.8 0,0 c 1.2,4.1 -1.1,8.4 -5.2,9.7 l -212.3,63.9 c -4.1,1.2 -8.4,-1.1 -9.7,-5.2 l 0,0 c -1.2,-4.1 1.1,-8.4 5.2,-9.7 l 212.3,-63.9 c 4.1,-1.2 8.4,1.1 9.7,5.2 z"
         inkscape:connector-curvature="0"
         style="fill:#6b6565;stroke:#191616;stroke-miterlimit:10" /><path
         id="XMLID_17_"
         class="st12"
         d="m 504.9,403.3 0,0 c 1.2,4.1 -1.1,8.4 -5.2,9.7 l -177.9,53.6 c -4.1,1.2 -8.4,-1.1 -9.7,-5.2 v 0 c -1.2,-4.1 1.1,-8.4 5.2,-9.7 l 177.9,-53.6 c 4.1,-1.2 8.4,1.2 9.7,5.2 z"
         inkscape:connector-curvature="0"
         style="fill:#6b6565;stroke:#191616;stroke-miterlimit:10" /><path
         id="XMLID_21_"
         class="st12"
         d="m 317.2,375.5 0,0 c -4.3,0 -7.7,3.6 -7.7,7.8 l 1.5,136.3 c 0,4.3 3.6,7.7 7.8,7.7 h 0 c 4.3,0 7.7,-3.6 7.7,-7.8 L 325,383.2 c 0,-4.3 -3.5,-7.7 -7.8,-7.7 z"
         inkscape:connector-curvature="0"
         style="fill:#6b6565;stroke:#191616;stroke-miterlimit:10" /><circle
         id="XMLID_15_"
         class="st13"
         cx="522.90002"
         cy="446.89999"
         r="56.900002"
         sodipodi:cx="522.90002"
         sodipodi:cy="446.89999"
         sodipodi:rx="56.900002"
         sodipodi:ry="56.900002"
         style="fill:none;stroke:#191616;stroke-width:21;stroke-miterlimit:10"
         d="m 579.80003,446.89999 c 0,31.42501 -25.475,56.90001 -56.90001,56.90001 -31.425,0 -56.9,-25.475 -56.9,-56.90001 0,-31.425 25.475,-56.9 56.9,-56.9 31.42501,0 56.90001,25.475 56.90001,56.9 z" /><path
         id="XMLID_16_"
         class="st12"
         d="m 431.4,275.3 0,0 c 3.8,-2 8.5,-0.5 10.5,3.2 l 86.6,164.4 c 2,3.8 0.5,8.5 -3.2,10.5 l 0,0 c -3.8,2 -8.5,0.5 -10.5,-3.2 L 428.2,285.8 c -2.1,-3.8 -0.6,-8.6 3.2,-10.5 z"
         inkscape:connector-curvature="0"
         style="fill:#6b6565;stroke:#191616;stroke-miterlimit:10" /><path
         id="XMLID_19_"
         class="st12"
         d="m 504.9,408.8 0,0 c 1.2,4.1 -1.1,8.4 -5.2,9.7 l -177.9,53.6 c -4.1,1.2 -8.4,-1.1 -9.7,-5.2 v 0 c -1.2,-4.1 1.1,-8.4 5.2,-9.7 l 177.9,-53.6 c 4.1,-1.2 8.4,1.2 9.7,5.2 z"
         inkscape:connector-curvature="0"
         style="fill:#6b6565;stroke:#191616;stroke-miterlimit:10" /><path
         id="XMLID_22_"
         class="st12"
         d="m 222.7,351.5 0,0 c -3.7,2.1 -5,6.9 -2.9,10.6 l 92.3,161.3 c 2.1,3.7 6.9,5 10.6,2.9 l 0,0 c 3.7,-2.1 5,-6.9 2.9,-10.6 L 233.3,354.4 c -2.2,-3.7 -6.9,-5 -10.6,-2.9 z"
         inkscape:connector-curvature="0"
         style="fill:#6b6565;stroke:#191616;stroke-miterlimit:10" /><path
         id="XMLID_18_"
         class="st12"
         d="m 470.3,335.3 0,0 c 1.2,4.1 -1.1,8.4 -5.2,9.7 l -212.7,64 c -4.1,1.2 -8.4,-1.1 -9.7,-5.2 l 0,0 c -1.2,-4.1 1.1,-8.4 5.2,-9.7 l 212.7,-64 c 4.1,-1.2 8.4,1.1 9.7,5.2 z"
         inkscape:connector-curvature="0"
         style="fill:#6b6565;stroke:#191616;stroke-miterlimit:10" /></g></g><g
     id="_x32_9._Pace_Slider_Body"
     class="st0"
     style="display:none"
     transform="translate(-99.9,534.09999)"><linearGradient
       id="XMLID_29_"
       gradientUnits="userSpaceOnUse"
       x1="30.879299"
       y1="400.5"
       x2="768.12073"
       y2="400.5"><stop
         offset="3.993217e-007"
         style="stop-color:#FF0000"
         id="stop40" /><stop
         offset="0.9934"
         style="stop-color:#39B54A"
         id="stop42" /></linearGradient><path
       id="XMLID_14_"
       class="st14"
       d="M 756.1,412.9 H 42.9 c -6.6,0 -12,-5.4 -12,-12 v -0.8 c 0,-6.6 5.4,-12 12,-12 h 713.2 c 6.6,0 12,5.4 12,12 v 0.8 c 0,6.6 -5.4,12 -12,12 z"
       inkscape:connector-curvature="0"
       style="fill:url(#XMLID_29_);display:inline" /></g><g
     id="Scaffolding"
     class="st0"
     style="display:none"
     transform="translate(-99.9,534.09999)"><line
       id="XMLID_9_"
       class="st15"
       x1="0"
       y1="400.5"
       x2="800"
       y2="400.5"
       style="fill:none;stroke:#000000;stroke-miterlimit:10;display:inline" /><line
       id="XMLID_10_"
       class="st15"
       x1="399.5"
       y1="800"
       x2="399.5"
       y2="0"
       style="fill:none;stroke:#000000;stroke-miterlimit:10;display:inline" /></g><g
     transform="matrix(0,-1,1,0,-65.9,699.9)"
     id="g3050"><polygon
       style="fill:#ffcc33;stroke:#191616;stroke-width:15;stroke-miterlimit:10"
       points="153.5,274.8 311.3,365.9 153.5,457 153.5,650.4 646.3,365.9 153.5,81.4 "
       class="st1"
       id="polygon3052" /></g><g
     id="g3081"
     transform="matrix(0,-1,1,0,-65.9,699.9)"
     style="fill:#ff8080"><path
       style="fill:#ff8080;stroke:#191616;stroke-width:15;stroke-miterlimit:10"
       d="m 153.5,274.8 157.8,91.1 -157.8,91.1 0,108.9 346.4,-200 -346.4,-200 z"
       id="polygon3083"
       inkscape:connector-curvature="0"
       sodipodi:nodetypes="ccccccc" /></g><g
     id="g3091"
     transform="matrix(-1,0,0,-1,699.9,1265.9)"><polygon
       id="polygon3093"
       class="st1"
       points="646.3,365.9 153.5,81.4 153.5,274.8 311.3,365.9 153.5,457 153.5,650.4 "
       style="fill:#ffcc33;stroke:#191616;stroke-width:15;stroke-miterlimit:10" /></g><g
     style="fill:#8dd35f"
     transform="matrix(-1,0,0,-1,699.9,1265.9)"
     id="g3095"><path
       sodipodi:nodetypes="ccccccc"
       inkscape:connector-curvature="0"
       id="path3097"
       d="m 153.5,274.8 157.8,91.1 -157.8,91.1 0,108.9 346.4,-200 -346.4,-200 z"
       style="fill:#8dd35f;stroke:#191616;stroke-width:15;stroke-miterlimit:10" /></g><g
     transform="matrix(0,1,-1,0,1265.9,500.1)"
     id="g3107"><polygon
       style="fill:#ffcc33;stroke:#191616;stroke-width:15;stroke-miterlimit:10"
       points="153.5,274.8 311.3,365.9 153.5,457 153.5,650.4 646.3,365.9 153.5,81.4 "
       class="st1"
       id="polygon3109" /></g><g
     id="g3111"
     transform="matrix(0,1,-1,0,1265.9,500.1)"
     style="fill:#5f8dd3"><path
       style="fill:#5f8dd3;stroke:#191616;stroke-width:15;stroke-miterlimit:10"
       d="m 153.5,274.8 157.8,91.1 -157.8,91.1 0,108.9 346.4,-200 -346.4,-200 z"
       id="path3113"
       inkscape:connector-curvature="0"
       sodipodi:nodetypes="ccccccc" /></g><g
     id="g3117"
     transform="translate(500.1,-65.9)"><polygon
       id="polygon3119"
       class="st1"
       points="153.5,274.8 311.3,365.9 153.5,457 153.5,650.4 646.3,365.9 153.5,81.4 "
       style="fill:#ffcc33;stroke:#191616;stroke-width:15;stroke-miterlimit:10" /></g><g
     style="fill:#ffdd55"
     transform="translate(500.1,-65.9)"
     id="g3121"><path
       sodipodi:nodetypes="ccccccc"
       inkscape:connector-curvature="0"
       id="path3123"
       d="m 153.5,274.8 157.8,91.1 -157.8,91.1 0,108.9 346.4,-200 -346.4,-200 z"
       style="fill:#ffdd55;stroke:#191616;stroke-width:15;stroke-miterlimit:10" /></g></svg>