<?xml version="1.0" encoding="UTF-8" standalone="no"?>
<!-- Created with Inkscape (http://www.inkscape.org/) -->

<svg
   xmlns:dc="http://purl.org/dc/elements/1.1/"
   xmlns:cc="http://creativecommons.org/ns#"
   xmlns:rdf="http://www.w3.org/1999/02/22-rdf-syntax-ns#"
   xmlns:svg="http://www.w3.org/2000/svg"
   xmlns="http://www.w3.org/2000/svg"
   xmlns:xlink="http://www.w3.org/1999/xlink"
   xmlns:sodipodi="http://sodipodi.sourceforge.net/DTD/sodipodi-0.dtd"
   xmlns:inkscape="http://www.inkscape.org/namespaces/inkscape"
   width="128"
   height="128"
   id="svg7603"
   version="1.1"
   inkscape:version="0.48.1 "
   sodipodi:docname="Overflow.svg">
  <defs
     id="defs7605">
    <linearGradient
       id="linearGradient8636">
      <stop
         style="stop-color:#00e778;stop-opacity:1;"
         offset="0"
         id="stop8638" />
      <stop
         style="stop-color:#00aa93;stop-opacity:1;"
         offset="1"
         id="stop8640" />
    </linearGradient>
    <radialGradient
       inkscape:collect="always"
       xlink:href="#linearGradient4388"
       id="radialGradient7352"
       gradientUnits="userSpaceOnUse"
       gradientTransform="matrix(1.1232416,0.69513723,-0.69490013,1.1228585,384.98718,-360.93104)"
       cx="70.190216"
       cy="444.94769"
       fx="70.190216"
       fy="444.94769"
       r="11.358824" />
    <linearGradient
       id="linearGradient4388">
      <stop
         style="stop-color:#ff3030;stop-opacity:1;"
         offset="0"
         id="stop4390" />
      <stop
         style="stop-color:#b80000;stop-opacity:1;"
         offset="1"
         id="stop4392" />
    </linearGradient>
    <radialGradient
       inkscape:collect="always"
       xlink:href="#linearGradient4388"
       id="radialGradient7340"
       gradientUnits="userSpaceOnUse"
       gradientTransform="matrix(1.0830463,0.31498615,-0.31487871,1.0826769,217.27202,-317.44695)"
       cx="70.190216"
       cy="444.94769"
       fx="70.190216"
       fy="444.94769"
       r="11.358824" />
    <linearGradient
       id="linearGradient7387">
      <stop
         style="stop-color:#ff3030;stop-opacity:1;"
         offset="0"
         id="stop7389" />
      <stop
         style="stop-color:#b80000;stop-opacity:1;"
         offset="1"
         id="stop7391" />
    </linearGradient>
    <radialGradient
       inkscape:collect="always"
       xlink:href="#linearGradient4388"
       id="radialGradient7328"
       gradientUnits="userSpaceOnUse"
       gradientTransform="matrix(1.1094471,0,0,1.1090685,74.585882,-308.1242)"
       cx="70.190216"
       cy="444.94769"
       fx="70.190216"
       fy="444.94769"
       r="11.358824" />
    <linearGradient
       id="linearGradient7394">
      <stop
         style="stop-color:#ff3030;stop-opacity:1;"
         offset="0"
         id="stop7396" />
      <stop
         style="stop-color:#b80000;stop-opacity:1;"
         offset="1"
         id="stop7398" />
    </linearGradient>
    <radialGradient
       inkscape:collect="always"
       xlink:href="#linearGradient4388"
       id="radialGradient7316"
       gradientUnits="userSpaceOnUse"
       gradientTransform="matrix(0.50632393,1.2207465,-1.2203301,0.50615113,662.68823,-120.80566)"
       cx="70.190216"
       cy="444.94769"
       fx="70.190216"
       fy="444.94769"
       r="11.358824" />
    <linearGradient
       id="linearGradient7401">
      <stop
         style="stop-color:#ff3030;stop-opacity:1;"
         offset="0"
         id="stop7403" />
      <stop
         style="stop-color:#b80000;stop-opacity:1;"
         offset="1"
         id="stop7405" />
    </linearGradient>
    <radialGradient
       inkscape:collect="always"
       xlink:href="#linearGradient4388"
       id="radialGradient7304"
       gradientUnits="userSpaceOnUse"
       gradientTransform="matrix(1.2177215,0.88671535,-0.88641286,1.2173062,464.56279,-416.03751)"
       cx="70.190216"
       cy="444.94769"
       fx="70.190216"
       fy="444.94769"
       r="11.358824" />
    <linearGradient
       id="linearGradient7408">
      <stop
         style="stop-color:#ff3030;stop-opacity:1;"
         offset="0"
         id="stop7410" />
      <stop
         style="stop-color:#b80000;stop-opacity:1;"
         offset="1"
         id="stop7412" />
    </linearGradient>
    <radialGradient
       inkscape:collect="always"
       xlink:href="#linearGradient4388"
       id="radialGradient7292"
       gradientUnits="userSpaceOnUse"
       gradientTransform="matrix(0.34022551,1.3071748,-1.3067287,0.34010948,712.67181,-52.489882)"
       cx="70.190216"
       cy="444.94769"
       fx="70.190216"
       fy="444.94769"
       r="11.358824" />
    <linearGradient
       id="linearGradient7415">
      <stop
         style="stop-color:#ff3030;stop-opacity:1;"
         offset="0"
         id="stop7417" />
      <stop
         style="stop-color:#b80000;stop-opacity:1;"
         offset="1"
         id="stop7419" />
    </linearGradient>
    <radialGradient
       inkscape:collect="always"
       xlink:href="#linearGradient4388"
       id="radialGradient7280"
       gradientUnits="userSpaceOnUse"
       gradientTransform="matrix(0.983315,0.70713019,-0.70688885,0.9829795,399.83637,-299.20649)"
       cx="70.190216"
       cy="444.94769"
       fx="70.190216"
       fy="444.94769"
       r="11.358824" />
    <linearGradient
       id="linearGradient7422">
      <stop
         style="stop-color:#ff3030;stop-opacity:1;"
         offset="0"
         id="stop7424" />
      <stop
         style="stop-color:#b80000;stop-opacity:1;"
         offset="1"
         id="stop7426" />
    </linearGradient>
    <radialGradient
       inkscape:collect="always"
       xlink:href="#linearGradient4388"
       id="radialGradient7268"
       gradientUnits="userSpaceOnUse"
       gradientTransform="matrix(1.1392474,0.41116533,-0.411025,1.1388586,256.57429,-349.01682)"
       cx="70.190216"
       cy="444.94769"
       fx="70.190216"
       fy="444.94769"
       r="11.358824" />
    <linearGradient
       id="linearGradient7429">
      <stop
         style="stop-color:#ff3030;stop-opacity:1;"
         offset="0"
         id="stop7431" />
      <stop
         style="stop-color:#b80000;stop-opacity:1;"
         offset="1"
         id="stop7433" />
    </linearGradient>
    <radialGradient
       inkscape:collect="always"
       xlink:href="#linearGradient4388"
       id="radialGradient7256"
       gradientUnits="userSpaceOnUse"
       gradientTransform="matrix(0.81626004,0.89479664,-0.89449128,0.81598155,495.40053,-237.20673)"
       cx="70.190216"
       cy="444.94769"
       fx="70.190216"
       fy="444.94769"
       r="11.358824" />
    <linearGradient
       id="linearGradient7436">
      <stop
         style="stop-color:#ff3030;stop-opacity:1;"
         offset="0"
         id="stop7438" />
      <stop
         style="stop-color:#b80000;stop-opacity:1;"
         offset="1"
         id="stop7440" />
    </linearGradient>
    <radialGradient
       inkscape:collect="always"
       xlink:href="#linearGradient4388"
       id="radialGradient7244"
       gradientUnits="userSpaceOnUse"
       gradientTransform="matrix(1.062317,0.8816394,-0.88133849,1.0619545,472.81095,-346.25439)"
       cx="70.190216"
       cy="444.94769"
       fx="70.190216"
       fy="444.94769"
       r="11.358824" />
    <linearGradient
       id="linearGradient7443">
      <stop
         style="stop-color:#ff3030;stop-opacity:1;"
         offset="0"
         id="stop7445" />
      <stop
         style="stop-color:#b80000;stop-opacity:1;"
         offset="1"
         id="stop7447" />
    </linearGradient>
    <radialGradient
       inkscape:collect="always"
       xlink:href="#linearGradient4388"
       id="radialGradient7232"
       gradientUnits="userSpaceOnUse"
       gradientTransform="matrix(-0.57299834,1.2231648,-1.2227474,-0.57280272,736.49709,361.59063)"
       cx="70.190216"
       cy="444.94769"
       fx="70.190216"
       fy="444.94769"
       r="11.358824" />
    <linearGradient
       id="linearGradient7450">
      <stop
         style="stop-color:#ff3030;stop-opacity:1;"
         offset="0"
         id="stop7452" />
      <stop
         style="stop-color:#b80000;stop-opacity:1;"
         offset="1"
         id="stop7454" />
    </linearGradient>
    <radialGradient
       inkscape:collect="always"
       xlink:href="#linearGradient4388"
       id="radialGradient7220"
       gradientUnits="userSpaceOnUse"
       gradientTransform="matrix(-0.92458466,0.69966385,-0.69942533,-0.92426945,521.08599,554.01631)"
       cx="70.190216"
       cy="444.94769"
       fx="70.190216"
       fy="444.94769"
       r="11.358824" />
    <linearGradient
       id="linearGradient7457">
      <stop
         style="stop-color:#ff3030;stop-opacity:1;"
         offset="0"
         id="stop7459" />
      <stop
         style="stop-color:#b80000;stop-opacity:1;"
         offset="1"
         id="stop7461" />
    </linearGradient>
    <radialGradient
       inkscape:collect="always"
       xlink:href="#linearGradient4388"
       id="radialGradient7208"
       gradientUnits="userSpaceOnUse"
       gradientTransform="matrix(-0.4146924,1.2196153,-1.2191991,-0.41455089,722.06162,287.42769)"
       cx="70.190216"
       cy="444.94769"
       fx="70.190216"
       fy="444.94769"
       r="11.358824" />
    <linearGradient
       id="linearGradient7464">
      <stop
         style="stop-color:#ff3030;stop-opacity:1;"
         offset="0"
         id="stop7466" />
      <stop
         style="stop-color:#b80000;stop-opacity:1;"
         offset="1"
         id="stop7468" />
    </linearGradient>
    <radialGradient
       inkscape:collect="always"
       xlink:href="#linearGradient4388"
       id="radialGradient7196"
       gradientUnits="userSpaceOnUse"
       gradientTransform="matrix(-0.63215805,0.97198896,-0.97165758,-0.63194252,627.8931,405.17645)"
       cx="70.190216"
       cy="444.94769"
       fx="70.190216"
       fy="444.94769"
       r="11.358824" />
    <linearGradient
       id="linearGradient7471">
      <stop
         style="stop-color:#ff3030;stop-opacity:1;"
         offset="0"
         id="stop7473" />
      <stop
         style="stop-color:#b80000;stop-opacity:1;"
         offset="1"
         id="stop7475" />
    </linearGradient>
    <radialGradient
       inkscape:collect="always"
       xlink:href="#linearGradient4388"
       id="radialGradient7184"
       gradientUnits="userSpaceOnUse"
       gradientTransform="matrix(0.77268847,1.3316285,-1.3311739,0.77242448,682.69531,-252.46491)"
       cx="70.190216"
       cy="444.94769"
       fx="70.190216"
       fy="444.94769"
       r="11.358824" />
    <linearGradient
       id="linearGradient7478">
      <stop
         style="stop-color:#ff3030;stop-opacity:1;"
         offset="0"
         id="stop7480" />
      <stop
         style="stop-color:#b80000;stop-opacity:1;"
         offset="1"
         id="stop7482" />
    </linearGradient>
    <radialGradient
       inkscape:collect="always"
       xlink:href="#linearGradient4388"
       id="radialGradient7172"
       gradientUnits="userSpaceOnUse"
       gradientTransform="matrix(0.85571282,0.81656618,-0.81628747,0.85542073,457.60557,-249.55912)"
       cx="70.190216"
       cy="444.94769"
       fx="70.190216"
       fy="444.94769"
       r="11.358824" />
    <linearGradient
       id="linearGradient7485">
      <stop
         style="stop-color:#ff3030;stop-opacity:1;"
         offset="0"
         id="stop7487" />
      <stop
         style="stop-color:#b80000;stop-opacity:1;"
         offset="1"
         id="stop7489" />
    </linearGradient>
    <radialGradient
       inkscape:collect="always"
       xlink:href="#linearGradient4388"
       id="radialGradient7160"
       gradientUnits="userSpaceOnUse"
       gradientTransform="matrix(0.95535297,0.27491939,-0.27482557,0.95502697,207.91736,-257.68269)"
       cx="70.190216"
       cy="444.94769"
       fx="70.190216"
       fy="444.94769"
       r="11.358824" />
    <linearGradient
       id="linearGradient7492">
      <stop
         style="stop-color:#ff3030;stop-opacity:1;"
         offset="0"
         id="stop7494" />
      <stop
         style="stop-color:#b80000;stop-opacity:1;"
         offset="1"
         id="stop7496" />
    </linearGradient>
    <radialGradient
       inkscape:collect="always"
       xlink:href="#linearGradient4388"
       id="radialGradient7148"
       gradientUnits="userSpaceOnUse"
       gradientTransform="matrix(0.96982131,0.21051922,-0.21044738,0.96949035,178.11074,-259.83309)"
       cx="70.190216"
       cy="444.94769"
       fx="70.190216"
       fy="444.94769"
       r="11.358824" />
    <linearGradient
       id="linearGradient7499">
      <stop
         style="stop-color:#ff3030;stop-opacity:1;"
         offset="0"
         id="stop7501" />
      <stop
         style="stop-color:#b80000;stop-opacity:1;"
         offset="1"
         id="stop7503" />
    </linearGradient>
    <radialGradient
       inkscape:collect="always"
       xlink:href="#linearGradient7364"
       id="radialGradient7370"
       cx="185.62199"
       cy="187.8213"
       fx="185.62199"
       fy="187.8213"
       r="62.321304"
       gradientUnits="userSpaceOnUse" />
    <linearGradient
       id="linearGradient7364">
      <stop
         style="stop-color:#ffcc00;stop-opacity:1;"
         offset="0"
         id="stop7366" />
      <stop
         style="stop-color:#ffcc00;stop-opacity:0.50196081;"
         offset="1"
         id="stop7368" />
    </linearGradient>
    <radialGradient
       r="62.321304"
       fy="187.8213"
       fx="185.62199"
       cy="187.8213"
       cx="185.62199"
       gradientUnits="userSpaceOnUse"
       id="radialGradient7601"
       xlink:href="#linearGradient7364"
       inkscape:collect="always" />
    <linearGradient
       inkscape:collect="always"
       xlink:href="#linearGradient8636"
       id="linearGradient8642"
       x1="53.534081"
       y1="946.0838"
       x2="60.642056"
       y2="1033.462"
       gradientUnits="userSpaceOnUse"
       gradientTransform="matrix(1.1414093,0,0,1.1414093,-12.927816,-140.08496)" />
  </defs>
  <sodipodi:namedview
     id="base"
     pagecolor="#ffffff"
     bordercolor="#666666"
     borderopacity="1.0"
     inkscape:pageopacity="0.0"
     inkscape:pageshadow="2"
     inkscape:zoom="1.4"
     inkscape:cx="55.591707"
     inkscape:cy="57.06983"
     inkscape:document-units="px"
     inkscape:current-layer="layer1"
     showgrid="false"
     inkscape:window-width="708"
     inkscape:window-height="425"
     inkscape:window-x="150"
     inkscape:window-y="150"
     inkscape:window-maximized="0"
     showguides="true"
     inkscape:guide-bbox="true" />
  <metadata
     id="metadata7608">
    <rdf:RDF>
      <cc:Work
         rdf:about="">
        <dc:format>image/svg+xml</dc:format>
        <dc:type
           rdf:resource="http://purl.org/dc/dcmitype/StillImage" />
        <dc:title />
      </cc:Work>
    </rdf:RDF>
  </metadata>
  <g
     inkscape:label="Layer 1"
     inkscape:groupmode="layer"
     id="layer1"
     transform="translate(0,-924.36218)">
    <path
       sodipodi:type="star"
       style="fill:url(#radialGradient7601);fill-opacity:1;stroke:#d4aa00;stroke-width:5;stroke-linecap:round;stroke-miterlimit:4;stroke-opacity:1;stroke-dasharray:none;stroke-dashoffset:0"
       id="path7354"
       sodipodi:sides="4"
       sodipodi:cx="185.62199"
       sodipodi:cy="187.8213"
       sodipodi:r1="82.451645"
       sodipodi:r2="29.782087"
       sodipodi:arg1="0.75898921"
       sodipodi:arg2="1.5490117"
       inkscape:flatsided="false"
       inkscape:rounded="0"
       inkscape:randomized="0"
       d="m 245.4433,244.56357 -59.17257,-26.96724 -57.391,30.04628 26.96724,-59.17257 -30.04628,-57.391 59.17256,26.96724 L 242.36426,128 215.39701,187.17256 z"
       transform="matrix(0.96413564,0.02601061,-0.02359578,0.96387999,-110.64977,804.32144)"
       sodipodi:insensitive="true" />
    <g
       id="g7142"
       transform="matrix(0.89891784,0,0,0.89891784,-109.5987,815.58512)"
       style="stroke-width:2.22489744;stroke-miterlimit:4;stroke-dasharray:none">
      <path
         sodipodi:nodetypes="szsss"
         inkscape:connector-curvature="0"
         id="path4302"
         d="m 158.8066,182.19804 c 2.57764,5.40065 -0.86621,15.80038 -3.94465,16.89069 -3.07848,1.09031 -13.03518,-2.15552 -15.61282,-7.55616 -2.57767,-5.40066 0.87762,-9.42366 6.2783,-12.00132 5.40062,-2.57765 10.70149,-2.73386 13.27917,2.66679 z"
         style="fill:url(#radialGradient7148);fill-opacity:1;stroke:#000000;stroke-width:2.22489744;stroke-linecap:round;stroke-miterlimit:4;stroke-opacity:1;stroke-dasharray:none;stroke-dashoffset:0" />
      <path
         inkscape:connector-curvature="0"
         d="m 132.88758,179.61764 c 0.77808,-0.48285 1.65954,-0.64129 2.52386,-0.891 0.76922,-0.1965 1.5317,-0.33773 2.32581,-0.27033 0.72395,-0.0139 1.43446,0.17636 2.12676,0.36894 0.55926,0.21453 1.12399,0.44319 1.71836,0.53621 0.28919,0.055 0.55392,0.17722 0.8363,0.25649 0,0 -2.13381,5.37589 -2.13381,5.37589 l 0,0 c -0.26134,-0.0794 -0.51302,-0.18463 -0.78194,-0.23596 -0.60464,-0.12788 -1.18796,-0.33375 -1.75842,-0.57002 -0.65766,-0.18214 -1.32425,-0.3434 -2.01207,-0.32722 -0.7297,-0.0217 -1.43969,0.12093 -2.14217,0.31274 -0.832,0.21418 -1.6584,0.42751 -2.32379,1.01031 0,0 1.62111,-5.56605 1.62111,-5.56605 z"
         id="path4304"
         style="fill:#00ff00;fill-opacity:1;stroke:#000000;stroke-width:2.22489744;stroke-linecap:round;stroke-miterlimit:4;stroke-opacity:1;stroke-dasharray:none;stroke-dashoffset:0" />
      <path
         inkscape:connector-curvature="0"
         d="m 142.94634,169.9259 c -0.19492,0.85505 -0.45037,1.68273 -0.56723,2.55405 -0.0775,0.79774 -0.0467,1.58812 0.0365,2.38325 0.10226,0.75447 0.38174,1.45151 0.65236,2.1557 0.26682,0.79014 0.67041,1.51606 1.11946,2.21452 0.0772,0.11269 0.15406,0.22525 0.23105,0.33785 0,0 5.80016,-1.06627 5.80016,-1.06627 l 0,0 c -0.0767,-0.10709 -0.15216,-0.215 -0.22836,-0.32243 -0.43906,-0.65345 -0.84604,-1.32994 -1.09517,-2.08193 -0.23518,-0.66535 -0.52867,-1.30567 -0.61262,-2.01623 -0.0861,-0.74308 -0.13839,-1.48263 -0.0577,-2.22999 0.12795,-0.81373 0.34153,-1.61941 0.65601,-2.38107 0,0 -5.93454,0.45257 -5.93454,0.45257 z"
         id="path4306"
         style="fill:#00ff00;fill-opacity:1;stroke:#000000;stroke-width:2.22489744;stroke-linecap:round;stroke-miterlimit:4;stroke-opacity:1;stroke-dasharray:none;stroke-dashoffset:0" />
      <path
         inkscape:connector-curvature="0"
         d="m 130.01778,176.71944 c 0.73119,-0.0196 1.45669,-0.062 2.20193,0.009 0.775,0.12913 1.55575,0.5451 2.3258,0.8944 0.85425,0.39935 1.69965,0.85863 2.56021,1.17373 0.85955,0.30789 1.71485,0.71253 2.57085,1.08627 0.66542,0.28359 1.33421,0.48654 2.00046,0.74394 0,0 4.75023,-2.32822 4.75023,-2.32822 l 0,0 c -0.67211,-0.34822 -1.34872,-0.47237 -2.02638,-0.75134 -0.86722,-0.35426 -1.72898,-0.76559 -2.59443,-1.1328 -0.85415,-0.24945 -1.68911,-0.67144 -2.52931,-1.1194 -0.79541,-0.34031 -1.58534,-0.75515 -2.38116,-1.06246 -0.73129,-0.11953 -1.46981,-0.19893 -2.16284,-0.0623 0,0 -4.71536,2.54821 -4.71536,2.54821 z"
         id="path4308"
         style="fill:#00ff00;fill-opacity:1;stroke:#000000;stroke-width:2.22489744;stroke-linecap:round;stroke-miterlimit:4;stroke-opacity:1;stroke-dasharray:none;stroke-dashoffset:0" />
    </g>
    <g
       transform="matrix(0.89891784,0,0,0.89891784,-91.805685,801.74611)"
       id="g7150"
       style="stroke-width:2.22489744;stroke-miterlimit:4;stroke-dasharray:none">
      <path
         style="fill:url(#radialGradient7160);fill-opacity:1;stroke:#000000;stroke-width:2.22489744;stroke-linecap:round;stroke-miterlimit:4;stroke-opacity:1;stroke-dasharray:none;stroke-dashoffset:0"
         d="m 159.22359,182.85167 c 2.21721,5.56949 -1.91663,15.73517 -5.06612,16.62022 -3.14952,0.88505 -12.88555,-3.02145 -15.10276,-8.59092 -2.21725,-5.5695 1.50393,-9.36075 7.07344,-11.57799 5.5695,-2.21722 10.8782,-2.0208 13.09544,3.54869 z"
         id="path7152"
         inkscape:connector-curvature="0"
         sodipodi:nodetypes="szsss" />
      <path
         style="fill:#00ff00;fill-opacity:1;stroke:#000000;stroke-width:2.22489744;stroke-linecap:round;stroke-miterlimit:4;stroke-opacity:1;stroke-dasharray:none;stroke-dashoffset:0"
         id="path7154"
         d="m 133.08796,178.83436 c 0.89802,-0.37005 1.8478,-0.3827 2.79552,-0.4938 0.83896,-0.072 1.66128,-0.0873 2.48046,0.12118 0.75992,0.11097 1.47024,0.43374 2.16113,0.75551 0.54787,0.32158 1.09903,0.65896 1.70474,0.85954 0.29302,0.10774 0.54879,0.28165 0.83047,0.41362 0,0 -3.16654,5.25409 -3.16654,5.25409 l 0,0 c -0.25962,-0.12839 -0.50467,-0.28229 -0.77714,-0.38271 -0.61041,-0.23886 -1.18498,-0.55561 -1.74078,-0.9019 -0.65648,-0.3048 -1.3259,-0.58933 -2.04838,-0.69193 -0.75977,-0.14915 -1.52733,-0.12361 -2.29568,-0.0449 -0.90774,0.0796 -1.80945,0.15921 -2.60689,0.65339 0,0 2.66309,-5.54209 2.66309,-5.54209 z"
         inkscape:connector-curvature="0" />
      <path
         style="fill:#00ff00;fill-opacity:1;stroke:#000000;stroke-width:2.22489744;stroke-linecap:round;stroke-miterlimit:4;stroke-opacity:1;stroke-dasharray:none;stroke-dashoffset:0"
         id="path7156"
         d="m 144.10877,169.11992 c -0.41243,0.80298 -0.87825,1.56323 -1.21695,2.40234 -0.28084,0.77569 -0.4515,1.57179 -0.57146,2.38589 -0.0901,0.7785 0.0106,1.54482 0.10083,2.31611 0.0646,0.85594 0.28193,1.68278 0.5516,2.49381 0.0481,0.13205 0.0962,0.26393 0.14425,0.39587 0,0 6.05602,0.41581 6.05602,0.41581 l 0,0 c -0.0492,-0.12638 -0.097,-0.25326 -0.14552,-0.37979 -0.27125,-0.76361 -0.50455,-1.542 -0.56123,-2.35544 -0.0649,-0.72346 -0.19424,-1.43686 -0.0967,-2.16686 0.10371,-0.76291 0.24013,-1.51377 0.51108,-2.23847 0.33516,-0.77889 0.75358,-1.52787 1.2614,-2.20721 0,0 -6.03346,-1.06212 -6.03346,-1.06212 z"
         inkscape:connector-curvature="0" />
      <path
         style="fill:#00ff00;fill-opacity:1;stroke:#000000;stroke-width:2.22489744;stroke-linecap:round;stroke-miterlimit:4;stroke-opacity:1;stroke-dasharray:none;stroke-dashoffset:0"
         id="path7158"
         d="m 130.37311,174.81218 c 0.71801,0.15219 1.43575,0.28132 2.14617,0.52574 0.72579,0.30789 1.38991,0.89702 2.0592,1.41857 0.73971,0.59018 1.45669,1.23673 2.22233,1.74619 0.76636,0.50216 1.50584,1.09773 2.25323,1.66336 0.58266,0.43287 1.18751,0.78788 1.77712,1.19541 0,0 5.18111,-1.15639 5.18111,-1.15639 l 0,0 c -0.57398,-0.49752 -1.20497,-0.77748 -1.80065,-1.20874 -0.76294,-0.54921 -1.50714,-1.15283 -2.26532,-1.71427 -0.77478,-0.44389 -1.49035,-1.05161 -2.20494,-1.68591 -0.69617,-0.51875 -1.36948,-1.10893 -2.07376,-1.59558 -0.68542,-0.28829 -1.38731,-0.53913 -2.09551,-0.56862 0,0 -5.19877,1.37924 -5.19877,1.37924 z"
         inkscape:connector-curvature="0" />
    </g>
    <g
       id="g7162"
       transform="matrix(0.89891784,0,0,0.89891784,-75.757141,788.69789)"
       style="stroke-width:2.22489744;stroke-miterlimit:4;stroke-dasharray:none">
      <path
         sodipodi:nodetypes="szsss"
         inkscape:connector-curvature="0"
         id="path7164"
         d="m 163.39043,188.07456 c -0.73282,7.09459 -10.69591,15.53376 -14.50452,14.73052 -3.80865,-0.80325 -11.92015,-10.28969 -11.18734,-17.3843 0.73281,-7.0946 6.74647,-9.04035 13.8411,-8.30755 7.09459,0.73282 12.58358,3.8667 11.85076,10.96133 z"
         style="fill:url(#radialGradient7172);fill-opacity:1;stroke:#000000;stroke-width:2.22489744;stroke-linecap:round;stroke-miterlimit:4;stroke-opacity:1;stroke-dasharray:none;stroke-dashoffset:0" />
      <path
         inkscape:connector-curvature="0"
         d="m 132.20678,179.15007 c 0.92787,-0.55705 1.97232,-0.7289 2.99808,-1.00897 0.91241,-0.21878 1.81594,-0.37241 2.75321,-0.27891 0.85575,-0.005 1.69209,0.23341 2.50683,0.47304 0.65717,0.26327 1.32056,0.54332 2.02133,0.6636 0.3408,0.07 0.65149,0.2191 0.98382,0.31769 0,0 -2.61528,6.3157 -2.61528,6.3157 l 0,0 c -0.30745,-0.0983 -0.60305,-0.22712 -0.91994,-0.29245 -0.71229,-0.16167 -1.39804,-0.4151 -2.06806,-0.70425 -0.77404,-0.2267 -1.55896,-0.42888 -2.37204,-0.42177 -0.86194,-0.0382 -1.70346,0.11785 -2.53695,0.33228 -0.98694,0.23861 -1.96724,0.47631 -2.76372,1.15342 0,0 2.01272,-6.54938 2.01272,-6.54938 z"
         id="path7166"
         style="fill:#00ff00;fill-opacity:1;stroke:#000000;stroke-width:2.22489744;stroke-linecap:round;stroke-miterlimit:4;stroke-opacity:1;stroke-dasharray:none;stroke-dashoffset:0" />
      <path
         inkscape:connector-curvature="0"
         d="m 143.02431,170.04291 c -0.18925,0.83408 -0.43757,1.64152 -0.55066,2.49138 -0.0748,0.77806 -0.0439,1.54885 0.0378,2.32423 0.10047,0.7357 0.37373,1.4152 0.63833,2.10171 0.26099,0.7703 0.65528,1.47787 1.09389,2.15862 0.0753,0.10981 0.15049,0.21951 0.22568,0.32926 0,0 5.65557,-1.04554 5.65557,-1.04554 l 0,0 c -0.0749,-0.10437 -0.14863,-0.20955 -0.22303,-0.31424 -0.42887,-0.63683 -0.82641,-1.29618 -1.07011,-2.02933 -0.22999,-0.64862 -0.51685,-1.27283 -0.59943,-1.96572 -0.0847,-0.72459 -0.1364,-1.44577 -0.0583,-2.17472 0.12402,-0.79374 0.33153,-1.57967 0.63747,-2.32279 0,0 -5.78722,0.44716 -5.78722,0.44716 z"
         id="path7168"
         style="fill:#00ff00;fill-opacity:1;stroke:#000000;stroke-width:2.22489744;stroke-linecap:round;stroke-miterlimit:4;stroke-opacity:1;stroke-dasharray:none;stroke-dashoffset:0" />
      <path
         inkscape:connector-curvature="0"
         d="m 129.5671,176.52079 c 0.77288,-0.007 1.5402,-0.0367 2.32612,0.0525 0.81623,0.15177 1.63284,0.60667 2.43949,0.99095 0.89459,0.4388 1.77867,0.94075 2.68161,1.29066 0.902,0.34231 1.79761,0.78673 2.69458,1.19851 0.69738,0.31276 1.39993,0.54043 2.09873,0.82555 0,0 5.0646,-2.36575 5.0646,-2.36575 l 0,0 c -0.70317,-0.38119 -1.41553,-0.52574 -2.12597,-0.83389 -0.9092,-0.39141 -1.81149,-0.84303 -2.71856,-1.2481 -0.89746,-0.28043 -1.77123,-0.74279 -2.65004,-1.23266 -0.8336,-0.3753 -1.65994,-0.82917 -2.49465,-1.16961 -0.77022,-0.14073 -1.54889,-0.23923 -2.28376,-0.10858 0,0 -5.03213,2.59887 -5.03213,2.59887 z"
         id="path7170"
         style="fill:#00ff00;fill-opacity:1;stroke:#000000;stroke-width:2.22489744;stroke-linecap:round;stroke-miterlimit:4;stroke-opacity:1;stroke-dasharray:none;stroke-dashoffset:0" />
    </g>
    <g
       transform="matrix(0.89891784,0,0,0.89891784,-59.383292,812.00029)"
       id="g7174"
       style="stroke-width:2.22489744;stroke-miterlimit:4;stroke-dasharray:none">
      <path
         style="fill:url(#radialGradient7184);fill-opacity:1;stroke:#000000;stroke-width:2.22489744;stroke-linecap:round;stroke-miterlimit:4;stroke-opacity:1;stroke-dasharray:none;stroke-dashoffset:0"
         d="m 155.8941,187.56258 c -3.49473,8.60079 -19.01468,15.52687 -23.48286,13.13854 -4.46823,-2.38837 -11.15807,-17.19341 -7.66331,-25.79422 3.49479,-8.60078 11.71819,-8.84671 20.31899,-5.35195 8.60075,3.49475 14.32197,9.40686 10.82718,18.00763 z"
         id="path7176"
         inkscape:connector-curvature="0"
         sodipodi:nodetypes="szsss" />
      <path
         style="fill:#00ff00;fill-opacity:1;stroke:#000000;stroke-width:2.22489744;stroke-linecap:round;stroke-miterlimit:4;stroke-opacity:1;stroke-dasharray:none;stroke-dashoffset:0"
         id="path7180"
         d="m 172.37825,204.35309 c -0.55463,-0.65107 -1.05254,-1.33349 -1.66543,-1.93302 -0.57826,-0.52591 -1.2141,-0.96268 -1.88396,-1.36167 -0.64947,-0.35991 -1.35716,-0.54824 -2.06541,-0.74747 -0.77318,-0.2523 -1.57597,-0.36031 -2.3838,-0.41673 -0.13304,-0.006 -0.26593,-0.011 -0.39885,-0.0164 0,0 -2.54976,5.15529 -2.54976,5.15529 l 0,0 c 0.12847,0.003 0.25682,0.006 0.38522,0.01 0.76684,0.0379 1.53295,0.11444 2.26603,0.35836 0.65717,0.20426 1.32888,0.34836 1.93322,0.69716 0.63122,0.36578 1.23952,0.75663 1.77652,1.2557 0.56138,0.57468 1.06651,1.21155 1.47843,1.90161 0,0 3.10776,-4.90242 3.10776,-4.90242 z"
         inkscape:connector-curvature="0" />
      <path
         style="fill:#00ff00;fill-opacity:1;stroke:#000000;stroke-width:2.22489744;stroke-linecap:round;stroke-miterlimit:4;stroke-opacity:1;stroke-dasharray:none;stroke-dashoffset:0"
         id="path7182"
         d="m 175.93429,196.05303 c -0.65093,0.33365 -1.28695,0.68521 -1.98962,0.94341 -0.75472,0.21837 -1.63856,0.18054 -2.48396,0.19822 -0.94294,0.009 -1.90378,-0.04 -2.81602,0.0476 -0.90821,0.0937 -1.85438,0.0983 -2.78786,0.13106 -0.72262,0.0317 -1.41346,0.13763 -2.12553,0.19335 0,0 -3.27811,4.15201 -3.27811,4.15201 l 0,0 c 0.75659,0.0237 1.42042,-0.1567 2.15211,-0.19788 0.93515,-0.0552 1.89004,-0.0565 2.82919,-0.0993 0.87811,-0.14405 1.81344,-0.12422 2.76471,-0.0832 0.86437,-0.0367 1.756,-0.004 2.6065,-0.0706 0.71114,-0.20816 1.41149,-0.45562 1.97746,-0.87826 0,0 3.15163,-4.33535 3.15163,-4.33535 z"
         inkscape:connector-curvature="0" />
      <path
         style="fill:#00ff00;fill-opacity:1;stroke:#000000;stroke-width:2.22489744;stroke-linecap:round;stroke-miterlimit:4;stroke-opacity:1;stroke-dasharray:none;stroke-dashoffset:0"
         id="path7178"
         d="m 191.44752,181.40766 c 0.47537,0.78269 0.62533,1.66562 0.86674,2.53231 0.18911,0.77106 0.32301,1.53487 0.24799,2.32829 0.007,0.72405 -0.19012,1.4327 -0.38934,2.12312 -0.2199,0.55717 -0.45399,1.11967 -0.55268,1.71313 -0.0577,0.28867 -0.18257,0.55218 -0.26451,0.83381 0,0 -5.35516,-2.18532 -5.35516,-2.18532 l 0,0 c 0.0819,-0.26056 0.18954,-0.51123 0.24346,-0.77964 0.13368,-0.60339 0.34514,-1.1847 0.58687,-1.75287 0.18845,-0.65588 0.3561,-1.32089 0.34652,-2.00883 0.0287,-0.72946 -0.1071,-1.44079 -0.29216,-2.14508 -0.20618,-0.83401 -0.41157,-1.66242 -0.98796,-2.33338 0,0 5.55023,1.67446 5.55023,1.67446 z"
         inkscape:connector-curvature="0" />
    </g>
    <g
       id="g7186"
       transform="matrix(0.89891784,0,0,0.89891784,-27.136055,811.96825)"
       style="stroke-width:2.22489744;stroke-miterlimit:4;stroke-dasharray:none">
      <path
         sodipodi:nodetypes="szsss"
         inkscape:connector-curvature="0"
         id="path7188"
         d="m 153.08574,200.76672 c -6.96791,0.57564 -16.89894,-7.49902 -16.81308,-11.31369 0.0858,-3.81469 7.76048,-13.34388 14.72845,-13.91951 6.96795,-0.57564 9.92909,4.86689 10.50473,11.83487 0.57566,6.96796 -1.45216,12.82268 -8.4201,13.39833 z"
         style="fill:url(#radialGradient7196);fill-opacity:1;stroke:#000000;stroke-width:2.22489744;stroke-linecap:round;stroke-miterlimit:4;stroke-opacity:1;stroke-dasharray:none;stroke-dashoffset:0" />
      <path
         inkscape:connector-curvature="0"
         d="m 164.0671,177.04782 c 0.0927,0.91102 -0.15141,1.77268 -0.30602,2.65897 -0.16072,0.77748 -0.36816,1.52467 -0.77698,2.20879 -0.30497,0.65673 -0.78754,1.21184 -1.26421,1.74957 -0.43805,0.40854 -0.8912,0.8158 -1.23544,1.30918 -0.17625,0.23578 -0.40218,0.4201 -0.59726,0.63912 0,0 -3.89568,-4.27516 -3.89568,-4.27516 l 0,0 c 0.18596,-0.20005 0.3909,-0.38009 0.55496,-0.59927 0.38008,-0.48732 0.8209,-0.92128 1.2834,-1.33035 0.4521,-0.51118 0.88934,-1.03954 1.17643,-1.66479 0.33949,-0.64628 0.52266,-1.34691 0.65833,-2.06236 0.17237,-0.84165 0.34304,-1.67791 0.11106,-2.53148 0,0 4.29141,3.89778 4.29141,3.89778 z"
         id="path7190"
         style="fill:#00ff00;fill-opacity:1;stroke:#000000;stroke-width:2.22489744;stroke-linecap:round;stroke-miterlimit:4;stroke-opacity:1;stroke-dasharray:none;stroke-dashoffset:0" />
      <path
         inkscape:connector-curvature="0"
         d="m 168.24385,190.44175 c -0.65848,-0.5465 -1.26641,-1.13366 -1.97344,-1.61937 -0.66031,-0.419 -1.36199,-0.74046 -2.09102,-1.01808 -0.7019,-0.24345 -1.43184,-0.30733 -2.16416,-0.3821 -0.80541,-0.11593 -1.61523,-0.0845 -2.42116,-0.001 -0.13202,0.0174 -0.264,0.0349 -0.39594,0.0523 0,0 -1.62795,5.51923 -1.62795,5.51923 l 0,0 c 0.12703,-0.0196 0.25425,-0.0377 0.38135,-0.0567 0.76236,-0.0943 1.53063,-0.15043 2.29505,-0.0359 0.68283,0.0885 1.36962,0.11519 2.02522,0.35525 0.68481,0.25248 1.35165,0.53292 1.96663,0.93268 0.652,0.47003 1.25924,1.01103 1.78372,1.62044 0,0 2.2214,-5.36572 2.2214,-5.36572 z"
         id="path7192"
         style="fill:#00ff00;fill-opacity:1;stroke:#000000;stroke-width:2.22489744;stroke-linecap:round;stroke-miterlimit:4;stroke-opacity:1;stroke-dasharray:none;stroke-dashoffset:0" />
      <path
         inkscape:connector-curvature="0"
         d="m 167.93025,175.73961 c -0.30303,0.66573 -0.58308,1.33635 -0.97369,1.97497 -0.45591,0.63988 -1.17213,1.15914 -1.82374,1.69802 -0.73351,0.59261 -1.51701,1.15098 -2.17757,1.7862 -0.65364,0.63748 -1.39237,1.22871 -2.10364,1.83412 -0.54667,0.47366 -1.02234,0.98571 -1.54584,1.47161 0,0 0.009,5.2901 0.009,5.2901 l 0,0 c 0.60769,-0.45133 1.01598,-1.00497 1.56387,-1.49166 0.69868,-0.62403 1.44625,-1.21814 2.15579,-1.8349 0.59875,-0.65825 1.34415,-1.22359 2.11519,-1.78225 0.65465,-0.56562 1.37388,-1.09362 1.99906,-1.67408 0.42811,-0.60481 0.82333,-1.23371 1.00445,-1.91646 0,0 -0.22232,-5.35524 -0.22232,-5.35524 z"
         id="path7194"
         style="fill:#00ff00;fill-opacity:1;stroke:#000000;stroke-width:2.22489744;stroke-linecap:round;stroke-miterlimit:4;stroke-opacity:1;stroke-dasharray:none;stroke-dashoffset:0" />
    </g>
    <g
       transform="matrix(0.89891784,0,0,0.89891784,-52.319835,832.19192)"
       id="g7198"
       style="stroke-width:2.22489744;stroke-miterlimit:4;stroke-dasharray:none">
      <path
         style="fill:#00ff00;fill-opacity:1;stroke:#000000;stroke-width:2.22489744;stroke-linecap:round;stroke-miterlimit:4;stroke-opacity:1;stroke-dasharray:none;stroke-dashoffset:0"
         id="path7204"
         d="m 152.61589,166.50662 c -0.2907,0.83759 -0.63924,1.64098 -0.85328,2.50358 -0.16645,0.793 -0.22313,1.59068 -0.22807,2.39888 0.019,0.7695 0.2226,1.50094 0.4164,2.23861 0.18046,0.82358 0.50547,1.59783 0.87922,2.3495 0.065,0.1218 0.12985,0.24345 0.19473,0.36514 0,0 5.94674,-0.42797 5.94674,-0.42797 l 0,0 c -0.0653,-0.11613 -0.12907,-0.23295 -0.19369,-0.34936 -0.36876,-0.70533 -0.70265,-1.43026 -0.86957,-2.21359 -0.16248,-0.69464 -0.38635,-1.37067 -0.39191,-2.09402 -0.004,-0.75624 0.0254,-1.50518 0.18952,-2.24725 0.21887,-0.80354 0.5229,-1.5894 0.92339,-2.31991 0,0 -6.01372,-0.2036 -6.01372,-0.2036 z"
         inkscape:connector-curvature="0" />
      <path
         style="fill:url(#radialGradient7208);fill-opacity:1;stroke:#000000;stroke-width:2.22489744;stroke-linecap:round;stroke-miterlimit:4;stroke-opacity:1;stroke-dasharray:none;stroke-dashoffset:0"
         d="m 154.86021,197.26286 c -7.34539,2.52673 -20.24857,-3.45013 -21.20011,-7.58116 -0.95151,-4.13106 4.7046,-16.49214 12.04997,-19.01886 7.34539,-2.52675 12.02331,2.5233 14.55006,9.86871 2.52675,7.34538 1.94548,14.20457 -5.39992,16.73131 z"
         id="path7200"
         inkscape:connector-curvature="0"
         sodipodi:nodetypes="szsss" />
      <path
         style="fill:#00ff00;fill-opacity:1;stroke:#000000;stroke-width:2.22489744;stroke-linecap:round;stroke-miterlimit:4;stroke-opacity:1;stroke-dasharray:none;stroke-dashoffset:0"
         id="path7202"
         d="m 132.71422,179.50829 c 0.81452,-0.50271 1.73625,-0.66608 2.64033,-0.92487 0.80455,-0.20343 1.60186,-0.3491 2.43176,-0.27663 0.75669,-0.0126 1.49888,0.188 2.22202,0.39107 0.58397,0.22569 1.17371,0.46612 1.79473,0.56482 0.30216,0.0583 0.57853,0.18666 0.87346,0.27024 0,0 -2.24405,5.61366 -2.24405,5.61366 l 0,0 c -0.27296,-0.0834 -0.53574,-0.19426 -0.81675,-0.2486 -0.63161,-0.13523 -1.24081,-0.35187 -1.83648,-0.6003 -0.68695,-0.19205 -1.38327,-0.36231 -2.10225,-0.34715 -0.76267,-0.0244 -1.50515,0.12273 -2.23991,0.32143 -0.87017,0.22175 -1.73451,0.44259 -2.43148,1.05006 0,0 1.70862,-5.81373 1.70862,-5.81373 z"
         inkscape:connector-curvature="0" />
      <path
         style="fill:#00ff00;fill-opacity:1;stroke:#000000;stroke-width:2.22489744;stroke-linecap:round;stroke-miterlimit:4;stroke-opacity:1;stroke-dasharray:none;stroke-dashoffset:0"
         id="path7206"
         d="m 129.54671,176.52021 c 0.77469,-0.006 1.54381,-0.0371 2.3316,0.0521 0.81816,0.15199 1.63676,0.60784 2.44534,0.99288 0.89677,0.4397 1.78298,0.94269 2.68804,1.29324 0.90422,0.34297 1.80198,0.78825 2.70108,1.2009 0.69909,0.31338 1.40331,0.54143 2.10377,0.82709 0,0 5.07607,-2.37206 5.07607,-2.37206 l 0,0 c -0.70492,-0.38196 -1.41894,-0.52673 -2.13109,-0.83548 -0.91137,-0.39222 -1.81586,-0.84473 -2.72511,-1.25061 -0.89958,-0.28091 -1.77548,-0.74423 -2.65642,-1.23512 -0.83561,-0.37599 -1.66394,-0.83081 -2.50065,-1.1719 -0.77205,-0.14096 -1.55255,-0.2396 -2.28913,-0.10854 0,0 -5.04347,2.60573 -5.04347,2.60573 z"
         inkscape:connector-curvature="0" />
    </g>
    <g
       id="g7210"
       transform="matrix(0.89891784,0,0,0.89891784,-27.102281,849.19413)"
       style="stroke-width:2.22489744;stroke-miterlimit:4;stroke-dasharray:none">
      <path
         sodipodi:nodetypes="szsss"
         inkscape:connector-curvature="0"
         id="path7212"
         d="m 143.8677,200.55949 c -6.74954,-1.82395 -13.34966,-12.79048 -11.97389,-16.34946 1.37571,-3.55903 11.82955,-9.91694 18.57914,-8.09294 6.74958,1.82397 7.68725,7.94856 5.86322,14.69817 -1.82396,6.74959 -5.71892,11.56822 -12.46847,9.74423 z"
         style="fill:url(#radialGradient7220);fill-opacity:1;stroke:#000000;stroke-width:2.22489744;stroke-linecap:round;stroke-miterlimit:4;stroke-opacity:1;stroke-dasharray:none;stroke-dashoffset:0" />
      <path
         inkscape:connector-curvature="0"
         d="m 165.38669,188.80908 c -0.66047,0.64745 -1.49432,0.99793 -2.29119,1.4346 -0.71492,0.36312 -1.43526,0.6705 -2.23269,0.77945 -0.71052,0.17328 -1.45273,0.14241 -2.17758,0.10521 -0.59852,-0.0882 -1.20553,-0.18904 -1.81186,-0.14971 -0.29719,0.01 -0.58502,-0.0526 -0.88086,-0.0684 0,0 0.91808,-5.76908 0.91808,-5.76908 l 0,0 c 0.2751,0.0207 0.54637,0.0689 0.82273,0.0602 0.62415,-0.007 1.24446,0.0671 1.85884,0.1742 0.68836,0.0345 1.38092,0.0465 2.0553,-0.12104 0.72405,-0.13935 1.39239,-0.43647 2.04237,-0.78072 0.77284,-0.39456 1.54053,-0.78659 2.0677,-1.50809 0,0 -0.37078,5.8435 -0.37078,5.8435 z"
         id="path7214"
         style="fill:#00ff00;fill-opacity:1;stroke:#000000;stroke-width:2.22489744;stroke-linecap:round;stroke-miterlimit:4;stroke-opacity:1;stroke-dasharray:none;stroke-dashoffset:0" />
      <path
         inkscape:connector-curvature="0"
         d="m 161.24994,201.73802 c -0.0994,-0.85367 -0.13383,-1.70182 -0.31062,-2.54503 -0.18897,-0.76237 -0.47594,-1.48245 -0.81243,-2.18998 -0.34056,-0.66388 -0.82703,-1.21629 -1.30717,-1.77847 -0.50471,-0.64278 -1.11479,-1.1816 -1.75792,-1.68017 -0.10814,-0.0789 -0.21595,-0.15776 -0.3239,-0.23667 0,0 -5.0105,2.88026 -5.0105,2.88026 l 0,0 c 0.10576,0.0739 0.21086,0.14888 0.31633,0.22327 0.61926,0.46021 1.21628,0.95223 1.69221,1.56562 0.43463,0.53783 0.91509,1.03353 1.22484,1.66258 0.32293,0.65812 0.61225,1.32459 0.78201,2.04144 0.14764,0.79365 0.21358,1.60781 0.17194,2.4143 0,0 5.3349,-2.35786 5.3349,-2.35786 z"
         id="path7216"
         style="fill:#00ff00;fill-opacity:1;stroke:#000000;stroke-width:2.22489744;stroke-linecap:round;stroke-miterlimit:4;stroke-opacity:1;stroke-dasharray:none;stroke-dashoffset:0" />
      <path
         inkscape:connector-curvature="0"
         d="m 169.91497,191.3039 c -0.71556,0.18085 -1.42022,0.38395 -2.16964,0.47891 -0.79155,0.0444 -1.6522,-0.19234 -2.48759,-0.3658 -0.92938,-0.2041 -1.86329,-0.46916 -2.78022,-0.58891 -0.91434,-0.11289 -1.8459,-0.32196 -2.77132,-0.50045 -0.71785,-0.13192 -1.42117,-0.18373 -2.13404,-0.28968 0,0 -4.16124,3.34332 -4.16124,3.34332 l 0,0 c 0.73878,0.19407 1.43233,0.16656 2.16123,0.29122 0.93213,0.15683 1.87155,0.37107 2.8048,0.54106 0.89612,0.0565 1.81149,0.2872 2.73778,0.54225 0.85837,0.15899 1.72785,0.39259 2.57931,0.519 0.7464,-0.0442 1.49101,-0.12943 2.14306,-0.41728 0,0 4.07819,-3.55218 4.07819,-3.55218 z"
         id="path7218"
         style="fill:#00ff00;fill-opacity:1;stroke:#000000;stroke-width:2.22489744;stroke-linecap:round;stroke-miterlimit:4;stroke-opacity:1;stroke-dasharray:none;stroke-dashoffset:0" />
    </g>
    <g
       transform="matrix(0.89891784,0,0,0.89891784,-103.84215,852.75685)"
       id="g7222"
       style="stroke-width:2.22489744;stroke-miterlimit:4;stroke-dasharray:none">
      <path
         style="fill:url(#radialGradient7232);fill-opacity:1;stroke:#000000;stroke-width:2.22489744;stroke-linecap:round;stroke-miterlimit:4;stroke-opacity:1;stroke-dasharray:none;stroke-dashoffset:0"
         d="m 155.78764,202.1337 c -7.94687,1.78514 -20.7041,-5.93358 -21.21879,-10.34864 -0.51465,-4.41516 6.80718,-16.64443 14.75404,-18.42958 7.94691,-1.78521 12.23901,4.01797 14.02421,11.96481 1.78519,7.94691 0.38744,15.0282 -7.55946,16.81341 z"
         id="path7224"
         inkscape:connector-curvature="0"
         sodipodi:nodetypes="szsss" />
      <path
         style="fill:#00ff00;fill-opacity:1;stroke:#000000;stroke-width:2.22489744;stroke-linecap:round;stroke-miterlimit:4;stroke-opacity:1;stroke-dasharray:none;stroke-dashoffset:0"
         id="path7226"
         d="m 132.88758,179.61764 c 0.77808,-0.48285 1.65954,-0.64129 2.52386,-0.891 0.76922,-0.1965 1.5317,-0.33773 2.32581,-0.27033 0.72395,-0.0139 1.43446,0.17636 2.12676,0.36894 0.55926,0.21453 1.12399,0.44319 1.71836,0.53621 0.28919,0.055 0.55392,0.17722 0.8363,0.25649 0,0 -2.13381,5.37589 -2.13381,5.37589 l 0,0 c -0.26134,-0.0794 -0.51302,-0.18463 -0.78194,-0.23596 -0.60464,-0.12788 -1.18796,-0.33375 -1.75842,-0.57002 -0.65766,-0.18214 -1.32425,-0.3434 -2.01207,-0.32722 -0.7297,-0.0217 -1.43969,0.12093 -2.14217,0.31274 -0.832,0.21418 -1.6584,0.42751 -2.32379,1.01031 0,0 1.62111,-5.56605 1.62111,-5.56605 z"
         inkscape:connector-curvature="0" />
      <path
         style="fill:#00ff00;fill-opacity:1;stroke:#000000;stroke-width:2.22489744;stroke-linecap:round;stroke-miterlimit:4;stroke-opacity:1;stroke-dasharray:none;stroke-dashoffset:0"
         id="path7228"
         d="m 143.11741,169.90834 c -0.21438,0.83701 -0.4877,1.64548 -0.62563,2.50054 -0.0973,0.78364 -0.0875,1.56287 -0.0262,2.34817 0.0809,0.74575 0.33791,1.43955 0.58593,2.14022 0.24207,0.78516 0.62048,1.51072 1.0444,2.21042 0.0729,0.11298 0.14585,0.22586 0.21871,0.33878 0,0 5.74043,-0.89795 5.74043,-0.89795 l 0,0 c -0.0728,-0.10747 -0.14424,-0.21575 -0.21644,-0.32355 -0.41532,-0.65507 -0.79837,-1.33201 -1.024,-2.07918 -0.21414,-0.66142 -0.4864,-1.29979 -0.55045,-2.00181 -0.0653,-0.73409 -0.0974,-1.46381 0.002,-2.19774 0.14739,-0.79808 0.37889,-1.58597 0.70859,-2.32786 0,0 -5.85668,0.29 -5.85668,0.29 z"
         inkscape:connector-curvature="0" />
      <path
         style="fill:#00ff00;fill-opacity:1;stroke:#000000;stroke-width:2.22489744;stroke-linecap:round;stroke-miterlimit:4;stroke-opacity:1;stroke-dasharray:none;stroke-dashoffset:0"
         id="path7230"
         d="m 130.01486,176.71922 c 0.73146,-0.0196 1.45721,-0.062 2.20272,0.009 0.77527,0.12918 1.55629,0.54529 2.32662,0.89471 0.85455,0.39949 1.70026,0.85895 2.56112,1.17415 0.85986,0.308 1.71546,0.71278 2.57177,1.08665 0.66565,0.28371 1.33469,0.48672 2.00117,0.74421 0,0 4.75192,-2.32904 4.75192,-2.32904 l 0,0 c -0.67236,-0.34836 -1.3492,-0.47255 -2.02711,-0.75162 -0.86752,-0.35438 -1.72958,-0.76585 -2.59535,-1.13321 -0.85444,-0.24953 -1.68971,-0.67167 -2.5302,-1.11978 -0.7957,-0.34043 -1.5859,-0.75543 -2.38202,-1.06285 -0.73154,-0.11957 -1.47033,-0.199 -2.1636,-0.0623 0,0 -4.71704,2.54913 -4.71704,2.54913 z"
         inkscape:connector-curvature="0" />
    </g>
    <g
       id="g7234"
       transform="matrix(0.89891784,0,0,0.89891784,-90.366326,826.65633)"
       style="stroke-width:2.22489744;stroke-miterlimit:4;stroke-dasharray:none">
      <path
         sodipodi:nodetypes="szsss"
         inkscape:connector-curvature="0"
         id="path7236"
         d="m 165.59617,187.07317 c -0.28007,8.31978 -11.19885,18.95082 -15.69832,18.32326 -4.49947,-0.62757 -14.71049,-11.01783 -14.43039,-19.33764 0.28011,-8.31979 7.12493,-11.07116 15.44476,-10.79108 8.31979,0.28011 14.96409,3.48564 14.68395,11.80546 z"
         style="fill:url(#radialGradient7244);fill-opacity:1;stroke:#000000;stroke-width:2.22489744;stroke-linecap:round;stroke-miterlimit:4;stroke-opacity:1;stroke-dasharray:none;stroke-dashoffset:0" />
      <path
         inkscape:connector-curvature="0"
         d="m 133.73238,178.60062 c 0.88174,-0.2374 1.76893,-0.13532 2.66603,-0.12532 0.79096,0.0339 1.55961,0.11784 2.29848,0.4104 0.69528,0.19477 1.319,0.58074 1.92471,0.96361 0.47234,0.36561 0.94583,0.74627 1.48665,1.00594 0.26033,0.1356 0.47796,0.32844 0.7248,0.48529 0,0 -3.58272,4.51982 -3.58272,4.51982 l 0,0 c -0.22673,-0.15091 -0.43677,-0.32375 -0.67882,-0.45007 -0.54057,-0.2959 -1.03837,-0.66016 -1.51517,-1.04971 -0.57561,-0.36298 -1.16575,-0.70855 -1.82718,-0.89081 -0.69049,-0.2305 -1.40943,-0.29843 -2.13535,-0.3171 -0.85599,-0.0348 -1.70638,-0.0685 -2.50928,0.29675 0,0 3.14785,-4.84877 3.14785,-4.84877 z"
         id="path7238"
         style="fill:#00ff00;fill-opacity:1;stroke:#000000;stroke-width:2.22489744;stroke-linecap:round;stroke-miterlimit:4;stroke-opacity:1;stroke-dasharray:none;stroke-dashoffset:0" />
      <path
         inkscape:connector-curvature="0"
         d="m 142.97964,169.86351 c -0.20557,0.85755 -0.47166,1.68688 -0.5989,2.56167 -0.0867,0.80118 -0.0646,1.59625 0.01,2.39667 0.0943,0.75975 0.36758,1.46368 0.63179,2.17481 0.25942,0.79743 0.65704,1.53183 1.10071,2.23915 0.0764,0.11416 0.15245,0.22819 0.2286,0.3423 0,0 5.84379,-1.0071 5.84379,-1.0071 l 0,0 c -0.076,-0.10852 -0.15059,-0.21793 -0.22599,-0.32676 -0.43419,-0.66194 -0.83576,-1.34669 -1.07784,-2.10559 -0.22898,-0.67161 -0.51692,-1.31873 -0.59338,-2.03412 -0.0784,-0.74811 -0.1225,-1.49226 -0.0328,-2.24281 0.13781,-0.81677 0.36158,-1.62443 0.68631,-2.38675 0,0 -5.97208,0.38855 -5.97208,0.38855 z"
         id="path7240"
         style="fill:#00ff00;fill-opacity:1;stroke:#000000;stroke-width:2.22489744;stroke-linecap:round;stroke-miterlimit:4;stroke-opacity:1;stroke-dasharray:none;stroke-dashoffset:0" />
      <path
         inkscape:connector-curvature="0"
         d="m 130.40426,175.42674 c 0.70934,0.0984 1.41677,0.17391 2.12505,0.36256 0.72775,0.24901 1.41504,0.77601 2.10272,1.23686 0.76095,0.52275 1.50374,1.10194 2.28432,1.54426 0.78074,0.43524 1.54187,0.96321 2.30864,1.46152 0.59715,0.38061 1.2105,0.68388 1.81265,1.03935 0,0 4.96117,-1.48656 4.96117,-1.48656 l 0,0 c -0.59328,-0.44409 -1.22679,-0.67255 -1.83654,-1.05068 -0.78071,-0.48124 -1.547,-1.01674 -2.32392,-1.5102 -0.78491,-0.37795 -1.52361,-0.91944 -2.26319,-1.48682 -0.7136,-0.45628 -1.40997,-0.98365 -2.12927,-1.40808 -0.6871,-0.23274 -1.38758,-0.42791 -2.07884,-0.407 0,0 -4.96277,1.70461 -4.96277,1.70461 z"
         id="path7242"
         style="fill:#00ff00;fill-opacity:1;stroke:#000000;stroke-width:2.22489744;stroke-linecap:round;stroke-miterlimit:4;stroke-opacity:1;stroke-dasharray:none;stroke-dashoffset:0" />
    </g>
    <g
       transform="matrix(0.89891784,0,0,0.89891784,-77.713519,851.17113)"
       id="g7246"
       style="stroke-width:2.22489744;stroke-miterlimit:4;stroke-dasharray:none">
      <path
         style="fill:url(#radialGradient7256);fill-opacity:1;stroke:#000000;stroke-width:2.22489744;stroke-linecap:round;stroke-miterlimit:4;stroke-opacity:1;stroke-dasharray:none;stroke-dashoffset:0"
         d="m 163.83296,188.9959 c -1.25142,7.1954 -12.02715,15.11011 -15.86083,14.01963 -3.83372,-1.09044 -11.44749,-11.35606 -10.19605,-18.55149 1.25144,-7.19538 7.53248,-8.75682 14.7279,-7.5054 7.19541,1.25142 12.58046,4.84184 11.32898,12.03726 z"
         id="path7248"
         inkscape:connector-curvature="0"
         sodipodi:nodetypes="szsss" />
      <path
         style="fill:#00ff00;fill-opacity:1;stroke:#000000;stroke-width:2.22489744;stroke-linecap:round;stroke-miterlimit:4;stroke-opacity:1;stroke-dasharray:none;stroke-dashoffset:0"
         id="path7250"
         d="m 135.58317,177.36664 c 0.95684,0.20076 1.75438,0.72821 2.60597,1.17264 0.73892,0.41531 1.43184,0.86837 1.9955,1.50585 0.56942,0.52293 0.97776,1.19375 1.37045,1.85287 0.27375,0.57796 0.54129,1.1709 0.93173,1.68096 0.18278,0.25566 0.29714,0.54518 0.45678,0.81461 0,0 -5.61119,2.57855 -5.61119,2.57855 l 0,0 c -0.14323,-0.25405 -0.26009,-0.5208 -0.42993,-0.75869 -0.37269,-0.54452 -0.6714,-1.13355 -0.93776,-1.73658 -0.37364,-0.62551 -0.76953,-1.24147 -1.31262,-1.73607 -0.54755,-0.55473 -1.20102,-0.96799 -1.88492,-1.33774 -0.80048,-0.44795 -1.59599,-0.89241 -2.53952,-0.93292 0,0 5.35548,-3.10344 5.35548,-3.10344 z"
         inkscape:connector-curvature="0" />
      <path
         style="fill:#00ff00;fill-opacity:1;stroke:#000000;stroke-width:2.22489744;stroke-linecap:round;stroke-miterlimit:4;stroke-opacity:1;stroke-dasharray:none;stroke-dashoffset:0"
         id="path7252"
         d="m 143.15901,169.7575 c -0.23629,0.84778 -0.53194,1.6651 -0.69073,2.53284 -0.11588,0.79581 -0.12261,1.58951 -0.0771,2.39044 0.0663,0.76108 0.31318,1.47312 0.5507,2.1919 0.22966,0.80468 0.59943,1.55158 1.01605,2.27317 0.0717,0.11663 0.14367,0.23311 0.21543,0.34967 0,0 5.8645,-0.79115 5.8645,-0.79115 l 0,0 c -0.0717,-0.11103 -0.14222,-0.22283 -0.21343,-0.33411 -0.40885,-0.67596 -0.78436,-1.37348 -0.9981,-2.13916 -0.20387,-0.67805 -0.46738,-1.33396 -0.51751,-2.05016 -0.0508,-0.74889 -0.0678,-1.49263 0.0482,-2.23786 0.16721,-0.8095 0.41984,-1.60678 0.7715,-2.35515 0,0 -5.96984,0.16959 -5.96984,0.16959 z"
         inkscape:connector-curvature="0" />
      <path
         style="fill:#00ff00;fill-opacity:1;stroke:#000000;stroke-width:2.22489744;stroke-linecap:round;stroke-miterlimit:4;stroke-opacity:1;stroke-dasharray:none;stroke-dashoffset:0"
         id="path7254"
         d="m 132.0096,170.41975 c 0.61838,0.55922 1.25001,1.09508 1.80952,1.73917 0.53749,0.71633 0.85396,1.67369 1.21411,2.56765 0.39016,1.00152 0.72591,2.04548 1.18756,2.98248 0.46651,0.93026 0.85342,1.93696 1.26518,2.91872 0.32554,0.75742 0.71737,1.45107 1.06421,2.18757 0,0 5.74911,1.81803 5.74911,1.81803 l 0,0 c -0.28021,-0.81601 -0.74045,-1.45079 -1.07974,-2.21411 -0.43638,-0.97452 -0.8233,-1.99182 -1.24799,-2.97561 -0.50807,-0.87782 -0.86453,-1.88281 -1.20487,-2.91337 -0.38814,-0.90648 -0.71306,-1.87015 -1.12749,-2.74982 -0.50897,-0.67398 -1.05549,-1.32059 -1.73449,-1.75324 0,0 -5.89347,-1.60917 -5.89347,-1.60917 z"
         inkscape:connector-curvature="0" />
    </g>
    <g
       id="g7258"
       transform="matrix(0.89891784,0,0,0.89891784,-55.861373,853.93894)"
       style="stroke-width:2.22489744;stroke-miterlimit:4;stroke-dasharray:none">
      <path
         sodipodi:nodetypes="szsss"
         inkscape:connector-curvature="0"
         id="path7260"
         d="m 161.89339,182.60452 c 2.24679,6.94923 -3.59747,18.97436 -7.4975,19.79657 -3.90006,0.82224 -15.42115,-4.71099 -17.66794,-11.66024 -2.24678,-6.94923 2.58236,-11.2584 9.53161,-13.5052 6.94924,-2.24679 13.38707,-1.58038 15.63383,5.36887 z"
         style="fill:url(#radialGradient7268);fill-opacity:1;stroke:#000000;stroke-width:2.22489744;stroke-linecap:round;stroke-miterlimit:4;stroke-opacity:1;stroke-dasharray:none;stroke-dashoffset:0" />
      <path
         inkscape:connector-curvature="0"
         d="m 133.19826,179.09599 c 0.84076,-0.3767 1.74097,-0.41601 2.63635,-0.54864 0.79341,-0.0923 1.57265,-0.13052 2.35535,0.0431 0.72367,0.0838 1.40648,0.36892 2.07082,0.65416 0.52871,0.28917 1.06102,0.59317 1.64109,0.76594 0.28095,0.0937 0.52843,0.25127 0.79931,0.36832 0,0 -2.85121,5.07279 -2.85121,5.07279 l 0,0 c -0.24989,-0.11431 -0.48664,-0.25315 -0.74787,-0.34054 -0.58563,-0.20891 -1.13952,-0.49269 -1.67649,-0.80506 -0.63118,-0.27015 -1.27412,-0.52066 -1.96209,-0.5971 -0.72464,-0.11979 -1.45171,-0.0736 -2.17795,0.0235 -0.85837,0.10154 -1.71105,0.203 -2.45293,0.69451 0,0 2.36563,-5.33138 2.36563,-5.33138 z"
         id="path7262"
         style="fill:#00ff00;fill-opacity:1;stroke:#000000;stroke-width:2.22489744;stroke-linecap:round;stroke-miterlimit:4;stroke-opacity:1;stroke-dasharray:none;stroke-dashoffset:0" />
      <path
         inkscape:connector-curvature="0"
         d="m 143.0421,169.99881 c -0.1962,0.83652 -0.45153,1.64583 -0.57133,2.49872 -0.0808,0.78107 -0.0553,1.5556 0.021,2.3351 0.0957,0.73982 0.3651,1.42441 0.62593,2.11598 0.25657,0.77571 0.64749,1.48937 1.08315,2.17642 0.0748,0.11086 0.14958,0.22161 0.22432,0.33241 0,0 5.68896,-1.0091 5.68896,-1.0091 l 0,0 c -0.0744,-0.10541 -0.14775,-0.21161 -0.22172,-0.31731 -0.42619,-0.64288 -0.82075,-1.30812 -1.06023,-2.0464 -0.2263,-0.65323 -0.50994,-1.28238 -0.58786,-1.97904 -0.0799,-0.72852 -0.12647,-1.45337 -0.0428,-2.18505 0.13036,-0.79647 0.34455,-1.58447 0.6573,-2.32876 0,0 -5.81688,0.40705 -5.81688,0.40705 z"
         id="path7264"
         style="fill:#00ff00;fill-opacity:1;stroke:#000000;stroke-width:2.22489744;stroke-linecap:round;stroke-miterlimit:4;stroke-opacity:1;stroke-dasharray:none;stroke-dashoffset:0" />
      <path
         inkscape:connector-curvature="0"
         d="m 130.11274,175.69602 c 0.73256,0.0718 1.46223,0.12008 2.19744,0.28416 0.75767,0.22578 1.48525,0.73873 2.21043,1.1837 0.80305,0.50548 1.58977,1.06973 2.40963,1.49193 0.81974,0.41483 1.62316,0.92575 2.43112,1.40593 0.62896,0.3663 1.27137,0.65255 1.90441,0.9928 0,0 5.03395,-1.73096 5.03395,-1.73096 l 0,0 c -0.62754,-0.43167 -1.28762,-0.64022 -1.92932,-1.00343 -0.82166,-0.46211 -1.63068,-0.98053 -2.44891,-1.45533 -0.82166,-0.35583 -1.60263,-0.88153 -2.38553,-1.43379 -0.75166,-0.43922 -1.48852,-0.95218 -2.24471,-1.35848 -0.71525,-0.21071 -1.44271,-0.38231 -2.15176,-0.33251 0,0 -5.02662,1.95498 -5.02662,1.95498 z"
         id="path7266"
         style="fill:#00ff00;fill-opacity:1;stroke:#000000;stroke-width:2.22489744;stroke-linecap:round;stroke-miterlimit:4;stroke-opacity:1;stroke-dasharray:none;stroke-dashoffset:0" />
    </g>
    <g
       transform="matrix(0.89891784,0,0,0.89891784,-106.86801,831.79653)"
       id="g7270"
       style="stroke-width:2.22489744;stroke-miterlimit:4;stroke-dasharray:none">
      <path
         style="fill:url(#radialGradient7280);fill-opacity:1;stroke:#000000;stroke-width:2.22489744;stroke-linecap:round;stroke-miterlimit:4;stroke-opacity:1;stroke-dasharray:none;stroke-dashoffset:0"
         d="m 163.3386,186.23612 c 0.26008,7.29878 -8.65081,17.26649 -12.62699,16.99046 -3.97622,-0.276 -13.54421,-8.74984 -13.80429,-16.04865 -0.26006,-7.29877 5.56367,-10.12254 12.86248,-10.38263 7.29878,-0.26008 13.30875,2.14202 13.5688,9.44082 z"
         id="path7272"
         inkscape:connector-curvature="0"
         sodipodi:nodetypes="szsss" />
      <path
         style="fill:#00ff00;fill-opacity:1;stroke:#000000;stroke-width:2.22489744;stroke-linecap:round;stroke-miterlimit:4;stroke-opacity:1;stroke-dasharray:none;stroke-dashoffset:0"
         id="path7274"
         d="m 132.87414,179.61018 c 0.78073,-0.48448 1.66518,-0.64346 2.53244,-0.89402 0.77183,-0.19717 1.5369,-0.33887 2.3337,-0.27125 0.72641,-0.0139 1.43934,0.17696 2.13399,0.3702 0.56116,0.21526 1.1278,0.4447 1.72419,0.53802 0.29019,0.0552 0.55581,0.17783 0.83914,0.25737 0,0 -2.14104,5.39415 -2.14104,5.39415 l 0,0 c -0.26223,-0.0796 -0.51477,-0.18526 -0.7846,-0.23677 -0.6067,-0.1283 -1.19199,-0.33487 -1.7644,-0.57195 -0.65989,-0.18275 -1.32875,-0.34457 -2.01891,-0.32833 -0.73217,-0.0217 -1.44457,0.12134 -2.14943,0.3138 -0.83482,0.21491 -1.66404,0.42896 -2.33168,1.01373 0,0 1.6266,-5.58495 1.6266,-5.58495 z"
         inkscape:connector-curvature="0" />
      <path
         style="fill:#00ff00;fill-opacity:1;stroke:#000000;stroke-width:2.22489744;stroke-linecap:round;stroke-miterlimit:4;stroke-opacity:1;stroke-dasharray:none;stroke-dashoffset:0"
         id="path7276"
         d="m 143.23339,170.0562 c -0.20901,0.8085 -0.47491,1.58928 -0.6101,2.41539 -0.0958,0.75713 -0.088,1.51029 -0.0311,2.2694 0.0766,0.72093 0.32342,1.39204 0.56163,2.06975 0.23224,0.75938 0.5964,1.46141 1.00459,2.13859 0.0704,0.10936 0.14045,0.21862 0.21065,0.32794 0,0 5.54999,-0.85539 5.54999,-0.85539 l 0,0 c -0.0701,-0.10406 -0.13896,-0.20885 -0.20851,-0.31318 -0.39996,-0.63404 -0.76871,-1.28913 -0.98517,-2.01175 -0.20551,-0.63971 -0.46726,-1.25726 -0.52763,-1.93589 -0.0616,-0.70962 -0.091,-1.41496 0.007,-2.1241 0.1442,-0.771 0.36965,-1.53197 0.6899,-2.24829 0,0 -5.66101,0.26755 -5.66101,0.26755 z"
         inkscape:connector-curvature="0" />
      <path
         style="fill:#00ff00;fill-opacity:1;stroke:#000000;stroke-width:2.22489744;stroke-linecap:round;stroke-miterlimit:4;stroke-opacity:1;stroke-dasharray:none;stroke-dashoffset:0"
         id="path7278"
         d="m 130.01784,176.71944 c 0.73119,-0.0196 1.45667,-0.062 2.20191,0.009 0.775,0.12913 1.55575,0.5451 2.32578,0.8944 0.85425,0.39935 1.69965,0.85863 2.56019,1.17371 0.85955,0.30789 1.71485,0.71253 2.57083,1.08627 0.66542,0.28359 1.33421,0.48654 2.00046,0.74394 0,0 4.75019,-2.3282 4.75019,-2.3282 l 0,0 c -0.67211,-0.34822 -1.34872,-0.47237 -2.02636,-0.75134 -0.86722,-0.35426 -1.72898,-0.76559 -2.59441,-1.1328 -0.85415,-0.24945 -1.68911,-0.67142 -2.52929,-1.11938 -0.79541,-0.34031 -1.58534,-0.75515 -2.38116,-1.06246 -0.73127,-0.11953 -1.46979,-0.19893 -2.16282,-0.0623 0,0 -4.71532,2.54819 -4.71532,2.54819 z"
         inkscape:connector-curvature="0" />
    </g>
    <g
       transform="matrix(0.89891784,0,0,0.89891784,-39.845061,785.5347)"
       id="g7282"
       style="stroke-width:2.22489744;stroke-miterlimit:4;stroke-dasharray:none">
      <path
         style="fill:url(#radialGradient7292);fill-opacity:1;stroke:#000000;stroke-width:2.22489744;stroke-linecap:round;stroke-miterlimit:4;stroke-opacity:1;stroke-dasharray:none;stroke-dashoffset:0"
         d="m 163.97494,195.66678 c -4.97513,6.44882 -19.72141,8.65639 -22.93708,5.58763 -3.21568,-3.06882 -5.39149,-17.15535 -0.41634,-23.60418 4.97512,-6.44891 11.98405,-4.72438 18.43292,0.25074 6.44889,4.97514 9.89564,11.31692 4.9205,17.76581 z"
         id="path7284"
         inkscape:connector-curvature="0"
         sodipodi:nodetypes="szsss" />
      <path
         style="fill:#00ff00;fill-opacity:1;stroke:#000000;stroke-width:2.22489744;stroke-linecap:round;stroke-miterlimit:4;stroke-opacity:1;stroke-dasharray:none;stroke-dashoffset:0"
         id="path7286"
         d="m 153.14524,169.0969 c 0.75787,0.51398 1.26157,1.2545 1.84164,1.9422 0.49274,0.6225 0.93226,1.26137 1.19411,2.01408 0.30754,0.65553 0.42314,1.38194 0.5292,2.09265 0.0318,0.59815 0.053,1.20705 0.21011,1.78778 0.0675,0.28652 0.0637,0.57807 0.10634,0.86826 0,0 -5.77888,0.24058 -5.77888,0.24058 l 0,0 c -0.0339,-0.27102 -0.0403,-0.54374 -0.10296,-0.81025 -0.12945,-0.60431 -0.17899,-1.2209 -0.19553,-1.83813 -0.1015,-0.67483 -0.2257,-1.34931 -0.5206,-1.97091 -0.27736,-0.67528 -0.69678,-1.26563 -1.15806,-1.8291 -0.53446,-0.67264 -1.06586,-1.34052 -1.86912,-1.71087 0,0 5.74375,-0.78629 5.74375,-0.78629 z"
         inkscape:connector-curvature="0"
         inkscape:transform-center-x="16.984681"
         inkscape:transform-center-y="8.6896915" />
      <path
         style="fill:#00ff00;fill-opacity:1;stroke:#000000;stroke-width:2.22489744;stroke-linecap:round;stroke-miterlimit:4;stroke-opacity:1;stroke-dasharray:none;stroke-dashoffset:0"
         id="path7288"
         d="m 166.01827,174.45542 c -0.83885,0.16685 -1.67742,0.2689 -2.49967,0.51173 -0.74107,0.24856 -1.43245,0.5907 -2.10734,0.9811 -0.63101,0.39139 -1.14031,0.9177 -1.65955,1.43895 -0.59723,0.55208 -1.08288,1.20036 -1.52598,1.87819 -0.0696,0.1135 -0.13919,0.22684 -0.20881,0.34021 0,0 3.25822,4.73948 3.25822,4.73948 l 0,0 c 0.0648,-0.11091 0.13086,-0.22109 0.19617,-0.33168 0.40696,-0.65105 0.84725,-1.28265 1.41759,-1.80381 0.49872,-0.47422 0.95199,-0.99043 1.55118,-1.34804 0.62728,-0.37246 1.26489,-0.71339 1.96245,-0.93893 0.77544,-0.21 1.57775,-0.34056 2.38105,-0.36379 0,0 -2.76533,-5.10341 -2.76533,-5.10341 z"
         inkscape:connector-curvature="0"
         inkscape:transform-center-x="5.7984965"
         inkscape:transform-center-y="14.520266" />
      <path
         style="fill:#00ff00;fill-opacity:1;stroke:#000000;stroke-width:2.22489744;stroke-linecap:round;stroke-miterlimit:4;stroke-opacity:1;stroke-dasharray:none;stroke-dashoffset:0"
         id="path7290"
         d="m 154.62342,165.29555 c 0.31569,0.65982 0.64989,1.30516 0.88855,2.01471 0.1977,0.7604 0.13576,1.64288 0.13036,2.48843 -0.0168,0.94284 -0.092,1.902 -0.0293,2.81629 0.0689,0.91043 0.0476,1.85638 0.0549,2.79038 0.012,0.72323 0.099,1.4167 0.13527,2.13002 0,0 4.06099,3.39023 4.06099,3.39023 l 0,0 c 0.0443,-0.75566 -0.11787,-1.42418 -0.13907,-2.15671 -0.0296,-0.93632 -0.005,-1.89089 -0.022,-2.83087 -0.12004,-0.88169 -0.0747,-1.81613 -0.008,-2.76593 -0.0131,-0.86505 0.044,-1.75546 5.9e-4,-2.60744 -0.18866,-0.71658 -0.41692,-1.42341 -0.82395,-2.00072 0,0 -4.24771,-3.26879 -4.24771,-3.26879 z"
         inkscape:connector-curvature="0"
         inkscape:transform-center-x="11.951127"
         inkscape:transform-center-y="8.2303965" />
    </g>
    <g
       id="g7294"
       transform="matrix(0.89891784,0,0,0.89891784,-71.012337,833.37813)"
       style="stroke-width:2.22489744;stroke-miterlimit:4;stroke-dasharray:none">
      <path
         sodipodi:nodetypes="szsss"
         inkscape:connector-curvature="0"
         id="path7296"
         d="m 166.84693,185.95838 c 0.26959,9.07942 -10.88646,21.41037 -15.82959,21.03774 -4.94315,-0.37265 -16.78023,-10.98219 -17.04981,-20.06155 -0.26954,-9.07941 6.99426,-12.5483 16.07367,-12.81785 9.07938,-0.26956 16.53619,2.7623 16.80573,11.84166 z"
         style="fill:url(#radialGradient7304);fill-opacity:1;stroke:#000000;stroke-width:2.22489744;stroke-linecap:round;stroke-miterlimit:4;stroke-opacity:1;stroke-dasharray:none;stroke-dashoffset:0" />
      <path
         inkscape:connector-curvature="0"
         d="m 132.86191,179.38547 c 0.82166,-0.46448 1.73612,-0.59051 2.63676,-0.81125 0.80047,-0.16995 1.59168,-0.28327 2.40665,-0.1804 0.74618,0.0161 1.46989,0.24208 2.17474,0.46959 0.56692,0.24452 1.13887,0.50379 1.74705,0.62465 0.29552,0.0689 0.56303,0.20585 0.85048,0.29939 0,0 -2.42409,5.44649 -2.42409,5.44649 l 0,0 c -0.26577,-0.093 -0.52056,-0.21177 -0.79534,-0.27595 -0.6173,-0.15719 -1.20935,-0.3938 -1.7869,-0.66114 -0.66961,-0.21531 -1.34933,-0.40949 -2.05835,-0.42181 -0.7506,-0.053 -1.4878,0.0639 -2.21933,0.23182 -0.86588,0.18551 -1.72594,0.3704 -2.43577,0.94255 0,0 1.9041,-5.66394 1.9041,-5.66394 z"
         id="path7298"
         style="fill:#00ff00;fill-opacity:1;stroke:#000000;stroke-width:2.22489744;stroke-linecap:round;stroke-miterlimit:4;stroke-opacity:1;stroke-dasharray:none;stroke-dashoffset:0" />
      <path
         inkscape:connector-curvature="0"
         d="m 143.0637,169.91412 c -0.20825,0.84264 -0.47591,1.6571 -0.60717,2.51721 -0.0909,0.78803 -0.0746,1.57071 -0.007,2.35904 0.0876,0.74843 0.3517,1.4432 0.60685,2.14493 0.24984,0.78666 0.63618,1.51228 1.068,2.21153 0.0741,0.11285 0.14842,0.22563 0.22258,0.33845 0,0 5.75876,-0.95096 5.75876,-0.95096 l 0,0 c -0.0739,-0.10735 -0.14672,-0.21552 -0.22019,-0.32319 -0.42278,-0.65447 -0.81331,-1.33123 -1.04634,-2.07987 -0.22076,-0.66257 -0.4997,-1.30152 -0.57002,-2.00615 -0.0718,-0.73687 -0.11031,-1.46962 -0.0168,-2.20776 0.14125,-0.80295 0.36709,-1.59638 0.69195,-2.34444 0,0 -5.88072,0.34123 -5.88072,0.34123 z"
         id="path7300"
         style="fill:#00ff00;fill-opacity:1;stroke:#000000;stroke-width:2.22489744;stroke-linecap:round;stroke-miterlimit:4;stroke-opacity:1;stroke-dasharray:none;stroke-dashoffset:0" />
      <path
         inkscape:connector-curvature="0"
         d="m 129.02238,175.93989 c 0.82644,0.04 1.64841,0.0538 2.48308,0.19614 0.86324,0.21153 1.70855,0.74711 2.54747,1.20657 0.92965,0.52308 1.84419,1.113 2.78815,1.54158 0.9434,0.42036 1.87376,0.94947 2.80755,1.44382 0.72649,0.37645 1.46365,0.6622 2.19329,1.00919 0,0 5.55611,-2.22246 5.55611,-2.22246 l 0,0 c -0.72857,-0.44993 -1.48119,-0.64747 -2.22189,-1.01976 -0.9481,-0.4733 -1.88521,-1.01052 -2.8302,-1.4983 -0.94227,-0.35399 -1.84825,-0.90094 -2.75789,-1.47766 -0.86829,-0.45147 -1.72408,-0.98655 -2.59564,-1.40086 -0.81473,-0.19697 -1.64102,-0.34929 -2.43437,-0.25411 0,0 -5.53549,2.47358 -5.53549,2.47358 z"
         id="path7302"
         style="fill:#00ff00;fill-opacity:1;stroke:#000000;stroke-width:2.22489744;stroke-linecap:round;stroke-miterlimit:4;stroke-opacity:1;stroke-dasharray:none;stroke-dashoffset:0" />
    </g>
    <g
       transform="matrix(0.89891784,0,0,0.89891784,-91.968552,838.91373)"
       id="g7306"
       style="stroke-width:2.22489744;stroke-miterlimit:4;stroke-dasharray:none">
      <path
         style="fill:url(#radialGradient7316);fill-opacity:1;stroke:#000000;stroke-width:2.22489744;stroke-linecap:round;stroke-miterlimit:4;stroke-opacity:1;stroke-dasharray:none;stroke-dashoffset:0"
         d="m 164.50463,193.8117 c -3.94977,6.92151 -17.94136,11.05329 -21.47215,8.51398 -3.53084,-2.53931 -7.54268,-15.89586 -3.59291,-22.81738 3.94977,-6.92153 10.97476,-6.19747 17.8963,-2.24772 6.92152,3.94978 11.11855,9.6296 7.16876,16.55112 z"
         id="path7308"
         inkscape:connector-curvature="0"
         sodipodi:nodetypes="szsss" />
      <path
         style="fill:#00ff00;fill-opacity:1;stroke:#000000;stroke-width:2.22489744;stroke-linecap:round;stroke-miterlimit:4;stroke-opacity:1;stroke-dasharray:none;stroke-dashoffset:0"
         id="path7310"
         d="m 133.70834,178.45308 c 0.9113,-0.22734 1.82175,-0.10544 2.74411,-0.078 0.81281,0.0494 1.60167,0.15082 2.35593,0.4659 0.71128,0.21365 1.3454,0.62236 1.96099,1.02764 0.47878,0.38498 0.95848,0.7855 1.50968,1.06282 0.26514,0.14442 0.48527,0.34688 0.73614,0.51292 0,0 -3.7706,4.57987 -3.7706,4.57987 l 0,0 c -0.23026,-0.15958 -0.44302,-0.34127 -0.68951,-0.47578 -0.55029,-0.31462 -1.05529,-0.6987 -1.5382,-1.10842 -0.58503,-0.38424 -1.18534,-0.75088 -1.86206,-0.95092 -0.70569,-0.25029 -1.44377,-0.33367 -2.18994,-0.36685 -0.87964,-0.052 -1.75356,-0.10292 -2.58618,0.25734 0,0 3.32963,-4.92646 3.32963,-4.92646 z"
         inkscape:connector-curvature="0" />
      <path
         style="fill:#00ff00;fill-opacity:1;stroke:#000000;stroke-width:2.22489744;stroke-linecap:round;stroke-miterlimit:4;stroke-opacity:1;stroke-dasharray:none;stroke-dashoffset:0"
         id="path7312"
         d="m 143.68329,169.32399 c -0.34278,0.83228 -0.7422,1.62655 -1.00874,2.48856 -0.21425,0.79425 -0.31745,1.5995 -0.36874,2.41843 -0.0246,0.78107 0.13937,1.53412 0.29345,2.29293 0.13561,0.84512 0.42056,1.64857 0.75621,2.43194 0.0588,0.12716 0.11761,0.2542 0.17636,0.38129 0,0 6.05213,-0.0922 6.05213,-0.0922 l 0,0 c -0.0595,-0.12147 -0.11745,-0.24354 -0.17624,-0.36525 -0.33327,-0.73607 -0.63005,-1.49005 -0.75425,-2.29361 -0.12481,-0.71344 -0.31288,-1.41148 -0.27695,-2.14497 0.039,-0.76677 0.11218,-1.52418 0.32137,-2.26686 0.26802,-0.80188 0.62128,-1.58098 1.06919,-2.29838 0,0 -6.08374,-0.55165 -6.08374,-0.55165 z"
         inkscape:connector-curvature="0" />
      <path
         style="fill:#00ff00;fill-opacity:1;stroke:#000000;stroke-width:2.22489744;stroke-linecap:round;stroke-miterlimit:4;stroke-opacity:1;stroke-dasharray:none;stroke-dashoffset:0"
         id="path7314"
         d="m 130.75344,173.70759 c 0.69528,0.25373 1.39325,0.48508 2.06788,0.82944 0.68088,0.41045 1.26018,1.09286 1.85429,1.70853 0.65466,0.69417 1.27863,1.44139 1.97064,2.05867 0.69372,0.61012 1.34739,1.30963 2.01322,1.98037 0.52019,0.51487 1.07361,0.95513 1.60436,1.44569 0,0 5.33639,-0.41888 5.33639,-0.41888 l 0,0 c -0.50235,-0.57815 -1.09252,-0.94722 -1.62597,-1.46231 -0.68364,-0.6566 -1.34089,-1.36482 -2.01806,-2.03292 -0.71045,-0.55313 -1.33851,-1.2614 -1.96181,-1.99605 -0.6213,-0.61668 -1.20971,-1.30143 -1.84369,-1.88723 -0.64332,-0.38511 -1.30841,-0.73516 -2.01128,-0.86497 0,0 -5.38564,0.63881 -5.38564,0.63881 z"
         inkscape:connector-curvature="0" />
    </g>
    <g
       id="g7318"
       transform="matrix(0.89891784,0,0,0.89891784,-84.851347,809.06102)"
       style="stroke-width:2.22489744;stroke-miterlimit:4;stroke-dasharray:none">
      <path
         sodipodi:nodetypes="szsss"
         inkscape:connector-curvature="0"
         id="path7320"
         d="m 158.32283,179.36963 c 4.09682,5.28887 2.80072,17.46721 -0.30392,19.38841 -3.10464,1.92121 -14.752,0.73637 -18.84882,-4.55251 -4.09683,-5.28888 -1.27598,-10.5034 4.01291,-14.60024 5.28887,-4.09682 11.04301,-5.52456 15.13983,-0.23566 z"
         style="fill:url(#radialGradient7328);fill-opacity:1;stroke:#000000;stroke-width:2.22489744;stroke-linecap:round;stroke-miterlimit:4;stroke-opacity:1;stroke-dasharray:none;stroke-dashoffset:0" />
      <path
         inkscape:connector-curvature="0"
         d="m 133.19466,179.62644 c 0.74619,-0.42921 1.57932,-0.55044 2.39922,-0.75795 0.72885,-0.16047 1.44967,-0.26926 2.19363,-0.18102 0.68061,0.01 1.34217,0.21071 1.98657,0.41334 0.51871,0.21912 1.04212,0.45164 1.59763,0.5577 0.26999,0.0604 0.51485,0.18389 0.77765,0.26721 0,0 -2.17339,4.98387 -2.17339,4.98387 l 0,0 c -0.24305,-0.0827 -0.47622,-0.18959 -0.72725,-0.24624 -0.56409,-0.13914 -1.10566,-0.35083 -1.63422,-0.59068 -0.61219,-0.19176 -1.23338,-0.3642 -1.88014,-0.37056 -0.68489,-0.0431 -1.35641,0.0684 -2.02242,0.22661 -0.7884,0.17513 -1.57152,0.34961 -2.21494,0.8763 0,0 1.69766,-5.17858 1.69766,-5.17858 z"
         id="path7322"
         style="fill:#00ff00;fill-opacity:1;stroke:#000000;stroke-width:2.22489744;stroke-linecap:round;stroke-miterlimit:4;stroke-opacity:1;stroke-dasharray:none;stroke-dashoffset:0" />
      <path
         inkscape:connector-curvature="0"
         d="m 143.22026,169.83385 c -0.23357,0.83271 -0.52547,1.63554 -0.68293,2.48807 -0.11508,0.78197 -0.12349,1.56197 -0.0802,2.34921 0.064,0.74813 0.30537,1.44828 0.53766,2.15505 0.22437,0.79124 0.58657,1.52591 0.99485,2.23574 0.0704,0.11471 0.14082,0.22936 0.21116,0.34401 0,0 5.76494,-0.76803 5.76494,-0.76803 l 0,0 c -0.0702,-0.10921 -0.13946,-0.21918 -0.20927,-0.32868 -0.4007,-0.665 -0.76862,-1.35112 -0.97741,-2.10396 -0.19927,-0.66677 -0.45719,-1.31175 -0.50531,-2.01575 -0.0486,-0.73608 -0.0642,-1.46704 0.0514,-2.19927 0.16567,-0.79528 0.41524,-1.57847 0.76205,-2.31339 0,0 -5.86742,0.15701 -5.86742,0.15701 z"
         id="path7324"
         style="fill:#00ff00;fill-opacity:1;stroke:#000000;stroke-width:2.22489744;stroke-linecap:round;stroke-miterlimit:4;stroke-opacity:1;stroke-dasharray:none;stroke-dashoffset:0" />
      <path
         inkscape:connector-curvature="0"
         d="m 130.64415,175.01324 c 0.69207,0.13764 1.38374,0.25202 2.06977,0.47765 0.70168,0.28652 1.3477,0.84416 1.99787,1.33676 0.7187,0.55765 1.41631,1.16977 2.15894,1.64946 0.74316,0.47274 1.46174,1.03558 2.18754,1.56946 0.56571,0.40853 1.15176,0.74188 1.72383,1.12592 0,0 4.96514,-1.17913 4.96514,-1.17913 l 0,0 c -0.55824,-0.47073 -1.16841,-0.73166 -1.74662,-1.13838 -0.74048,-0.51801 -1.46373,-1.0885 -2.19983,-1.61826 -0.75055,-0.4166 -1.44627,-0.99141 -2.14146,-1.59177 -0.67591,-0.48957 -1.33083,-1.04809 -2.01413,-1.50669 -0.66263,-0.26816 -1.34059,-0.50013 -2.0218,-0.51896 0,0 -4.97916,1.39355 -4.97916,1.39355 z"
         id="path7326"
         style="fill:#00ff00;fill-opacity:1;stroke:#000000;stroke-width:2.22489744;stroke-linecap:round;stroke-miterlimit:4;stroke-opacity:1;stroke-dasharray:none;stroke-dashoffset:0" />
    </g>
    <g
       transform="matrix(0.89891784,0,0,0.89891784,-103.44771,802.58416)"
       id="g7330"
       style="stroke-width:2.22489744;stroke-miterlimit:4;stroke-dasharray:none">
      <path
         style="fill:url(#radialGradient7340);fill-opacity:1;stroke:#000000;stroke-width:2.22489744;stroke-linecap:round;stroke-miterlimit:4;stroke-opacity:1;stroke-dasharray:none;stroke-dashoffset:0"
         d="m 160.61061,182.22037 c 2.49775,6.32617 -2.22508,17.84671 -5.80129,18.84076 -3.57623,0.99406 -14.61002,-3.46945 -17.10777,-9.7956 -2.49775,-6.3262 1.73639,-10.61574 8.0626,-13.1135 6.32617,-2.49775 12.34872,-2.25784 14.84646,4.06834 z"
         id="path7332"
         inkscape:connector-curvature="0"
         sodipodi:nodetypes="szsss" />
      <path
         style="fill:#00ff00;fill-opacity:1;stroke:#000000;stroke-width:2.22489744;stroke-linecap:round;stroke-miterlimit:4;stroke-opacity:1;stroke-dasharray:none;stroke-dashoffset:0"
         id="path7334"
         d="m 132.88761,179.61766 c 0.77808,-0.48285 1.65953,-0.64129 2.52384,-0.891 0.76922,-0.19649 1.53169,-0.33772 2.32579,-0.27032 0.72395,-0.0139 1.43445,0.17636 2.12675,0.36893 0.55925,0.21453 1.12398,0.44319 1.71834,0.53621 0.28919,0.055 0.55392,0.17722 0.8363,0.25649 0,0 -2.1338,5.37584 -2.1338,5.37584 l 0,0 c -0.26134,-0.0794 -0.51301,-0.18462 -0.78193,-0.23595 -0.60464,-0.12788 -1.18795,-0.33375 -1.75841,-0.57002 -0.65765,-0.18214 -1.32424,-0.3434 -2.01205,-0.32722 -0.7297,-0.0217 -1.43968,0.12093 -2.14215,0.31274 -0.832,0.21418 -1.65839,0.42751 -2.32378,1.0103 0,0 1.6211,-5.566 1.6211,-5.566 z"
         inkscape:connector-curvature="0" />
      <path
         style="fill:#00ff00;fill-opacity:1;stroke:#000000;stroke-width:2.22489744;stroke-linecap:round;stroke-miterlimit:4;stroke-opacity:1;stroke-dasharray:none;stroke-dashoffset:0"
         id="path7336"
         d="m 143.32456,169.84242 c -0.24333,0.81994 -0.54389,1.6094 -0.71226,2.45004 -0.12549,0.7715 -0.14499,1.54265 -0.11411,2.32171 0.0522,0.74069 0.28044,1.43658 0.49962,2.13891 0.2101,0.7857 0.55729,1.51751 0.95048,2.22546 0.068,0.11449 0.13583,0.22889 0.20369,0.3433 0,0 5.71173,-0.67371 5.71173,-0.67371 l 0,0 c -0.0679,-0.10906 -0.13462,-0.21881 -0.20201,-0.32815 -0.38635,-0.66348 -0.73995,-1.34741 -0.93521,-2.0949 -0.18711,-0.66225 -0.43257,-1.30387 -0.46969,-2.00067 -0.0372,-0.72857 -0.0416,-1.45157 0.084,-2.17384 0.17561,-0.78393 0.43405,-1.55463 0.78788,-2.27615 0,0 -5.80401,0.068 -5.80401,0.068 z"
         inkscape:connector-curvature="0" />
      <path
         style="fill:#00ff00;fill-opacity:1;stroke:#000000;stroke-width:2.22489744;stroke-linecap:round;stroke-miterlimit:4;stroke-opacity:1;stroke-dasharray:none;stroke-dashoffset:0"
         id="path7338"
         d="m 130.01779,176.71932 c 0.73119,-0.0196 1.45669,-0.062 2.20193,0.009 0.775,0.12914 1.55574,0.54512 2.32579,0.89444 0.85424,0.39936 1.69963,0.85865 2.56019,1.17376 0.85954,0.30791 1.71484,0.71256 2.57083,1.08631 0.66542,0.2836 1.33421,0.48656 2.00045,0.74397 0,0 4.75027,-2.32815 4.75027,-2.32815 l 0,0 c -0.67211,-0.34823 -1.34872,-0.47239 -2.02637,-0.75137 -0.86722,-0.35427 -1.72897,-0.76561 -2.59442,-1.13284 -0.85414,-0.24946 -1.6891,-0.67146 -2.52929,-1.11943 -0.7954,-0.34033 -1.58533,-0.75518 -2.38114,-1.0625 -0.73129,-0.11954 -1.46981,-0.19895 -2.16284,-0.0623 0,0 -4.7154,2.54814 -4.7154,2.54814 z"
         inkscape:connector-curvature="0" />
    </g>
    <g
       id="g7342"
       transform="matrix(0.89891784,0,0,0.89891784,-86.840901,790.72216)"
       style="stroke-width:2.22489744;stroke-miterlimit:4;stroke-dasharray:none">
      <path
         sodipodi:nodetypes="szsss"
         inkscape:connector-curvature="0"
         id="path7344"
         d="m 164.32022,185.09055 c 0.83396,7.92156 -8.10872,19.43921 -12.45573,19.43905 -4.34698,-1.6e-4 -15.39681,-8.49752 -16.23074,-16.41907 -0.83396,-7.92154 5.28919,-11.43348 13.21077,-12.26741 7.92152,-0.83397 14.64176,1.32588 15.4757,9.24743 z"
         style="fill:url(#radialGradient7352);fill-opacity:1;stroke:#000000;stroke-width:2.22489744;stroke-linecap:round;stroke-miterlimit:4;stroke-opacity:1;stroke-dasharray:none;stroke-dashoffset:0" />
      <path
         inkscape:connector-curvature="0"
         d="m 138.3259,175.28871 c 0.86578,-0.29837 1.76042,-0.25748 2.65858,-0.30939 0.79365,-0.0211 1.56848,0.0102 2.32787,0.25193 0.70919,0.14614 1.35971,0.48996 1.99208,0.83121 0.49781,0.33316 0.99779,0.68131 1.55676,0.90379 0.26982,0.11766 0.50084,0.29557 0.75864,0.43546 0,0 -3.27236,4.76918 -3.27236,4.76918 l 0,0 c -0.23728,-0.13518 -0.45935,-0.29377 -0.71021,-0.40341 -0.56123,-0.25874 -1.08441,-0.58881 -1.58831,-0.94563 -0.60092,-0.32341 -1.21518,-0.62841 -1.88949,-0.76509 -0.7067,-0.18306 -1.43078,-0.20052 -2.1582,-0.16989 -0.85876,0.0244 -1.7119,0.0493 -2.48993,0.47009 0,0 2.81457,-5.06825 2.81457,-5.06825 z"
         id="path7346"
         style="fill:#00ff00;fill-opacity:1;stroke:#000000;stroke-width:2.22489744;stroke-linecap:round;stroke-miterlimit:4;stroke-opacity:1;stroke-dasharray:none;stroke-dashoffset:0" />
      <path
         inkscape:connector-curvature="0"
         d="m 155.79158,168.79122 c -0.6961,0.53641 -1.42154,1.01301 -2.06769,1.6118 -0.56886,0.56698 -1.04925,1.19741 -1.49223,1.86495 -0.40214,0.64835 -0.63106,1.36518 -0.87114,2.08202 -0.29792,0.78078 -0.44898,1.59924 -0.54779,2.42541 -0.0122,0.13626 -0.0251,0.2723 -0.0372,0.40848 0,0 5.16234,2.87636 5.16234,2.87636 l 0,0 c 0.009,-0.13178 0.019,-0.26331 0.029,-0.3949 0.0773,-0.7851 0.19464,-1.56747 0.48188,-2.30752 0.24274,-0.66414 0.42445,-1.34623 0.81289,-1.94887 0.40755,-0.62912 0.83885,-1.23399 1.37824,-1.75988 0.61805,-0.54717 1.29707,-1.0335 2.02601,-1.42147 0,0 -4.87468,-3.43629 -4.87468,-3.43629 z"
         id="path7348"
         style="fill:#00ff00;fill-opacity:1;stroke:#000000;stroke-width:2.22489744;stroke-linecap:round;stroke-miterlimit:4;stroke-opacity:1;stroke-dasharray:none;stroke-dashoffset:0" />
      <path
         inkscape:connector-curvature="0"
         d="m 139.42299,168.90841 c 0.63905,0.35585 1.28495,0.68899 1.88999,1.12979 0.60103,0.50605 1.06086,1.26183 1.54543,1.95476 0.53152,0.7789 1.02489,1.6049 1.60478,2.31453 0.58268,0.70293 1.11239,1.48692 1.65846,2.24468 0.42804,0.5831 0.90005,1.09853 1.34217,1.6595 0,0 5.27359,0.41732 5.27359,0.41732 l 0,0 c -0.40084,-0.6421 -0.91975,-1.09368 -1.36066,-1.67906 -0.56567,-0.74673 -1.09752,-1.53977 -1.65506,-2.29674 -0.60783,-0.64991 -1.11122,-1.43846 -1.60588,-2.25205 -0.51097,-0.69813 -0.97926,-1.45759 -1.5074,-2.12755 -0.5683,-0.47551 -1.16326,-0.92012 -1.82922,-1.15569 0,0 -5.35572,-0.2103 -5.35572,-0.2103 z"
         id="path7350"
         style="fill:#00ff00;fill-opacity:1;stroke:#000000;stroke-width:2.22489744;stroke-linecap:round;stroke-miterlimit:4;stroke-opacity:1;stroke-dasharray:none;stroke-dashoffset:0" />
    </g>
    <path
       style="font-size:medium;font-style:normal;font-variant:normal;font-weight:normal;font-stretch:normal;text-indent:0;text-align:start;text-decoration:none;line-height:normal;letter-spacing:normal;word-spacing:normal;text-transform:none;direction:ltr;block-progression:tb;writing-mode:lr-tb;text-anchor:start;baseline-shift:baseline;color:#000000;fill:url(#linearGradient8642);fill-opacity:1;stroke:#000000;stroke-width:2;stroke-miterlimit:4;stroke-opacity:0.50196081;stroke-dasharray:none;marker:none;visibility:visible;display:inline;overflow:visible;enable-background:accumulate;font-family:Sans;-inkscape-font-specification:Sans"
       d="m 54.561453,940.56008 -1.194588,-3.15217 -2.431578,2.30336 c -15.977686,8.336 -31.673695,14.57558 -44.0192015,41.19508 l -1.0780953,1.03942 0.5276046,1.39222 c 2.7268722,17.61331 6.6554322,33.92681 18.5059652,48.83261 l 1.496194,0.064 c 19.614502,5.0099 39.641212,6.1482 60.26542,1.6746 l 3.347423,0.113 -1.194565,-3.1522 c -3.135063,-7.075 -7.192134,-13.7191 -10.191026,-21.3284 -2.998894,-7.6094 -4.244046,-17.17246 -7.100365,-24.94537 -2.856325,-7.7729 -7.719197,-15.73265 -10.426539,-23.29853 -2.707343,-7.56589 -3.954699,-13.74942 -6.506649,-20.7377 z m -3.008333,4.74496 c 1.478947,4.47549 4.454806,3.86151 4.436852,13.42649 l -9.50512,10.69429 -6.809259,-16.88625 z m 7.147539,18.86056 c 2.557978,6.66912 4.88264,11.76305 5.52313,20.96061 l -9.854744,5.10401 -6.162012,-16.26001 z m 7.709009,25.65776 c 4.252595,5.55006 6.846087,11.52534 8.249735,20.72554 l -12.774487,-0.4862 -5.923092,-15.62957 z m 9.378817,25.46764 c 5.750033,0.6612 5.360549,10.6544 7.797755,16.1944 l -14.356081,0.2057 -5.623061,-17.084 z m -40.647289,-60.80888 7.797777,18.27018 -12.069981,11.2732 -7.204654,-18.07246 z m 9.519946,22.81457 5.504994,14.52629 -14.289884,5.41538 -3.285078,-8.66848 z m 7.097774,18.72915 5.266086,13.89586 -16.509812,-0.4422 -3.04617,-8.0381 z m 6.988255,18.44036 5.425358,16.8862 -16.5098,-0.2446 -5.425357,-17.0841 z m -39.419538,-45.3844 7.99548,18.27017 -13.597551,12.05867 -2.629453,-16.27321 z m 9.71765,22.81456 2.628072,6.93481 -13.771159,6.66543 -1.615688,-3.3588 z m 4.220841,11.13774 2.38914,6.3044 -14.783555,1.2719 -1.656345,-2.7284 z m 4.111321,10.8489 5.820753,17.4792 -16.99628,-2.4505 -5.285569,-14.3161 z"
       id="path6343"
       inkscape:connector-curvature="0"
       sodipodi:nodetypes="cccccccccccsssccccccccccccccccccccccccccccccccccccccccccccccccccccccccccccc" />
  </g>
</svg>
