<?xml version="1.0" encoding="UTF-8" standalone="no"?>
<!-- Created with Inkscape (http://www.inkscape.org/) -->

<svg
   xmlns:dc="http://purl.org/dc/elements/1.1/"
   xmlns:cc="http://creativecommons.org/ns#"
   xmlns:rdf="http://www.w3.org/1999/02/22-rdf-syntax-ns#"
   xmlns:svg="http://www.w3.org/2000/svg"
   xmlns="http://www.w3.org/2000/svg"
   xmlns:xlink="http://www.w3.org/1999/xlink"
   xmlns:sodipodi="http://sodipodi.sourceforge.net/DTD/sodipodi-0.dtd"
   xmlns:inkscape="http://www.inkscape.org/namespaces/inkscape"
   width="256"
   height="256"
   id="svg3339"
   version="1.1"
   inkscape:version="0.48.4 r9939"
   sodipodi:docname="Strawberry_GUI_Basket_Icons.svg"
   inkscape:export-filename="/home/kevin/workspace/guardian_of_the_fields_the_strawberry_jam/Unity/Assets/Sprites/Strawberry_GUI_Basket_Icons.png"
   inkscape:export-xdpi="90"
   inkscape:export-ydpi="90">
  <defs
     id="defs3341">
    <marker
       inkscape:stockid="Arrow1Send"
       orient="auto"
       refY="0.0"
       refX="0.0"
       id="Arrow1Send"
       style="overflow:visible;">
      <path
         id="path4073"
         d="M 0.0,0.0 L 5.0,-5.0 L -12.5,0.0 L 5.0,5.0 L 0.0,0.0 z "
         style="fill-rule:evenodd;stroke:#000000;stroke-width:1.0pt;"
         transform="scale(0.2) rotate(180) translate(6,0)" />
    </marker>
    <marker
       inkscape:stockid="Arrow1Lend"
       orient="auto"
       refY="0.0"
       refX="0.0"
       id="Arrow1Lend"
       style="overflow:visible;">
      <path
         id="path4061"
         d="M 0.0,0.0 L 5.0,-5.0 L -12.5,0.0 L 5.0,5.0 L 0.0,0.0 z "
         style="fill-rule:evenodd;stroke:#000000;stroke-width:1.0pt;"
         transform="scale(0.8) rotate(180) translate(12.5,0)" />
    </marker>
    <linearGradient
       id="linearGradient4388">
      <stop
         style="stop-color:#ff3030;stop-opacity:1;"
         offset="0"
         id="stop4390" />
      <stop
         style="stop-color:#b80000;stop-opacity:1;"
         offset="1"
         id="stop4392" />
    </linearGradient>
    <radialGradient
       inkscape:collect="always"
       xlink:href="#linearGradient4388"
       id="radialGradient4171"
       gradientUnits="userSpaceOnUse"
       gradientTransform="matrix(1,0,0,0.99965886,0,0.15253451)"
       cx="70.190216"
       cy="444.94769"
       fx="70.190216"
       fy="444.94769"
       r="11.358824" />
    <linearGradient
       id="linearGradient4368">
      <stop
         style="stop-color:#9a9a9a;stop-opacity:1;"
         offset="0"
         id="stop4370" />
      <stop
         style="stop-color:#782121;stop-opacity:1;"
         offset="1"
         id="stop4372" />
    </linearGradient>
    <linearGradient
       id="linearGradient4376">
      <stop
         style="stop-color:#ff9999;stop-opacity:1;"
         offset="0"
         id="stop4378" />
      <stop
         style="stop-color:#c5ff99;stop-opacity:1;"
         offset="1"
         id="stop4380" />
    </linearGradient>
    <radialGradient
       inkscape:collect="always"
       xlink:href="#linearGradient4388"
       id="radialGradient4277"
       gradientUnits="userSpaceOnUse"
       gradientTransform="matrix(1,0,0,0.99965886,0,0.15253451)"
       cx="70.190216"
       cy="444.94769"
       fx="70.190216"
       fy="444.94769"
       r="11.358824" />
    <radialGradient
       inkscape:collect="always"
       xlink:href="#linearGradient4388"
       id="radialGradient4303"
       gradientUnits="userSpaceOnUse"
       gradientTransform="matrix(1,0,0,0.99965886,0,0.15253451)"
       cx="70.190216"
       cy="444.94769"
       fx="70.190216"
       fy="444.94769"
       r="11.358824" />
    <clipPath
       clipPathUnits="userSpaceOnUse"
       id="clipPath3084">
      <path
         inkscape:connector-curvature="0"
         d="M 0,800 800,800 800,0 0,0 0,800 z"
         id="path3086" />
    </clipPath>
    <clipPath
       clipPathUnits="userSpaceOnUse"
       id="clipPath3136">
      <path
         inkscape:connector-curvature="0"
         d="M 0,800 800,800 800,0 0,0 0,800 z"
         id="path3138" />
    </clipPath>
    <clipPath
       clipPathUnits="userSpaceOnUse"
       id="clipPath3108">
      <path
         inkscape:connector-curvature="0"
         d="M 0,800 800,800 800,0 0,0 0,800 z"
         id="path3110" />
    </clipPath>
  </defs>
  <sodipodi:namedview
     id="base"
     pagecolor="#ffffff"
     bordercolor="#666666"
     borderopacity="1.0"
     inkscape:pageopacity="0.0"
     inkscape:pageshadow="2"
     inkscape:zoom="1.8101934"
     inkscape:cx="43.812827"
     inkscape:cy="136.55012"
     inkscape:document-units="px"
     inkscape:current-layer="layer1"
     showgrid="true"
     inkscape:snap-global="false"
     inkscape:window-width="1622"
     inkscape:window-height="989"
     inkscape:window-x="58"
     inkscape:window-y="0"
     inkscape:window-maximized="1">
    <inkscape:grid
       type="xygrid"
       id="grid3347"
       empspacing="2"
       visible="true"
       enabled="true"
       snapvisiblegridlinesonly="true"
       spacingy="64px"
       spacingx="64px" />
  </sodipodi:namedview>
  <metadata
     id="metadata3344">
    <rdf:RDF>
      <cc:Work
         rdf:about="">
        <dc:format>image/svg+xml</dc:format>
        <dc:type
           rdf:resource="http://purl.org/dc/dcmitype/StillImage" />
        <dc:title></dc:title>
      </cc:Work>
    </rdf:RDF>
  </metadata>
  <g
     inkscape:label="Layer 1"
     inkscape:groupmode="layer"
     id="layer1"
     transform="translate(0,-796.36218)">
    <g
       transform="matrix(4.0988204,0,0,4.0988204,-198.46317,-961.39166)"
       id="g4402"
       style="stroke-width:0.7319179;stroke-miterlimit:4;stroke-dasharray:none">
      <path
         style="fill:url(#radialGradient4171);fill-opacity:1;stroke:#000000;stroke-width:0.7319179;stroke-linecap:round;stroke-miterlimit:4;stroke-opacity:1;stroke-dashoffset:0;stroke-dasharray:none"
         d="m 75.476293,439.55505 c 3.692662,4.76712 2.524423,15.74407 -0.273938,17.47575 -2.798377,1.73168 -13.29672,0.66372 -16.989391,-4.10341 -3.692671,-4.76713 -1.150096,-9.46724 3.617039,-13.15992 4.767128,-3.69267 9.953619,-4.97957 13.64629,-0.21242 z"
         id="path4302"
         inkscape:connector-curvature="0"
         sodipodi:nodetypes="szsss" />
      <path
         style="fill:#00ff00;fill-opacity:1;stroke:#000000;stroke-width:0.7319179;stroke-linecap:round;stroke-miterlimit:4;stroke-opacity:1;stroke-dasharray:none;stroke-dashoffset:0"
         id="path4304"
         d="m 52.871633,439.94085 c 0.685857,-0.42562 1.462842,-0.56528 2.224718,-0.7854 0.678051,-0.17321 1.350158,-0.2977 2.050152,-0.23829 0.638137,-0.0123 1.264437,0.15546 1.87468,0.32521 0.492974,0.18911 0.990772,0.39066 1.514691,0.47266 0.254912,0.0485 0.488268,0.15621 0.737179,0.22609 0,0 -1.880903,4.73871 -1.880903,4.73871 l 0,0 c -0.230364,-0.07 -0.452212,-0.16274 -0.689253,-0.20799 -0.532979,-0.11272 -1.047164,-0.29419 -1.550006,-0.50246 -0.579709,-0.16055 -1.167299,-0.3027 -1.773593,-0.28843 -0.643215,-0.0191 -1.269045,0.10659 -1.888264,0.27567 -0.733387,0.18879 -1.461845,0.37684 -2.048364,0.89056 0,0 1.428963,-4.90633 1.428963,-4.90633 z"
         inkscape:connector-curvature="0" />
      <path
         style="fill:#00ff00;fill-opacity:1;stroke:#000000;stroke-width:0.7319179;stroke-linecap:round;stroke-miterlimit:4;stroke-opacity:1;stroke-dasharray:none;stroke-dashoffset:0"
         id="path4306"
         d="m 61.806906,431.50096 c -0.166817,0.73522 -0.385706,1.44696 -0.485391,2.19609 -0.06594,0.68584 -0.03874,1.36527 0.0333,2.04875 0.08857,0.6485 0.329439,1.24746 0.56268,1.85261 0.23005,0.679 0.577607,1.3027 0.964229,1.90276 0.06636,0.0968 0.132657,0.1935 0.198932,0.29024 0,0 4.98525,-0.92162 4.98525,-0.92162 l 0,0 c -0.06603,-0.092 -0.131017,-0.18471 -0.196599,-0.27699 -0.378033,-0.56135 -0.728458,-1.14255 -0.943275,-1.78881 -0.202725,-0.57174 -0.455592,-1.12197 -0.52838,-1.73273 -0.07468,-0.63871 -0.120235,-1.27441 -0.05136,-1.91696 0.109321,-0.69966 0.292237,-1.39244 0.561913,-2.04748 0,0 -5.101289,0.39416 -5.101289,0.39416 z"
         inkscape:connector-curvature="0" />
      <path
         style="fill:#00ff00;fill-opacity:1;stroke:#000000;stroke-width:0.7319179;stroke-linecap:round;stroke-miterlimit:4;stroke-opacity:1;stroke-dasharray:none;stroke-dashoffset:0"
         id="path4308"
         d="m 50.341976,437.38615 c 0.644525,-0.0173 1.284039,-0.0546 1.940946,0.008 0.683145,0.11382 1.37136,0.48049 2.050136,0.78839 0.752997,0.35202 1.498205,0.75686 2.256759,1.03461 0.757679,0.2714 1.5116,0.62808 2.266148,0.95752 0.586543,0.24998 1.17607,0.42888 1.763355,0.65577 0,0 4.187204,-2.05227 4.187204,-2.05227 l 0,0 c -0.592446,-0.30695 -1.188864,-0.41638 -1.786206,-0.66229 -0.764431,-0.31227 -1.524048,-0.67485 -2.286921,-0.99853 -0.752915,-0.21989 -1.488907,-0.59186 -2.229523,-0.98673 -0.70114,-0.29997 -1.397441,-0.66564 -2.098935,-0.93653 -0.644608,-0.10536 -1.295597,-0.17535 -1.90649,-0.0549 0,0 -4.156473,2.24619 -4.156473,2.24619 z"
         inkscape:connector-curvature="0" />
    </g>
    <path
       style="fill:#00ff00;fill-opacity:1;stroke:#000000;stroke-width:1.48125887;stroke-opacity:1"
       d="m 110.86795,801.39056 -20.274727,9.72076 c -2.150966,2.87098 -4.486926,5.51562 -6.897112,8.10071 -4.393606,5.18974 -8.552522,10.53205 -11.89636,16.71038 -5.548885,9.68062 -10.064028,20.04588 -13.470198,30.96764 -1.614409,5.13375 -3.36345,10.23876 -4.999249,15.36806 -2.812955,-4.4734 -5.610386,-8.96976 -8.656106,-13.23875 -2.687537,-4.26039 -5.578628,-8.32215 -8.563528,-12.31296 l -18.978629,13.33133 c 3.331321,3.4734 6.259296,7.51117 8.980131,11.61855 3.568042,5.06398 6.872879,10.36689 10.137366,15.69216 2.814021,4.03939 4.789651,8.72772 6.619376,13.42391 4.811647,14.80933 2.133309,8.47043 22.959512,-4.3512 0.30785,-6.25225 1.154641,-12.4048 2.314467,-18.51574 2.342374,-10.5984 5.806342,-20.82561 9.026421,-31.10643 2.646699,-7.52361 5.39596,-15.13432 9.026422,-22.12631 1.187066,-2.28617 3.650088,-6.2481 4.999248,-8.47102 3.476114,-6.20351 8.013743,-11.31771 12.498116,-16.52522 2.77085,-2.33846 4.82076,-5.47844 7.17485,-8.28587 z M 64.624903,904.89353 c 0.100874,-0.0593 -0.05392,0.45578 -0.138794,0.37031 -0.05866,-0.0592 -0.09273,-0.16027 -0.138794,-0.23137 0.08932,-0.0518 0.188431,-0.0874 0.277736,-0.13924 z"
       id="path3874"
       inkscape:connector-curvature="0" />
    <path
       transform="matrix(3.478917,0,0,3.4120083,-1754.844,418.37784)"
       d="m 576,168 c 0,4.41828 -7.16344,8 -16,8 -8.83656,0 -16,-3.58172 -16,-8 0,-4.41828 7.16344,-8 16,-8 8.83656,0 16,3.58172 16,8 z"
       sodipodi:ry="8"
       sodipodi:rx="16"
       sodipodi:cy="168"
       sodipodi:cx="560"
       id="path4158"
       style="fill:#ff6600;fill-opacity:1;stroke:#000000;stroke-width:1;stroke-linecap:round;stroke-miterlimit:4;stroke-opacity:1;stroke-dasharray:none;stroke-dashoffset:0"
       sodipodi:type="arc" />
    <g
       transform="matrix(0.89850525,0,0,0.89850525,-314.96956,595.92411)"
       id="g3954">
      <path
         style="fill:#ff0000;fill-opacity:1;stroke:#000000;stroke-width:1.65566623;stroke-linecap:round;stroke-miterlimit:4;stroke-opacity:1;stroke-dashoffset:0"
         d="m 577.01122,431.37471 c 4.47966,5.78311 3.06244,19.09952 -0.33232,21.20026 -3.39478,2.10074 -16.13058,0.80518 -20.61025,-4.97795 -4.47967,-5.78312 -1.39521,-11.48494 4.38792,-15.96462 5.78312,-4.47967 12.07498,-6.04084 16.55465,-0.25769 z"
         id="path3956"
         inkscape:connector-curvature="0"
         sodipodi:nodetypes="szsss" />
      <path
         style="fill:#00ff00;fill-opacity:1;stroke:#000000;stroke-width:1.65566623;stroke-linecap:round;stroke-miterlimit:4;stroke-opacity:1;stroke-dasharray:none;stroke-dashoffset:0"
         id="path3958"
         d="m 549.58895,431.84273 c 0.83203,-0.51633 1.77461,-0.68576 2.69886,-0.95279 0.82256,-0.21012 1.63791,-0.36115 2.48709,-0.28907 0.77414,-0.0149 1.53392,0.18859 2.27422,0.39452 0.59804,0.22941 1.20193,0.47392 1.83751,0.57339 0.30924,0.0588 0.59233,0.1895 0.89429,0.27428 0,0 -2.28177,5.74864 -2.28177,5.74864 l 0,0 c -0.27946,-0.0849 -0.54859,-0.19742 -0.83615,-0.25231 -0.64657,-0.13675 -1.27034,-0.35689 -1.88035,-0.60955 -0.70326,-0.19477 -1.41608,-0.36721 -2.15159,-0.3499 -0.7803,-0.0232 -1.53951,0.1293 -2.2907,0.33442 -0.88969,0.22903 -1.7734,0.45715 -2.48492,1.08036 0,0 1.73351,-5.95199 1.73351,-5.95199 z"
         inkscape:connector-curvature="0" />
      <path
         style="fill:#00ff00;fill-opacity:1;stroke:#000000;stroke-width:1.65566623;stroke-linecap:round;stroke-miterlimit:4;stroke-opacity:1;stroke-dasharray:none;stroke-dashoffset:0"
         id="path3960"
         d="m 560.42855,421.60409 c -0.20237,0.89192 -0.46791,1.75534 -0.58884,2.66413 -0.08,0.83201 -0.047,1.65625 0.0404,2.48539 0.10745,0.78671 0.39965,1.51333 0.6826,2.24745 0.27908,0.82371 0.70071,1.58033 1.16973,2.30828 0.0805,0.11739 0.16093,0.23474 0.24133,0.3521 0,0 6.04773,-1.11804 6.04773,-1.11804 l 0,0 c -0.0801,-0.11159 -0.15894,-0.22408 -0.2385,-0.33602 -0.4586,-0.68099 -0.88371,-1.38606 -1.14431,-2.17005 -0.24593,-0.69359 -0.55269,-1.36109 -0.64099,-2.10202 -0.0906,-0.77483 -0.14586,-1.54602 -0.0623,-2.32551 0.13262,-0.84878 0.35452,-1.68921 0.68167,-2.48385 0,0 -6.1885,0.47816 -6.1885,0.47816 z"
         inkscape:connector-curvature="0" />
      <path
         style="fill:#00ff00;fill-opacity:1;stroke:#000000;stroke-width:1.84317267;stroke-linecap:round;stroke-miterlimit:4;stroke-opacity:1;stroke-dasharray:none;stroke-dashoffset:0"
         id="path3962"
         d="m 546.52016,428.74356 c 0.78189,-0.021 1.5577,-0.0662 2.35461,0.01 0.82874,0.13808 1.66363,0.58289 2.48707,0.95641 0.91348,0.42705 1.81751,0.91817 2.73773,1.25511 0.91916,0.32925 1.83376,0.76194 2.74912,1.16159 0.71155,0.30326 1.42672,0.52029 2.13917,0.79554 0,0 5.0796,-2.48967 5.0796,-2.48967 l 0,0 c -0.71871,-0.37236 -1.44224,-0.50511 -2.16689,-0.80343 -0.92735,-0.37883 -1.84886,-0.81868 -2.77432,-1.21135 -0.91338,-0.26675 -1.80623,-0.718 -2.70469,-1.19702 -0.85057,-0.36391 -1.69527,-0.80751 -2.54627,-1.13613 -0.78199,-0.12782 -1.57172,-0.21272 -2.31281,-0.0666 0,0 -5.04232,2.72491 -5.04232,2.72491 z"
         inkscape:connector-curvature="0" />
    </g>
    <use
       id="use4232"
       xlink:href="#g3954"
       transform="matrix(0.99078335,5.0267468e-4,-5.0267468e-4,0.99078335,-40.298537,-10.491974)"
       x="0"
       y="0"
       width="1024"
       height="768" />
    <use
       id="use4234"
       xlink:href="#g3954"
       transform="matrix(0.58058098,0.79309851,-0.79309851,0.58058098,904.7991,244.26897)"
       x="0"
       y="0"
       width="1024"
       height="768" />
    <use
       id="use4238"
       xlink:href="#g3954"
       transform="matrix(0.97765788,0.37217279,-0.37217279,0.97765788,410.35377,-38.945411)"
       x="0"
       y="0"
       width="1024"
       height="768" />
    <use
       id="use4240"
       xlink:href="#g3954"
       transform="matrix(1.0500124,0.00184819,-0.00184819,1.0500124,17.5501,-56.600039)"
       x="0"
       y="0"
       width="1024"
       height="768" />
    <use
       id="use4248"
       xlink:href="#g3954"
       transform="matrix(-0.56525465,0.72653054,-0.72653054,-0.56525465,1045.9174,1453.2669)"
       x="0"
       y="0"
       width="1024"
       height="768" />
    <use
       id="use4266"
       xlink:href="#g3954"
       transform="matrix(-0.31786158,1.0317426,-1.0317426,-0.31786158,1274.9778,1125.1903)"
       x="0"
       y="0"
       width="1024"
       height="768" />
    <use
       id="use4268"
       xlink:href="#g3954"
       transform="matrix(-0.62500371,-0.88355462,0.88355462,-0.62500371,-540.4847,1764.938)"
       x="0"
       y="0"
       width="1024"
       height="768" />
    <use
       id="use4270"
       xlink:href="#g3954"
       transform="matrix(-0.74393051,0.76037125,-0.76037125,-0.74393051,1110.4453,1597.2424)"
       x="0"
       y="0"
       width="1024"
       height="768" />
    <use
       id="use4284"
       xlink:href="#g3954"
       transform="matrix(0.1896517,-0.99953585,0.99953585,0.1896517,-839.21678,975.34002)"
       x="0"
       y="0"
       width="1024"
       height="768" />
    <use
       id="use4286"
       xlink:href="#g3954"
       transform="matrix(0.707833,-0.68844954,0.68844954,0.707833,-646.59784,435.35651)"
       x="0"
       y="0"
       width="1024"
       height="768" />
    <use
       id="use4288"
       xlink:href="#g3954"
       transform="matrix(0.52513131,0.77239496,-0.77239496,0.52513131,834.83817,304.15748)"
       x="0"
       y="0"
       width="1024"
       height="768" />
    <use
       id="use4292"
       xlink:href="#g3954"
       transform="matrix(1.088292,0.01619636,-0.01619636,1.088292,-37.760043,-89.988997)"
       x="0"
       y="0"
       width="1024"
       height="768" />
    <use
       id="use4250"
       xlink:href="#g3954"
       transform="matrix(0.93265821,0.34547835,-0.34547835,0.93265821,337.93124,-10.527982)"
       x="0"
       y="0"
       width="1024"
       height="768" />
    <use
       id="use4244"
       xlink:href="#g3954"
       transform="matrix(-0.16213289,0.90729864,-0.90729864,-0.16213289,1133.7021,957.41753)"
       x="0"
       y="0"
       width="1024"
       height="768" />
    <path
       style="font-size:medium;font-style:normal;font-variant:normal;font-weight:normal;font-stretch:normal;text-indent:0;text-align:start;text-decoration:none;line-height:normal;letter-spacing:normal;word-spacing:normal;text-transform:none;direction:ltr;block-progression:tb;writing-mode:lr-tb;text-anchor:start;baseline-shift:baseline;color:#000000;fill:#0000ff;fill-opacity:0.50196078;stroke:#0000ff;stroke-width:3.69924521;stroke-miterlimit:4;stroke-opacity:1;stroke-dasharray:none;marker:none;visibility:visible;display:inline;overflow:visible;enable-background:accumulate;font-family:Sans;-inkscape-font-specification:Sans"
       d="m 167.45841,799.17437 0,55.12085 -24.73084,-11.01624 50.06121,78.02514 50.06121,-78.02514 -25.21796,11.21439 0,-55.319"
       id="path4052"
       inkscape:connector-curvature="0"
       sodipodi:nodetypes="ccccccc" />
    <g
       transform="matrix(0.2072295,-0.05552698,-0.05552698,-0.2072295,132.9922,975.23675)"
       id="g3080">
      <g
         id="g3082"
         clip-path="url(#clipPath3084)">
        <g
           id="g3088"
           transform="translate(193.0849,322.1284)">
          <path
             inkscape:connector-curvature="0"
             d="m 0,0 c 54.58,37.35 110.35,72.024 167.317,104.727 75.066,43.093 165.088,88.506 175.815,88.938 -2.117,-1.083 -3.595,-1.866 -5.096,-2.603 -17.979,-8.817 -36.384,-16.868 -53.862,-26.587 C 236.192,137.793 188.351,110.836 140.955,83.132 116.036,68.566 92.098,52.313 67.855,36.608 57.793,30.09 48.333,22.632 38.183,16.265 4.858,-4.642 -26.62,-28.06 -56.943,-53.056 c -5.657,-4.664 -10.65,-10.133 -15.949,-15.23 0.318,-0.354 0.637,-0.708 0.955,-1.063 3.022,1.943 6.161,3.728 9.047,5.856 14.266,10.518 28.106,21.657 42.778,31.568 18.304,12.364 38.53,18.905 60.747,13.279 12.378,-3.135 24.332,-7.943 36.123,-11.879 -0.01,0.06 -0.191,1.17 -0.311,1.914 20.859,-9.36 41.584,-6.224 62.401,-0.932 -12.09,3.508 -24.137,6.669 -33.398,15.95 2.256,-0.199 4.32,-0.909 6.386,-1.616 17.515,-5.996 34.824,-8.484 51.739,2.109 4.34,2.719 9.11,4.83 13.853,6.814 34.58,14.466 65.622,34.55 95.039,57.678 17.036,13.395 35.512,25.001 53.663,36.92 9.543,6.266 19.903,11.275 29.649,17.251 3.985,2.444 7.321,5.944 11.98,9.82 -28.377,-0.024 -71.053,7.333 -79.462,13.527 6.432,-1.234 12.566,-2.554 18.75,-3.572 17.759,-2.924 35.616,-3.958 53.569,-2.227 11.105,1.071 23.679,9.701 26.097,17.675 -4.711,-0.53 -9.481,-1.067 -14.25,-1.604 15.261,4.582 26.92,14.464 38.85,23.899 4.038,3.193 8.008,6.494 12.225,9.437 21.077,14.707 38.612,32.652 51.663,54.951 7.47,12.763 13.118,25.781 11.113,41.079 -2.259,17.235 -16.277,28.058 -33.71,26.948 -19.354,-1.233 -37.051,-8.707 -55.513,-13.289 -18.188,-4.515 -36.652,-8.35 -48.504,-25.335 -0.439,0.303 -0.879,0.605 -1.318,0.907 1.617,5.821 3.234,11.642 5.376,19.351 -22.295,-9.025 -43.871,-16.365 -64.095,-26.423 -14.185,-7.054 -26.814,-17.433 -39.618,-27.022 -14.956,-11.201 -33.103,-18.934 -42.274,-37.046 1.303,5.766 2.607,11.532 3.911,17.298 -17.628,-15.091 -27.654,-35.097 -39.262,-54.165 5.787,13.638 11.574,27.277 17.361,40.915 -0.443,0.334 -0.886,0.669 -1.328,1.003 C 166.559,180.466 145.443,169.812 125.092,157.857 104.733,145.897 84.684,133.282 65.365,119.721 52.144,110.441 43.828,97.198 43.531,80.141 43.493,78.002 43.102,75.869 42.875,73.733 42.259,73.697 41.643,73.661 41.027,73.624 40.012,81.469 38.998,89.313 37.957,97.362 15.482,69.035 -2.9,39.221 0,0"
             style="fill:#a4a4a4;fill-opacity:1;fill-rule:nonzero;stroke:none"
             id="path3090" />
        </g>
        <g
           id="g3092"
           transform="translate(193.0849,322.1284)">
          <path
             inkscape:connector-curvature="0"
             d="m 0,0 c 54.58,37.35 110.35,72.024 167.317,104.727 75.066,43.093 165.088,88.506 175.815,88.938 -2.117,-1.083 -3.595,-1.866 -5.096,-2.603 -17.979,-8.817 -36.384,-16.868 -53.862,-26.587 C 236.192,137.793 188.351,110.836 140.955,83.132 116.036,68.566 92.098,52.313 67.855,36.608 57.793,30.09 48.333,22.632 38.183,16.265 4.858,-4.642 -26.62,-28.06 -56.943,-53.056 c -5.657,-4.664 -10.65,-10.133 -15.949,-15.23 0.318,-0.354 0.637,-0.708 0.955,-1.063 3.022,1.943 6.161,3.728 9.047,5.856 14.266,10.518 28.106,21.657 42.778,31.568 18.304,12.364 38.53,18.905 60.747,13.279 12.378,-3.135 24.332,-7.943 36.123,-11.879 -0.01,0.06 -0.191,1.17 -0.311,1.914 20.859,-9.36 41.584,-6.224 62.401,-0.932 -12.09,3.508 -24.137,6.669 -33.398,15.95 2.256,-0.199 4.32,-0.909 6.386,-1.616 17.515,-5.996 34.824,-8.484 51.739,2.109 4.34,2.719 9.11,4.83 13.853,6.814 34.58,14.466 65.622,34.55 95.039,57.678 17.036,13.395 35.512,25.001 53.663,36.92 9.543,6.266 19.903,11.275 29.649,17.251 3.985,2.444 7.321,5.944 11.98,9.82 -28.377,-0.024 -71.053,7.333 -79.462,13.527 6.432,-1.234 12.566,-2.554 18.75,-3.572 17.759,-2.924 35.616,-3.958 53.569,-2.227 11.105,1.071 23.679,9.701 26.097,17.675 -4.711,-0.53 -9.481,-1.067 -14.25,-1.604 15.261,4.582 26.92,14.464 38.85,23.899 4.038,3.193 8.008,6.494 12.225,9.437 21.077,14.707 38.612,32.652 51.663,54.951 7.47,12.763 13.118,25.781 11.113,41.079 -2.259,17.235 -16.277,28.058 -33.71,26.948 -19.354,-1.233 -37.051,-8.707 -55.513,-13.289 -18.188,-4.515 -36.652,-8.35 -48.504,-25.335 -0.439,0.303 -0.879,0.605 -1.318,0.907 1.617,5.821 3.234,11.642 5.376,19.351 -22.295,-9.025 -43.871,-16.365 -64.095,-26.423 -14.185,-7.054 -26.814,-17.433 -39.618,-27.022 -14.956,-11.201 -33.103,-18.934 -42.274,-37.046 1.303,5.766 2.607,11.532 3.911,17.298 -17.628,-15.091 -27.654,-35.097 -39.262,-54.165 5.787,13.638 11.574,27.277 17.361,40.915 -0.443,0.334 -0.886,0.669 -1.328,1.003 C 166.559,180.466 145.443,169.812 125.092,157.857 104.733,145.897 84.684,133.282 65.365,119.721 52.144,110.441 43.828,97.198 43.531,80.141 43.493,78.002 43.102,75.869 42.875,73.733 42.259,73.697 41.643,73.661 41.027,73.624 40.012,81.469 38.998,89.313 37.957,97.362 15.482,69.035 -2.9,39.221 0,0 z"
             style="fill:none;stroke:#ffffff;stroke-width:1;stroke-linecap:butt;stroke-linejoin:miter;stroke-miterlimit:10;stroke-opacity:1;stroke-dasharray:none"
             id="path3094" />
        </g>
        <g
           id="g3096"
           transform="translate(193.0849,322.1284)">
          <path
             inkscape:connector-curvature="0"
             d="m 0,0 c -2.9,39.221 15.482,69.035 37.957,97.362 1.041,-8.049 2.055,-15.893 3.07,-23.738 0.616,0.037 1.232,0.073 1.848,0.109 0.227,2.136 0.618,4.269 0.656,6.408 0.297,17.057 8.613,30.3 21.834,39.58 19.319,13.561 39.368,26.176 59.727,38.136 20.351,11.955 41.467,22.609 62.248,33.833 0.442,-0.334 0.885,-0.669 1.328,-1.003 -5.787,-13.638 -11.574,-27.277 -17.361,-40.915 11.608,19.068 21.634,39.074 39.262,54.165 -1.304,-5.766 -2.608,-11.532 -3.911,-17.298 9.171,18.112 27.318,25.845 42.274,37.046 12.804,9.589 25.433,19.968 39.618,27.022 20.224,10.058 41.8,17.398 64.095,26.423 -2.142,-7.709 -3.759,-13.53 -5.376,-19.351 0.439,-0.302 0.879,-0.604 1.318,-0.907 11.852,16.985 30.316,20.82 48.504,25.335 18.462,4.582 36.159,12.056 55.513,13.289 17.433,1.11 31.451,-9.713 33.71,-26.948 2.005,-15.298 -3.643,-28.316 -11.113,-41.079 -13.051,-22.299 -30.586,-40.244 -51.663,-54.951 -4.217,-2.943 -8.187,-6.244 -12.225,-9.437 -11.93,-9.435 -23.589,-19.317 -38.85,-23.899 4.769,0.537 9.539,1.074 14.25,1.604 -2.418,-7.974 -14.992,-16.604 -26.097,-17.675 -17.953,-1.731 -35.81,-0.697 -53.569,2.227 -6.184,1.018 -12.318,2.338 -18.75,3.572 8.409,-6.194 51.085,-13.551 79.462,-13.527 -4.659,-3.876 -7.995,-7.376 -11.98,-9.82 C 346.033,99.587 335.673,94.578 326.13,88.312 307.979,76.393 289.503,64.787 272.467,51.392 243.05,28.264 212.008,8.18 177.428,-6.286 c -4.743,-1.984 -9.513,-4.095 -13.853,-6.814 -16.915,-10.593 -34.224,-8.105 -51.739,-2.109 -2.066,0.707 -4.13,1.417 -6.386,1.616 9.261,-9.281 21.308,-12.442 33.398,-15.95 -20.817,-5.292 -41.542,-8.428 -62.401,0.932 0.12,-0.744 0.301,-1.854 0.311,-1.914 -11.791,3.936 -23.745,8.744 -36.123,11.879 -22.217,5.626 -42.443,-0.915 -60.747,-13.279 -14.672,-9.911 -28.512,-21.05 -42.778,-31.568 -2.886,-2.128 -6.025,-3.913 -9.047,-5.856 -0.318,0.355 -0.637,0.709 -0.955,1.063 5.299,5.097 10.292,10.566 15.949,15.23 30.323,24.996 61.801,48.414 95.126,69.321 10.15,6.367 19.61,13.825 29.672,20.343 24.243,15.705 48.181,31.958 73.1,46.524 47.396,27.704 95.237,54.661 143.219,81.343 17.478,9.719 35.883,17.77 53.862,26.587 1.501,0.737 2.979,1.52 5.096,2.603 C 332.405,193.233 242.383,147.82 167.317,104.727 110.35,72.024 54.58,37.35 0,0"
             style="fill:#ffffff;fill-opacity:1;fill-rule:nonzero;stroke:none"
             id="path3098" />
        </g>
        <g
           id="g3100"
           transform="translate(193.0849,322.1284)">
          <path
             inkscape:connector-curvature="0"
             d="m 0,0 c -2.9,39.221 15.482,69.035 37.957,97.362 1.041,-8.049 2.055,-15.893 3.07,-23.738 0.616,0.037 1.232,0.073 1.848,0.109 0.227,2.136 0.618,4.269 0.656,6.408 0.297,17.057 8.613,30.3 21.834,39.58 19.319,13.561 39.368,26.176 59.727,38.136 20.351,11.955 41.467,22.609 62.248,33.833 0.442,-0.334 0.885,-0.669 1.328,-1.003 -5.787,-13.638 -11.574,-27.277 -17.361,-40.915 11.608,19.068 21.634,39.074 39.262,54.165 -1.304,-5.766 -2.608,-11.532 -3.911,-17.298 9.171,18.112 27.318,25.845 42.274,37.046 12.804,9.589 25.433,19.968 39.618,27.022 20.224,10.058 41.8,17.398 64.095,26.423 -2.142,-7.709 -3.759,-13.53 -5.376,-19.351 0.439,-0.302 0.879,-0.604 1.318,-0.907 11.852,16.985 30.316,20.82 48.504,25.335 18.462,4.582 36.159,12.056 55.513,13.289 17.433,1.11 31.451,-9.713 33.71,-26.948 2.005,-15.298 -3.643,-28.316 -11.113,-41.079 -13.051,-22.299 -30.586,-40.244 -51.663,-54.951 -4.217,-2.943 -8.187,-6.244 -12.225,-9.437 -11.93,-9.435 -23.589,-19.317 -38.85,-23.899 4.769,0.537 9.539,1.074 14.25,1.604 -2.418,-7.974 -14.992,-16.604 -26.097,-17.675 -17.953,-1.731 -35.81,-0.697 -53.569,2.227 -6.184,1.018 -12.318,2.338 -18.75,3.572 8.409,-6.194 51.085,-13.551 79.462,-13.527 -4.659,-3.876 -7.995,-7.376 -11.98,-9.82 C 346.033,99.587 335.673,94.578 326.13,88.312 307.979,76.393 289.503,64.787 272.467,51.392 243.05,28.264 212.008,8.18 177.428,-6.286 c -4.743,-1.984 -9.513,-4.095 -13.853,-6.814 -16.915,-10.593 -34.224,-8.105 -51.739,-2.109 -2.066,0.707 -4.13,1.417 -6.386,1.616 9.261,-9.281 21.308,-12.442 33.398,-15.95 -20.817,-5.292 -41.542,-8.428 -62.401,0.932 0.12,-0.744 0.301,-1.854 0.311,-1.914 -11.791,3.936 -23.745,8.744 -36.123,11.879 -22.217,5.626 -42.443,-0.915 -60.747,-13.279 -14.672,-9.911 -28.512,-21.05 -42.778,-31.568 -2.886,-2.128 -6.025,-3.913 -9.047,-5.856 -0.318,0.355 -0.637,0.709 -0.955,1.063 5.299,5.097 10.292,10.566 15.949,15.23 30.323,24.996 61.801,48.414 95.126,69.321 10.15,6.367 19.61,13.825 29.672,20.343 24.243,15.705 48.181,31.958 73.1,46.524 47.396,27.704 95.237,54.661 143.219,81.343 17.478,9.719 35.883,17.77 53.862,26.587 1.501,0.737 2.979,1.52 5.096,2.603 C 332.405,193.233 242.383,147.82 167.317,104.727 110.35,72.024 54.58,37.35 0,0 z"
             style="fill:none;stroke:#000000;stroke-width:7;stroke-linecap:butt;stroke-linejoin:miter;stroke-miterlimit:10;stroke-opacity:1;stroke-dasharray:none"
             id="path3102" />
        </g>
      </g>
    </g>
    <path
       sodipodi:nodetypes="ccccccc"
       inkscape:connector-curvature="0"
       id="path3061"
       d="m 38.190454,1048.9148 0,-55.12085 -24.73084,11.01625 50.06121,-78.02516 50.061206,78.02516 -25.217956,-11.2144 0,55.319"
       style="font-size:medium;font-style:normal;font-variant:normal;font-weight:normal;font-stretch:normal;text-indent:0;text-align:start;text-decoration:none;line-height:normal;letter-spacing:normal;word-spacing:normal;text-transform:none;direction:ltr;block-progression:tb;writing-mode:lr-tb;text-anchor:start;baseline-shift:baseline;color:#000000;fill:#ff0000;fill-opacity:0.50196078000000000;stroke:#ff0000;stroke-width:3.69924520999999995;stroke-miterlimit:4;stroke-opacity:1;stroke-dasharray:none;marker:none;visibility:visible;display:inline;overflow:visible;enable-background:accumulate;font-family:Sans;-inkscape-font-specification:Sans" />
    <g
       transform="matrix(0.19339843,0,0,-0.19339843,-10.818573,1062.5709)"
       id="g3104">
      <g
         id="g3106"
         clip-path="url(#clipPath3108)">
        <g
           id="g3112"
           transform="translate(391.6317,529.7057)">
          <path
             inkscape:connector-curvature="0"
             d="M 0,0 C -23.309,0 -42.205,18.896 -42.205,42.205 -42.205,65.514 -23.309,84.41 0,84.41 23.309,84.41 42.205,65.514 42.205,42.205 42.205,18.896 23.309,0 0,0 m -0.572,104.289 c -34.604,0 -62.657,-28.052 -62.657,-62.656 0,-34.604 28.053,-62.657 62.657,-62.657 34.604,0 62.656,28.053 62.656,62.657 0,34.604 -28.052,62.656 -62.656,62.656"
             style="fill:#666666;fill-opacity:1;fill-rule:nonzero;stroke:none"
             id="path3114" />
        </g>
        <g
           id="g3116"
           transform="translate(391.6317,529.7057)">
          <path
             inkscape:connector-curvature="0"
             d="M 0,0 C -23.309,0 -42.205,18.896 -42.205,42.205 -42.205,65.514 -23.309,84.41 0,84.41 23.309,84.41 42.205,65.514 42.205,42.205 42.205,18.896 23.309,0 0,0 z m -0.572,104.289 c -34.604,0 -62.657,-28.052 -62.657,-62.656 0,-34.604 28.053,-62.657 62.657,-62.657 34.604,0 62.656,28.053 62.656,62.657 0,34.604 -28.052,62.656 -62.656,62.656 z"
             style="fill:none;stroke:#000000;stroke-width:10;stroke-linecap:butt;stroke-linejoin:miter;stroke-miterlimit:10;stroke-opacity:1;stroke-dasharray:none"
             id="path3118" />
        </g>
        <g
           id="g3120"
           transform="translate(575.3724,142.2707)">
          <path
             inkscape:connector-curvature="0"
             d="m 0,0 -368.626,0 c -29.919,0 -52.033,27.876 -45.227,57.011 l 66.611,285.121 c 4.91,21.014 23.647,35.878 45.227,35.878 l 235.404,0 c 21.58,0 40.317,-14.864 45.226,-35.878 L 45.227,57.011 C 52.033,27.876 29.919,0 0,0"
             style="fill:#666666;fill-opacity:1;fill-rule:nonzero;stroke:none"
             id="path3122" />
        </g>
        <g
           id="g3124"
           transform="translate(575.3724,142.2707)">
          <path
             inkscape:connector-curvature="0"
             d="m 0,0 -368.626,0 c -29.919,0 -52.033,27.876 -45.227,57.011 l 66.611,285.121 c 4.91,21.014 23.647,35.878 45.227,35.878 l 235.404,0 c 21.58,0 40.317,-14.864 45.226,-35.878 L 45.227,57.011 C 52.033,27.876 29.919,0 0,0 z"
             style="fill:none;stroke:#000000;stroke-width:15;stroke-linecap:butt;stroke-linejoin:miter;stroke-miterlimit:10;stroke-opacity:1;stroke-dasharray:none"
             id="path3126" />
        </g>
      </g>
    </g>
    <g
       transform="matrix(0.19339843,0,0,-0.19339843,-10.818573,1062.5709)"
       id="g3132"
       style="fill:#ffffff;fill-opacity:1">
      <g
         id="g3134"
         clip-path="url(#clipPath3136)"
         style="fill:#ffffff;fill-opacity:1">
        <g
           id="g3140"
           transform="translate(247.5796,410.4541)"
           style="fill:#ffffff;fill-opacity:1">
          <path
             inkscape:connector-curvature="0"
             d="m 0,0 0,-29.535 22.698,0 0,-118.047 38.377,0 0,118.047 22.789,0 L 83.864,0 0,0 z"
             style="fill:#ffffff;fill-opacity:1;stroke:#000000;stroke-width:2;stroke-linecap:butt;stroke-linejoin:miter;stroke-miterlimit:10;stroke-opacity:1;stroke-dasharray:none"
             id="path3142" />
        </g>
        <g
           id="g3144"
           transform="translate(427.8872,349.2881)"
           style="fill:#ffffff;fill-opacity:1">
          <path
             inkscape:connector-curvature="0"
             d="m 0,0 c 0,15.192 -0.365,25.827 -1.094,31.905 -0.729,6.076 -3.009,11.698 -6.837,16.864 -3.829,5.164 -8.887,9.038 -15.177,11.622 -6.29,2.582 -13.386,3.874 -21.286,3.874 -8.326,0 -15.619,-1.367 -21.877,-4.102 C -72.53,57.428 -77.499,53.509 -81.175,48.404 -84.853,43.299 -87.04,37.662 -87.738,31.495 -88.438,25.326 -88.786,14.827 -88.786,0 l 0,-25.25 c 0,-15.193 0.364,-25.829 1.094,-31.905 0.729,-6.077 3.007,-11.699 6.837,-16.864 3.828,-5.166 8.887,-9.04 15.176,-11.623 6.29,-2.582 13.385,-3.874 21.285,-3.874 8.326,0 15.619,1.368 21.878,4.103 6.258,2.734 11.227,6.654 14.905,11.759 3.675,5.104 5.863,10.741 6.562,16.909 C -0.351,-50.577 0,-40.079 0,-25.25 L 0,0 z m -38.377,-44.575 c 0,-8.692 -0.364,-14.191 -1.094,-16.499 -0.729,-2.311 -2.401,-3.464 -5.013,-3.464 -2.553,0 -4.179,1.002 -4.877,3.008 -0.7,2.005 -1.048,7.292 -1.048,15.861 l 0,68.914 c 0,7.596 0.531,12.169 1.595,13.719 1.062,1.55 2.597,2.324 4.603,2.324 2.37,0 3.934,-0.957 4.694,-2.871 0.76,-1.915 1.14,-6.306 1.14,-13.172 l 0,-67.82 z"
             style="fill:#ffffff;fill-opacity:1;stroke:#000000;stroke-width:2;stroke-linecap:butt;stroke-linejoin:miter;stroke-miterlimit:10;stroke-opacity:1;stroke-dasharray:none"
             id="path3146" />
        </g>
        <g
           id="g3148"
           transform="translate(495.7974,410.4541)"
           style="fill:#ffffff;fill-opacity:1">
          <path
             inkscape:connector-curvature="0"
             d="M 0,0 0,-66.453 -21.513,0 -53.6,0 l 0,-147.582 32.087,0 0,67.091 19.963,-67.091 33.637,0 L 32.087,0 0,0 z"
             style="fill:#ffffff;fill-opacity:1;stroke:#000000;stroke-width:2;stroke-linecap:butt;stroke-linejoin:miter;stroke-miterlimit:10;stroke-opacity:1;stroke-dasharray:none"
             id="path3150" />
        </g>
      </g>
    </g>
  </g>
</svg>
