# Blender v2.75 (sub 0) OBJ File: 'Strawberry_Stem.blend'
# www.blender.org
mtllib Strawberry_Stem.mtl
o Plane_Plane.000
v -0.802440 3.957011 1.811837
v -0.574166 3.960494 2.452522
v -0.504255 3.897177 0.585755
v -0.516157 3.918354 1.602162
v -0.287257 3.884196 0.869326
v -0.353857 3.935889 2.260847
v 0.802440 3.957011 1.811837
v -0.000000 3.931336 2.814215
v 0.000000 3.922396 -0.013518
v 0.574165 3.960494 2.452522
v 0.504255 3.897177 0.585755
v -0.000000 3.869623 1.388898
v 0.516156 3.918354 1.602162
v -0.000000 3.869623 0.681733
v -0.000000 3.931336 2.487677
v 0.287257 3.884196 0.869326
v 0.353857 3.935889 2.260847
v 1.931844 3.887244 0.439719
v 2.516426 3.865227 0.092764
v 0.669947 3.875054 0.382820
v 1.669776 3.856373 0.199337
v 0.905864 3.850608 0.115584
v 2.285214 3.847798 -0.086452
v 1.623654 3.884629 -1.135291
v 2.759747 3.820971 -0.539830
v -0.013598 3.922933 0.002675
v 2.295908 3.863356 -1.034195
v 0.476280 3.873410 -0.606919
v 1.359660 3.815202 -0.265859
v 1.471537 3.854691 -0.813762
v 0.666183 3.842935 -0.130209
v 2.439529 3.833777 -0.477193
v 0.795538 3.849672 -0.448237
v 2.149310 3.846645 -0.780995
v -1.624020 3.957011 -1.135438
v -2.296616 3.960494 -1.034445
v -0.478019 3.897177 -0.607354
v -1.473223 3.918354 -0.814218
v -0.797983 3.884196 -0.448850
v -2.150815 3.935889 -0.781429
v -1.932209 3.957011 0.439573
v -2.761837 3.931336 -0.540422
v 0.013267 3.922396 0.002596
v -2.517134 3.960494 0.092515
v -0.671686 3.897178 0.382386
v -1.363048 3.869623 -0.266714
v -1.671461 3.918354 0.198882
v -0.669045 3.869623 -0.130915
v -2.441376 3.931336 -0.477716
v -0.908309 3.884196 0.114972
v -2.286719 3.935889 -0.086885
vt 0.405112 0.135662
vt 0.984617 0.027083
vt 0.984617 0.136305
vt 0.671799 0.212177
vt 0.538844 0.772469
vt 0.331049 0.385926
vt 0.528323 0.432497
vt 0.730675 0.677619
vt 0.984617 0.972917
vt 0.984617 0.740366
vt 0.984617 0.503830
vn 0.070600 0.996900 -0.033900
vn 0.000000 0.999700 -0.025200
vn 0.000000 0.999400 -0.033400
vn 0.068200 0.996800 -0.040700
vn 0.064100 0.997400 0.031700
vn 0.094100 0.994900 -0.036700
vn 0.085800 0.995800 -0.031500
vn 0.076200 0.997100 0.003500
vn 0.000000 0.998300 0.057400
vn 0.000000 0.999400 0.035400
vn 0.000000 0.999600 -0.026600
vn -0.070600 0.996900 -0.033900
vn -0.068200 0.996800 -0.040700
vn -0.064100 0.997400 0.031700
vn -0.076200 0.997100 0.003500
vn -0.085800 0.995800 -0.031500
vn -0.094100 0.994900 -0.036700
vn -0.008700 0.997400 -0.071800
vn 0.013400 0.999900 -0.004300
vn 0.005400 1.000000 -0.002700
vn -0.015000 0.997500 -0.068200
vn 0.056900 0.995300 -0.078100
vn -0.016100 0.995400 -0.094400
vn -0.009300 0.996100 -0.087300
vn 0.026900 0.996000 -0.084600
vn 0.094400 0.995300 -0.020100
vn 0.072900 0.997200 -0.015900
vn 0.012000 0.999900 -0.004000
vn 0.018300 0.997600 0.066700
vn 0.011200 0.997800 0.065600
vn 0.081500 0.995500 0.047700
vn 0.056200 0.996300 0.065000
vn 0.023600 0.996400 0.081100
vn 0.020100 0.995700 0.090300
vn 0.019700 0.996900 0.075700
vn 0.024800 0.999700 0.004800
vn 0.032700 0.999400 0.006400
vn 0.026800 0.996800 0.074700
vn -0.043500 0.997400 0.056800
vn 0.017900 0.994900 0.099400
vn 0.014400 0.995800 0.090200
vn -0.018100 0.997100 0.074100
vn -0.056300 0.998300 -0.011000
vn -0.034700 0.999400 -0.006800
vn 0.026100 0.999600 0.005100
vn 0.046800 0.996900 -0.062700
vn 0.053000 0.996800 -0.059100
vn -0.018800 0.997400 -0.069000
vn 0.011200 0.997100 -0.075500
vn 0.047300 0.995800 -0.078200
vn 0.054100 0.994900 -0.085300
usemtl Material
s 1
f 2/1/1 8/2/2 15/3/3 6/4/4
f 3/5/5 1/6/6 4/7/7 5/8/8
f 9/9/9 3/5/5 5/8/8 14/10/10
f 14/10/10 5/8/8 4/7/7 12/11/11
f 4/7/7 6/4/4 15/3/3 12/11/11
f 1/6/6 2/1/1 6/4/4 4/7/7
f 10/1/12 17/4/13 15/3/3 8/2/2
f 11/5/14 16/8/15 13/7/16 7/6/17
f 9/9/9 14/10/10 16/8/15 11/5/14
f 14/10/10 12/11/11 13/7/16 16/8/15
f 13/7/16 12/11/11 15/3/3 17/4/13
f 7/6/17 13/7/16 17/4/13 10/1/12
f 19/1/18 25/2/19 32/3/20 23/4/21
f 20/5/22 18/6/23 21/7/24 22/8/25
f 26/9/26 20/5/22 22/8/25 31/10/27
f 31/10/27 22/8/25 21/7/24 29/11/28
f 21/7/24 23/4/21 32/3/20 29/11/28
f 18/6/23 19/1/18 23/4/21 21/7/24
f 27/1/29 34/4/30 32/3/20 25/2/19
f 28/5/31 33/8/32 30/7/33 24/6/34
f 26/9/26 31/10/27 33/8/32 28/5/31
f 31/10/27 29/11/28 30/7/33 33/8/32
f 30/7/33 29/11/28 32/3/20 34/4/30
f 24/6/34 30/7/33 34/4/30 27/1/29
f 36/1/35 42/2/36 49/3/37 40/4/38
f 37/5/39 35/6/40 38/7/41 39/8/42
f 43/9/43 37/5/39 39/8/42 48/10/44
f 48/10/44 39/8/42 38/7/41 46/11/45
f 38/7/41 40/4/38 49/3/37 46/11/45
f 35/6/40 36/1/35 40/4/38 38/7/41
f 44/1/46 51/4/47 49/3/37 42/2/36
f 45/5/48 50/8/49 47/7/50 41/6/51
f 43/9/43 48/10/44 50/8/49 45/5/48
f 48/10/44 46/11/45 47/7/50 50/8/49
f 47/7/50 46/11/45 49/3/37 51/4/47
f 41/6/51 47/7/50 51/4/47 44/1/46
o Cube_Cube.001
v 0.000000 -0.100000 0.107033
v 0.000000 0.900000 0.097365
v -0.107033 -0.100000 0.000000
v -0.097365 0.900000 0.000000
v 0.107033 -0.100000 -0.000000
v 0.097365 0.900000 -0.000000
v -0.000000 -0.100000 -0.107033
v -0.000000 0.900000 -0.097365
v 0.000000 1.900000 0.087697
v -0.087697 1.900000 0.000000
v 0.087697 1.900000 -0.000000
v -0.000000 1.900000 -0.087697
v 0.000000 2.900001 0.078029
v -0.078029 2.900001 0.000000
v 0.078029 2.900001 -0.000000
v -0.000000 2.900001 -0.078029
v 0.000000 3.900002 0.068361
v -0.068361 3.900002 0.000000
v 0.068361 3.900002 -0.000000
v -0.000000 3.900002 -0.068361
vt 0.196832 0.263941
vt 0.110937 0.263941
vt 0.102408 0.027881
vt 0.196832 0.027881
vt 0.282726 0.263941
vt 0.291255 0.027881
vt 0.196832 0.500000
vt 0.119466 0.500000
vt 0.274197 0.500000
vt 0.196832 0.736060
vt 0.127995 0.736060
vt 0.265668 0.736060
vt 0.196832 0.972119
vt 0.136524 0.972119
vt 0.257139 0.972119
vn 0.000000 0.009600 0.999900
vn -0.999900 0.009600 0.000000
vn 0.000000 0.009600 -0.999900
vn 0.999900 0.009600 0.000000
usemtl Material
s 1
f 53/12/52 55/13/53 54/14/53 52/15/52
f 55/13/53 59/12/54 58/15/54 54/14/53
f 59/12/54 57/16/55 56/17/55 58/15/54
f 57/16/55 53/12/52 52/15/52 56/17/55
f 60/18/52 61/19/53 55/13/53 53/12/52
f 61/19/53 63/18/54 59/12/54 55/13/53
f 63/18/54 62/20/55 57/16/55 59/12/54
f 62/20/55 60/18/52 53/12/52 57/16/55
f 64/21/52 65/22/53 61/19/53 60/18/52
f 65/22/53 67/21/54 63/18/54 61/19/53
f 67/21/54 66/23/55 62/20/55 63/18/54
f 66/23/55 64/21/52 60/18/52 62/20/55
f 68/24/52 69/25/53 65/22/53 64/21/52
f 69/25/53 71/24/54 67/21/54 65/22/53
f 71/24/54 70/26/55 66/23/55 67/21/54
f 70/26/55 68/24/52 64/21/52 66/23/55
