<?xml version="1.0" encoding="UTF-8" standalone="no"?>
<!-- Created with Inkscape (http://www.inkscape.org/) -->

<svg
   xmlns:dc="http://purl.org/dc/elements/1.1/"
   xmlns:cc="http://creativecommons.org/ns#"
   xmlns:rdf="http://www.w3.org/1999/02/22-rdf-syntax-ns#"
   xmlns:svg="http://www.w3.org/2000/svg"
   xmlns="http://www.w3.org/2000/svg"
   xmlns:xlink="http://www.w3.org/1999/xlink"
   xmlns:sodipodi="http://sodipodi.sourceforge.net/DTD/sodipodi-0.dtd"
   xmlns:inkscape="http://www.inkscape.org/namespaces/inkscape"
   width="256"
   height="256"
   id="svg2"
   version="1.1"
   inkscape:version="0.48.1 "
   sodipodi:docname="Strawberry_Seed_Height.svg"
   inkscape:export-filename="C:\Users\admin\Documents\workspace\guardian_of_the_fields_the_strawberry_jam\Unity\Assets\Materials\Strawberry_Seed_Height.png"
   inkscape:export-xdpi="90"
   inkscape:export-ydpi="90">
  <defs
     id="defs4">
    <linearGradient
       id="linearGradient3776">
      <stop
         id="stop3778"
         offset="0"
         style="stop-color:#000000;stop-opacity:1;" />
      <stop
         id="stop3780"
         offset="1"
         style="stop-color:#000000;stop-opacity:1" />
    </linearGradient>
    <linearGradient
       id="linearGradient3761">
      <stop
         style="stop-color:#ffffff;stop-opacity:1;"
         offset="0"
         id="stop3763" />
      <stop
         style="stop-color:#808080;stop-opacity:0.36936936;"
         offset="1"
         id="stop3765" />
    </linearGradient>
    <radialGradient
       inkscape:collect="always"
       xlink:href="#linearGradient3761"
       id="radialGradient3767"
       cx="32"
       cy="32"
       fx="32"
       fy="32"
       r="16"
       gradientTransform="matrix(1,0,0,1.5,0,-16)"
       gradientUnits="userSpaceOnUse" />
    <radialGradient
       inkscape:collect="always"
       xlink:href="#linearGradient3761"
       id="radialGradient3770"
       gradientUnits="userSpaceOnUse"
       gradientTransform="matrix(-0.99999997,2.2518876e-7,-4.5037757e-7,-2.0000002,64.000013,892.36218)"
       cx="32"
       cy="32.000004"
       fx="32"
       fy="32.000004"
       r="16" />
    <radialGradient
       inkscape:collect="always"
       xlink:href="#linearGradient3776"
       id="radialGradient3774"
       gradientUnits="userSpaceOnUse"
       gradientTransform="matrix(-1.5000001,2.5069246e-7,-3.8661266e-7,-1.9999996,80.000013,1077.9622)"
       cx="32"
       cy="28.800009"
       fx="32"
       fy="28.800009"
       r="16" />
    <filter
       inkscape:collect="always"
       id="filter3786"
       x="-0.17325009"
       width="1.3465002"
       y="-0.12319995"
       height="1.2463999"
       color-interpolation-filters="sRGB">
      <feGaussianBlur
         inkscape:collect="always"
         stdDeviation="3.0799997"
         id="feGaussianBlur3788" />
    </filter>
    <radialGradient
       inkscape:collect="always"
       xlink:href="#linearGradient3776"
       id="radialGradient3009"
       gradientUnits="userSpaceOnUse"
       gradientTransform="matrix(-1.5000001,2.5069246e-7,-3.8661266e-7,-1.9999996,80.000013,1077.9622)"
       cx="32"
       cy="28.800009"
       fx="32"
       fy="28.800009"
       r="16" />
    <radialGradient
       inkscape:collect="always"
       xlink:href="#linearGradient3761"
       id="radialGradient3011"
       gradientUnits="userSpaceOnUse"
       gradientTransform="matrix(-0.99999997,2.2518876e-7,-4.5037757e-7,-2.0000002,124.00001,892.36218)"
       cx="32"
       cy="32.000004"
       fx="32"
       fy="32.000004"
       r="16" />
    <radialGradient
       inkscape:collect="always"
       xlink:href="#linearGradient3776"
       id="radialGradient3017"
       gradientUnits="userSpaceOnUse"
       gradientTransform="matrix(-1.5000001,2.5069246e-7,-3.8661266e-7,-1.9999996,80.000013,1077.9622)"
       cx="32"
       cy="28.800009"
       fx="32"
       fy="28.800009"
       r="16" />
    <radialGradient
       inkscape:collect="always"
       xlink:href="#linearGradient3761"
       id="radialGradient3019"
       gradientUnits="userSpaceOnUse"
       gradientTransform="matrix(-0.99999997,2.2518876e-7,-4.5037757e-7,-2.0000002,186.00001,892.36218)"
       cx="32"
       cy="32.000004"
       fx="32"
       fy="32.000004"
       r="16" />
    <radialGradient
       inkscape:collect="always"
       xlink:href="#linearGradient3776"
       id="radialGradient3025"
       gradientUnits="userSpaceOnUse"
       gradientTransform="matrix(-1.5000001,2.5069246e-7,-3.8661266e-7,-1.9999996,80.000013,1077.9622)"
       cx="32"
       cy="28.800009"
       fx="32"
       fy="28.800009"
       r="16" />
    <radialGradient
       inkscape:collect="always"
       xlink:href="#linearGradient3761"
       id="radialGradient3027"
       gradientUnits="userSpaceOnUse"
       gradientTransform="matrix(-0.99999997,2.2518876e-7,-4.5037757e-7,-2.0000002,246.00001,892.36218)"
       cx="32"
       cy="32.000004"
       fx="32"
       fy="32.000004"
       r="16" />
    <radialGradient
       inkscape:collect="always"
       xlink:href="#linearGradient3776"
       id="radialGradient3035"
       gradientUnits="userSpaceOnUse"
       gradientTransform="matrix(-1.5000001,2.5069246e-7,-3.8661266e-7,-1.9999996,80.000013,1077.9622)"
       cx="32"
       cy="28.800009"
       fx="32"
       fy="28.800009"
       r="16" />
    <radialGradient
       inkscape:collect="always"
       xlink:href="#linearGradient3761"
       id="radialGradient3037"
       gradientUnits="userSpaceOnUse"
       gradientTransform="matrix(-0.99999997,2.2518876e-7,-4.5037757e-7,-2.0000002,92.000013,948.36218)"
       cx="32"
       cy="32.000004"
       fx="32"
       fy="32.000004"
       r="16" />
    <radialGradient
       inkscape:collect="always"
       xlink:href="#linearGradient3776"
       id="radialGradient3043"
       gradientUnits="userSpaceOnUse"
       gradientTransform="matrix(-1.5000001,2.5069246e-7,-3.8661266e-7,-1.9999996,80.000013,1077.9622)"
       cx="32"
       cy="28.800009"
       fx="32"
       fy="28.800009"
       r="16" />
    <radialGradient
       inkscape:collect="always"
       xlink:href="#linearGradient3761"
       id="radialGradient3045"
       gradientUnits="userSpaceOnUse"
       gradientTransform="matrix(-0.99999997,2.2518876e-7,-4.5037757e-7,-2.0000002,156.00001,948.36218)"
       cx="32"
       cy="32.000004"
       fx="32"
       fy="32.000004"
       r="16" />
    <radialGradient
       inkscape:collect="always"
       xlink:href="#linearGradient3776"
       id="radialGradient3051"
       gradientUnits="userSpaceOnUse"
       gradientTransform="matrix(-1.5000001,2.5069246e-7,-3.8661266e-7,-1.9999996,80.000013,1077.9622)"
       cx="32"
       cy="28.800009"
       fx="32"
       fy="28.800009"
       r="16" />
    <radialGradient
       inkscape:collect="always"
       xlink:href="#linearGradient3761"
       id="radialGradient3053"
       gradientUnits="userSpaceOnUse"
       gradientTransform="matrix(-0.99999997,2.2518876e-7,-4.5037757e-7,-2.0000002,216.00001,948.36218)"
       cx="32"
       cy="32.000004"
       fx="32"
       fy="32.000004"
       r="16" />
    <radialGradient
       inkscape:collect="always"
       xlink:href="#linearGradient3776"
       id="radialGradient3111"
       gradientUnits="userSpaceOnUse"
       gradientTransform="matrix(-1.5000001,2.5069246e-7,-3.8661266e-7,-1.9999996,80.000013,1077.9622)"
       cx="32"
       cy="28.800009"
       fx="32"
       fy="28.800009"
       r="16" />
    <radialGradient
       inkscape:collect="always"
       xlink:href="#linearGradient3761"
       id="radialGradient3113"
       gradientUnits="userSpaceOnUse"
       gradientTransform="matrix(-0.99999997,2.2518876e-7,-4.5037757e-7,-2.0000002,64.000013,1006.3622)"
       cx="32"
       cy="32.000004"
       fx="32"
       fy="32.000004"
       r="16" />
    <radialGradient
       inkscape:collect="always"
       xlink:href="#linearGradient3776"
       id="radialGradient3115"
       gradientUnits="userSpaceOnUse"
       gradientTransform="matrix(-1.5000001,2.5069246e-7,-3.8661266e-7,-1.9999996,80.000013,1077.9622)"
       cx="32"
       cy="28.800009"
       fx="32"
       fy="28.800009"
       r="16" />
    <radialGradient
       inkscape:collect="always"
       xlink:href="#linearGradient3761"
       id="radialGradient3117"
       gradientUnits="userSpaceOnUse"
       gradientTransform="matrix(-0.99999997,2.2518876e-7,-4.5037757e-7,-2.0000002,124.00001,1006.3622)"
       cx="32"
       cy="32.000004"
       fx="32"
       fy="32.000004"
       r="16" />
    <radialGradient
       inkscape:collect="always"
       xlink:href="#linearGradient3776"
       id="radialGradient3119"
       gradientUnits="userSpaceOnUse"
       gradientTransform="matrix(-1.5000001,2.5069246e-7,-3.8661266e-7,-1.9999996,80.000013,1077.9622)"
       cx="32"
       cy="28.800009"
       fx="32"
       fy="28.800009"
       r="16" />
    <radialGradient
       inkscape:collect="always"
       xlink:href="#linearGradient3761"
       id="radialGradient3121"
       gradientUnits="userSpaceOnUse"
       gradientTransform="matrix(-0.99999997,2.2518876e-7,-4.5037757e-7,-2.0000002,186.00001,1006.3622)"
       cx="32"
       cy="32.000004"
       fx="32"
       fy="32.000004"
       r="16" />
    <radialGradient
       inkscape:collect="always"
       xlink:href="#linearGradient3776"
       id="radialGradient3123"
       gradientUnits="userSpaceOnUse"
       gradientTransform="matrix(-1.5000001,2.5069246e-7,-3.8661266e-7,-1.9999996,80.000013,1077.9622)"
       cx="32"
       cy="28.800009"
       fx="32"
       fy="28.800009"
       r="16" />
    <radialGradient
       inkscape:collect="always"
       xlink:href="#linearGradient3761"
       id="radialGradient3125"
       gradientUnits="userSpaceOnUse"
       gradientTransform="matrix(-0.99999997,2.2518876e-7,-4.5037757e-7,-2.0000002,246.00001,1006.3622)"
       cx="32"
       cy="32.000004"
       fx="32"
       fy="32.000004"
       r="16" />
    <radialGradient
       inkscape:collect="always"
       xlink:href="#linearGradient3776"
       id="radialGradient3127"
       gradientUnits="userSpaceOnUse"
       gradientTransform="matrix(-1.5000001,2.5069246e-7,-3.8661266e-7,-1.9999996,80.000013,1077.9622)"
       cx="32"
       cy="28.800009"
       fx="32"
       fy="28.800009"
       r="16" />
    <radialGradient
       inkscape:collect="always"
       xlink:href="#linearGradient3761"
       id="radialGradient3129"
       gradientUnits="userSpaceOnUse"
       gradientTransform="matrix(-0.99999997,2.2518876e-7,-4.5037757e-7,-2.0000002,92.000013,1062.3622)"
       cx="32"
       cy="32.000004"
       fx="32"
       fy="32.000004"
       r="16" />
    <radialGradient
       inkscape:collect="always"
       xlink:href="#linearGradient3776"
       id="radialGradient3131"
       gradientUnits="userSpaceOnUse"
       gradientTransform="matrix(-1.5000001,2.5069246e-7,-3.8661266e-7,-1.9999996,80.000013,1077.9622)"
       cx="32"
       cy="28.800009"
       fx="32"
       fy="28.800009"
       r="16" />
    <radialGradient
       inkscape:collect="always"
       xlink:href="#linearGradient3761"
       id="radialGradient3133"
       gradientUnits="userSpaceOnUse"
       gradientTransform="matrix(-0.99999997,2.2518876e-7,-4.5037757e-7,-2.0000002,152.00001,1062.3622)"
       cx="32"
       cy="32.000004"
       fx="32"
       fy="32.000004"
       r="16" />
    <radialGradient
       inkscape:collect="always"
       xlink:href="#linearGradient3776"
       id="radialGradient3135"
       gradientUnits="userSpaceOnUse"
       gradientTransform="matrix(-1.5000001,2.5069246e-7,-3.8661266e-7,-1.9999996,80.000013,1077.9622)"
       cx="32"
       cy="28.800009"
       fx="32"
       fy="28.800009"
       r="16" />
    <radialGradient
       inkscape:collect="always"
       xlink:href="#linearGradient3761"
       id="radialGradient3137"
       gradientUnits="userSpaceOnUse"
       gradientTransform="matrix(-0.99999997,2.2518876e-7,-4.5037757e-7,-2.0000002,216.00001,1062.3622)"
       cx="32"
       cy="32.000004"
       fx="32"
       fy="32.000004"
       r="16" />
    <filter
       inkscape:collect="always"
       id="filter3909"
       x="-0.19186947"
       width="1.3837389"
       y="-0.027431237"
       height="1.0548625">
      <feGaussianBlur
         inkscape:collect="always"
         stdDeviation="2.7431237"
         id="feGaussianBlur3911" />
    </filter>
  </defs>
  <sodipodi:namedview
     id="base"
     pagecolor="#ffffff"
     bordercolor="#666666"
     borderopacity="1.0"
     inkscape:pageopacity="0.0"
     inkscape:pageshadow="2"
     inkscape:zoom="2"
     inkscape:cx="140.21259"
     inkscape:cy="127.44902"
     inkscape:document-units="px"
     inkscape:current-layer="layer1"
     showgrid="true"
     inkscape:window-width="1280"
     inkscape:window-height="706"
     inkscape:window-x="-8"
     inkscape:window-y="-8"
     inkscape:window-maximized="1">
    <inkscape:grid
       type="xygrid"
       id="grid2985"
       empspacing="4"
       visible="true"
       enabled="true"
       snapvisiblegridlinesonly="true" />
  </sodipodi:namedview>
  <metadata
     id="metadata7">
    <rdf:RDF>
      <cc:Work
         rdf:about="">
        <dc:format>image/svg+xml</dc:format>
        <dc:type
           rdf:resource="http://purl.org/dc/dcmitype/StillImage" />
        <dc:title></dc:title>
      </cc:Work>
    </rdf:RDF>
  </metadata>
  <g
     inkscape:label="Layer 1"
     inkscape:groupmode="layer"
     id="layer1"
     transform="translate(0,-796.36218)">
    <rect
       style="fill:#808080;fill-opacity:1;stroke:none"
       id="rect2987"
       width="256"
       height="256"
       x="0"
       y="796.36218"
       sodipodi:insensitive="true" />
    <path
       sodipodi:nodetypes="sssss"
       inkscape:connector-curvature="0"
       id="path3772"
       d="m 53.333319,1012.3622 c 0,16.5685 -21.336358,39.6843 -21.333319,40 0,0 -21.333319,-23.4315 -21.333319,-40 0,-16.56857 9.551253,-20.00002 21.333319,-20.00002 11.782066,0 21.333319,3.43145 21.333319,20.00002 z"
       style="fill:url(#radialGradient3774);fill-opacity:1;stroke:none;filter:url(#filter3786)"
       transform="matrix(0.93750063,0,0,0.93333302,1.9999798,-117.84221)" />
    <path
       style="fill:url(#radialGradient3770);fill-opacity:1;stroke:none"
       d="m 48,828.36218 c 0,13.25483 -16.002279,31.74746 -16,32 0,0 -16,-18.74517 -16,-32 0,-13.25483 7.163444,-16 16,-16 8.836556,0 16,2.74517 16,16 z"
       id="path3759"
       inkscape:connector-curvature="0"
       sodipodi:nodetypes="sssss" />
    <path
       transform="matrix(0.93750063,0,0,0.93333302,61.99998,-117.84221)"
       style="fill:url(#radialGradient3009);fill-opacity:1;stroke:none;filter:url(#filter3786)"
       d="m 53.333319,1012.3622 c 0,16.5685 -21.336358,39.6843 -21.333319,40 0,0 -21.333319,-23.4315 -21.333319,-40 0,-16.56857 9.551253,-20.00002 21.333319,-20.00002 11.782066,0 21.333319,3.43145 21.333319,20.00002 z"
       id="path3005"
       inkscape:connector-curvature="0"
       sodipodi:nodetypes="sssss" />
    <path
       sodipodi:nodetypes="sssss"
       inkscape:connector-curvature="0"
       id="path3007"
       d="m 108,828.36218 c 0,13.25483 -16.002279,31.74746 -16,32 0,0 -16,-18.74517 -16,-32 0,-13.25483 7.163444,-16 16,-16 8.83656,0 16,2.74517 16,16 z"
       style="fill:url(#radialGradient3011);fill-opacity:1;stroke:none" />
    <path
       sodipodi:nodetypes="sssss"
       inkscape:connector-curvature="0"
       id="path3013"
       d="m 53.333319,1012.3622 c 0,16.5685 -21.336358,39.6843 -21.333319,40 0,0 -21.333319,-23.4315 -21.333319,-40 0,-16.56857 9.551253,-20.00002 21.333319,-20.00002 11.782066,0 21.333319,3.43145 21.333319,20.00002 z"
       style="fill:url(#radialGradient3017);fill-opacity:1;stroke:none;filter:url(#filter3786)"
       transform="matrix(0.93750063,0,0,0.93333302,123.99998,-117.84221)" />
    <path
       style="fill:url(#radialGradient3019);fill-opacity:1;stroke:none"
       d="m 170,828.36218 c 0,13.25483 -16.00228,31.74746 -16,32 0,0 -16,-18.74517 -16,-32 0,-13.25483 7.16344,-16 16,-16 8.83656,0 16,2.74517 16,16 z"
       id="path3015"
       inkscape:connector-curvature="0"
       sodipodi:nodetypes="sssss" />
    <path
       transform="matrix(0.93750063,0,0,0.93333302,183.99998,-117.84221)"
       style="fill:url(#radialGradient3025);fill-opacity:1;stroke:none;filter:url(#filter3786)"
       d="m 53.333319,1012.3622 c 0,16.5685 -21.336358,39.6843 -21.333319,40 0,0 -21.333319,-23.4315 -21.333319,-40 0,-16.56857 9.551253,-20.00002 21.333319,-20.00002 11.782066,0 21.333319,3.43145 21.333319,20.00002 z"
       id="path3021"
       inkscape:connector-curvature="0"
       sodipodi:nodetypes="sssss" />
    <path
       sodipodi:nodetypes="sssss"
       inkscape:connector-curvature="0"
       id="path3023"
       d="m 230,828.36218 c 0,13.25483 -16.00228,31.74746 -16,32 0,0 -16,-18.74517 -16,-32 0,-13.25483 7.16344,-16 16,-16 8.83656,0 16,2.74517 16,16 z"
       style="fill:url(#radialGradient3027);fill-opacity:1;stroke:none" />
    <path
       transform="matrix(0.93750063,0,0,0.93333302,29.99998,-61.84221)"
       style="fill:url(#radialGradient3035);fill-opacity:1;stroke:none;filter:url(#filter3786)"
       d="m 53.333319,1012.3622 c 0,16.5685 -21.336358,39.6843 -21.333319,40 0,0 -21.333319,-23.4315 -21.333319,-40 0,-16.56857 9.551253,-20.00002 21.333319,-20.00002 11.782066,0 21.333319,3.43145 21.333319,20.00002 z"
       id="path3031"
       inkscape:connector-curvature="0"
       sodipodi:nodetypes="sssss" />
    <path
       sodipodi:nodetypes="sssss"
       inkscape:connector-curvature="0"
       id="path3033"
       d="m 76,884.36218 c 0,13.25483 -16.002279,31.74746 -16,32 0,0 -16,-18.74517 -16,-32 0,-13.25483 7.163444,-16 16,-16 8.836556,0 16,2.74517 16,16 z"
       style="fill:url(#radialGradient3037);fill-opacity:1;stroke:none" />
    <path
       sodipodi:nodetypes="sssss"
       inkscape:connector-curvature="0"
       id="path3039"
       d="m 53.333319,1012.3622 c 0,16.5685 -21.336358,39.6843 -21.333319,40 0,0 -21.333319,-23.4315 -21.333319,-40 0,-16.56857 9.551253,-20.00002 21.333319,-20.00002 11.782066,0 21.333319,3.43145 21.333319,20.00002 z"
       style="fill:url(#radialGradient3043);fill-opacity:1;stroke:none;filter:url(#filter3786)"
       transform="matrix(0.93750063,0,0,0.93333302,93.99998,-61.84221)" />
    <path
       style="fill:url(#radialGradient3045);fill-opacity:1;stroke:none"
       d="m 140,884.36218 c 0,13.25483 -16.00228,31.74746 -16,32 0,0 -16,-18.74517 -16,-32 0,-13.25483 7.16344,-16 16,-16 8.83656,0 16,2.74517 16,16 z"
       id="path3041"
       inkscape:connector-curvature="0"
       sodipodi:nodetypes="sssss" />
    <path
       transform="matrix(0.93750063,0,0,0.93333302,153.99998,-61.84221)"
       style="fill:url(#radialGradient3051);fill-opacity:1;stroke:none;filter:url(#filter3786)"
       d="m 53.333319,1012.3622 c 0,16.5685 -21.336358,39.6843 -21.333319,40 0,0 -21.333319,-23.4315 -21.333319,-40 0,-16.56857 9.551253,-20.00002 21.333319,-20.00002 11.782066,0 21.333319,3.43145 21.333319,20.00002 z"
       id="path3047"
       inkscape:connector-curvature="0"
       sodipodi:nodetypes="sssss" />
    <path
       sodipodi:nodetypes="sssss"
       inkscape:connector-curvature="0"
       id="path3049"
       d="m 200,884.36218 c 0,13.25483 -16.00228,31.74746 -16,32 0,0 -16,-18.74517 -16,-32 0,-13.25483 7.16344,-16 16,-16 8.83656,0 16,2.74517 16,16 z"
       style="fill:url(#radialGradient3053);fill-opacity:1;stroke:none" />
    <path
       transform="matrix(0.93750063,0,0,0.93333302,1.9999798,-3.84221)"
       style="fill:url(#radialGradient3111);fill-opacity:1;stroke:none;filter:url(#filter3786)"
       d="m 53.333319,1012.3622 c 0,16.5685 -21.336358,39.6843 -21.333319,40 0,0 -21.333319,-23.4315 -21.333319,-40 0,-16.56857 9.551253,-20.00002 21.333319,-20.00002 11.782066,0 21.333319,3.43145 21.333319,20.00002 z"
       id="path3083"
       inkscape:connector-curvature="0"
       sodipodi:nodetypes="sssss" />
    <path
       sodipodi:nodetypes="sssss"
       inkscape:connector-curvature="0"
       id="path3085"
       d="m 48,942.36218 c 0,13.25483 -16.002279,31.74746 -16,32 0,0 -16,-18.74517 -16,-32 0,-13.25483 7.163444,-16 16,-16 8.836556,0 16,2.74517 16,16 z"
       style="fill:url(#radialGradient3113);fill-opacity:1;stroke:none" />
    <path
       sodipodi:nodetypes="sssss"
       inkscape:connector-curvature="0"
       id="path3087"
       d="m 53.333319,1012.3622 c 0,16.5685 -21.336358,39.6843 -21.333319,40 0,0 -21.333319,-23.4315 -21.333319,-40 0,-16.56857 9.551253,-20.00002 21.333319,-20.00002 11.782066,0 21.333319,3.43145 21.333319,20.00002 z"
       style="fill:url(#radialGradient3115);fill-opacity:1;stroke:none;filter:url(#filter3786)"
       transform="matrix(0.93750063,0,0,0.93333302,61.99998,-3.84221)" />
    <path
       style="fill:url(#radialGradient3117);fill-opacity:1;stroke:none"
       d="m 108,942.36218 c 0,13.25483 -16.002279,31.74746 -16,32 0,0 -16,-18.74517 -16,-32 0,-13.25483 7.163444,-16 16,-16 8.83656,0 16,2.74517 16,16 z"
       id="path3089"
       inkscape:connector-curvature="0"
       sodipodi:nodetypes="sssss" />
    <path
       transform="matrix(0.93750063,0,0,0.93333302,123.99998,-3.84221)"
       style="fill:url(#radialGradient3119);fill-opacity:1;stroke:none;filter:url(#filter3786)"
       d="m 53.333319,1012.3622 c 0,16.5685 -21.336358,39.6843 -21.333319,40 0,0 -21.333319,-23.4315 -21.333319,-40 0,-16.56857 9.551253,-20.00002 21.333319,-20.00002 11.782066,0 21.333319,3.43145 21.333319,20.00002 z"
       id="path3091"
       inkscape:connector-curvature="0"
       sodipodi:nodetypes="sssss" />
    <path
       sodipodi:nodetypes="sssss"
       inkscape:connector-curvature="0"
       id="path3093"
       d="m 170,942.36218 c 0,13.25483 -16.00228,31.74746 -16,32 0,0 -16,-18.74517 -16,-32 0,-13.25483 7.16344,-16 16,-16 8.83656,0 16,2.74517 16,16 z"
       style="fill:url(#radialGradient3121);fill-opacity:1;stroke:none" />
    <path
       sodipodi:nodetypes="sssss"
       inkscape:connector-curvature="0"
       id="path3095"
       d="m 53.333319,1012.3622 c 0,16.5685 -21.336358,39.6843 -21.333319,40 0,0 -21.333319,-23.4315 -21.333319,-40 0,-16.56857 9.551253,-20.00002 21.333319,-20.00002 11.782066,0 21.333319,3.43145 21.333319,20.00002 z"
       style="fill:url(#radialGradient3123);fill-opacity:1;stroke:none;filter:url(#filter3786)"
       transform="matrix(0.93750063,0,0,0.93333302,183.99998,-3.84221)" />
    <path
       style="fill:url(#radialGradient3125);fill-opacity:1;stroke:none"
       d="m 230,942.36218 c 0,13.25483 -16.00228,31.74746 -16,32 0,0 -16,-18.74517 -16,-32 0,-13.25483 7.16344,-16 16,-16 8.83656,0 16,2.74517 16,16 z"
       id="path3097"
       inkscape:connector-curvature="0"
       sodipodi:nodetypes="sssss" />
    <path
       sodipodi:nodetypes="sssss"
       inkscape:connector-curvature="0"
       id="path3099"
       d="m 53.333319,1012.3622 c 0,16.5685 -21.336358,39.6843 -21.333319,40 0,0 -21.333319,-23.4315 -21.333319,-40 0,-16.56857 9.551253,-20.00002 21.333319,-20.00002 11.782066,0 21.333319,3.43145 21.333319,20.00002 z"
       style="fill:url(#radialGradient3127);fill-opacity:1;stroke:none;filter:url(#filter3786)"
       transform="matrix(0.93750063,0,0,0.93333302,29.99998,52.15779)" />
    <path
       style="fill:url(#radialGradient3129);fill-opacity:1;stroke:none"
       d="m 76,998.36218 c 0,13.25482 -16.002279,31.74742 -16,32.00002 0,0 -16,-18.7452 -16,-32.00002 0,-13.25483 7.163444,-16 16,-16 8.836556,0 16,2.74517 16,16 z"
       id="path3101"
       inkscape:connector-curvature="0"
       sodipodi:nodetypes="sssss" />
    <path
       transform="matrix(0.93750063,0,0,0.93333302,89.99998,52.15779)"
       style="fill:url(#radialGradient3131);fill-opacity:1;stroke:none;filter:url(#filter3786)"
       d="m 53.333319,1012.3622 c 0,16.5685 -21.336358,39.6843 -21.333319,40 0,0 -21.333319,-23.4315 -21.333319,-40 0,-16.56857 9.551253,-20.00002 21.333319,-20.00002 11.782066,0 21.333319,3.43145 21.333319,20.00002 z"
       id="path3103"
       inkscape:connector-curvature="0"
       sodipodi:nodetypes="sssss" />
    <path
       sodipodi:nodetypes="sssss"
       inkscape:connector-curvature="0"
       id="path3105"
       d="m 136,998.36218 c 0,13.25482 -16.00228,31.74742 -16,32.00002 0,0 -16,-18.7452 -16,-32.00002 0,-13.25483 7.16344,-16 16,-16 8.83656,0 16,2.74517 16,16 z"
       style="fill:url(#radialGradient3133);fill-opacity:1;stroke:none" />
    <path
       sodipodi:nodetypes="sssss"
       inkscape:connector-curvature="0"
       id="path3107"
       d="m 53.333319,1012.3622 c 0,16.5685 -21.336358,39.6843 -21.333319,40 0,0 -21.333319,-23.4315 -21.333319,-40 0,-16.56857 9.551253,-20.00002 21.333319,-20.00002 11.782066,0 21.333319,3.43145 21.333319,20.00002 z"
       style="fill:url(#radialGradient3135);fill-opacity:1;stroke:none;filter:url(#filter3786)"
       transform="matrix(0.93750063,0,0,0.93333302,153.99998,52.15779)" />
    <path
       style="fill:url(#radialGradient3137);fill-opacity:1;stroke:none"
       d="m 200,998.36218 c 0,13.25482 -16.00228,31.74742 -16,32.00002 0,0 -16,-18.7452 -16,-32.00002 0,-13.25483 7.16344,-16 16,-16 8.83656,0 16,2.74517 16,16 z"
       id="path3109"
       inkscape:connector-curvature="0"
       sodipodi:nodetypes="sssss" />
  </g>
</svg>
